<svg width="200" height="200" viewBox="0 0 200 200" fill="none" xmlns="http://www.w3.org/2000/svg">
    <path fill-rule="evenodd" clip-rule="evenodd" d="M145.901 158.445C150.364 158.445 154.189 161.846 155.677 166.309C157.59 164.396 160.14 163.333 162.903 163.333C168.004 163.333 172.254 166.946 173.104 171.834C173.742 171.409 174.592 171.197 175.442 171.197C177.992 171.197 180.118 173.11 180.543 175.66H112.321C112.321 171.622 115.722 168.221 119.76 168.221C120.822 168.221 121.885 168.434 122.735 168.859C124.01 164.608 127.836 161.421 132.299 161.421C134.212 161.421 136.124 162.058 137.612 162.908C139.525 160.358 142.5 158.445 145.901 158.445Z" fill="#FFD173"/>
    <path d="M188.193 186.074C188.193 197.975 12.0078 197.975 12.0078 186.074C12.0078 174.172 51.3255 164.608 99.9944 164.608C148.663 164.608 188.193 174.385 188.193 186.074Z" fill="#5AD199"/>
    <path fill-rule="evenodd" clip-rule="evenodd" d="M59.1889 157.595C64.7146 157.595 69.6028 162.058 71.5155 168.221C73.8533 165.884 77.0413 164.396 80.6542 164.396C87.0301 164.396 92.5558 169.284 93.4059 175.872C94.256 175.447 95.3187 175.022 96.3813 175.022C99.7817 175.022 102.332 177.573 102.97 180.973H17.1084C17.1084 175.66 21.359 171.197 26.4596 171.197C27.7348 171.197 29.01 171.409 30.0726 172.047C31.5603 166.309 36.4484 162.271 42.1867 162.271C44.737 162.271 46.8623 163.121 48.7751 164.396C51.3254 160.145 54.9384 157.595 59.1889 157.595Z" fill="#449E8B"/>
    <path fill-rule="evenodd" clip-rule="evenodd" d="M91.7059 166.734C96.3815 166.734 100.632 170.347 102.12 175.235C104.033 173.322 106.795 172.047 109.771 172.047C115.297 172.047 119.76 176.085 120.822 181.186C121.672 180.761 122.31 180.548 123.373 180.548C126.135 180.548 128.473 182.673 128.898 185.224H55.5762C55.5762 180.761 59.1891 177.148 63.4397 177.148C64.5023 177.148 65.565 177.36 66.6276 177.785C67.9028 173.11 72.1534 169.922 77.0415 169.922C79.1668 169.922 81.0795 170.559 82.7798 171.622C84.905 168.647 88.0929 166.734 91.7059 166.734Z" fill="#FFD173"/>
    <path d="M65.5643 123.166C65.5643 123.166 65.3517 122.315 65.3517 122.103C65.3517 121.89 65.3517 120.828 65.3517 120.828C65.3517 120.828 65.3517 117.427 65.5643 117.64C65.7768 117.64 66.2019 118.277 66.2019 118.49C66.2019 118.702 66.4144 118.915 66.4144 119.127C66.4144 119.34 66.6269 119.553 67.052 119.34C67.2645 119.34 67.2645 118.49 67.052 118.065C66.8394 117.215 65.3517 114.877 65.3517 114.664C65.1392 114.452 66.2019 108.714 66.4144 106.588C66.8394 103.4 67.477 100 67.477 99.5749L73.2153 86.8232L69.3898 82.7852C69.3898 82.7852 62.8014 96.8121 62.5889 97.6622C62.3764 98.0872 61.9513 105.526 61.9513 105.526C61.9513 109.351 61.9513 112.539 61.9513 113.177C61.9513 113.177 61.3137 115.089 60.8887 116.365C60.4636 117.64 60.4636 118.915 60.4636 119.127C60.4636 119.127 60.2511 120.403 60.4636 121.89C60.6761 123.166 61.1012 121.89 61.1012 121.89C61.1012 121.89 61.3137 119.34 61.3137 119.553C61.5262 119.553 61.3137 120.828 61.5262 122.315C61.5262 122.74 61.5262 122.953 61.7388 123.378C61.9513 124.228 62.3763 124.441 62.3763 123.591C62.3763 123.166 62.3763 122.74 62.3763 122.315C62.3763 121.89 62.3763 121.465 62.3763 121.04C62.3763 120.403 62.3763 119.765 62.3763 119.765C62.3763 119.765 62.5889 119.553 62.5889 119.978C62.5889 120.403 62.5889 121.465 62.8014 122.103C62.8014 122.528 63.0139 123.378 63.0139 123.378L63.439 124.653C63.864 124.653 63.864 123.591 63.6515 123.166C63.6515 122.74 63.439 121.89 63.439 121.89C63.439 121.89 63.439 119.978 63.6515 119.978C63.864 119.978 64.7142 124.228 65.1392 124.228C65.7768 124.441 65.5643 123.166 65.5643 123.166Z" fill="#F7A491"/>
    <path d="M70.8768 94.2617C70.8768 94.2617 68.539 93.8367 67.2638 93.4116C65.5636 92.774 64.501 92.1364 64.501 92.1364C64.501 92.1364 66.4137 84.0604 68.7515 79.3848C69.8142 77.472 70.6643 76.4094 71.9395 76.1968C71.9395 76.1968 74.7023 78.1096 74.7023 82.5727C74.7023 83.6353 70.8768 94.2617 70.8768 94.2617Z" fill="#B75742"/>
    <path d="M78.3164 121.04L81.5043 149.732C81.5043 149.732 80.0166 155.895 80.2292 157.595C80.4417 159.295 83.6296 181.823 83.6296 181.823L83.4171 183.098V186.924H95.3186C95.3186 186.924 92.7683 185.861 89.3679 183.523C89.1553 183.311 88.5177 182.886 88.3052 181.823C87.4551 174.81 89.1553 151.644 89.1553 151.644L90.643 121.253L78.3164 121.04Z" fill="#F7A491"/>
    <path d="M68.7523 127.204C68.1148 127.416 67.0521 152.069 66.4145 153.132C62.8016 160.145 61.9514 181.186 61.9514 181.186L60.8888 184.161L59.8262 187.774C59.8262 187.774 63.4391 188.837 65.1394 187.774L64.9268 184.161L64.7143 180.761L73.6405 154.62L78.7412 127.629L68.7523 127.204Z" fill="#F7A491"/>
    <path d="M86.3921 79.3848C84.9044 77.472 78.9537 71.5212 78.3161 71.5212C76.4033 71.5212 70.0275 71.5212 68.9648 72.1588V73.434C68.9648 79.5973 69.815 85.7606 71.3026 91.7114C72.3653 95.962 73.4279 100.213 73.2154 101.913C76.8284 105.526 82.5666 105.313 85.9671 101.275C85.9671 101.275 85.9671 96.8121 86.3921 92.774C87.4548 86.6107 90.0051 84.4854 86.3921 79.3848Z" fill="#A6DEF3"/>
    <path d="M76.6154 65.3579C76.6154 65.3579 76.828 69.396 76.4029 71.0962C75.9779 72.5839 75.5528 72.7964 78.7407 73.2215C80.0159 73.434 81.0785 73.6465 81.0785 73.6465C81.0785 73.6465 80.866 71.3087 80.6535 70.4586C80.6535 68.9709 81.0785 63.8702 81.0785 63.8702L76.6154 65.3579Z" fill="#F7A491"/>
    <path d="M78.953 67.2707C79.5906 67.6957 80.2282 67.9083 80.6533 67.9083C80.6533 65.9955 80.8658 63.6577 80.8658 63.6577L76.6152 65.1454C77.2528 65.9955 77.8904 66.8456 78.953 67.2707Z" fill="#F47458"/>
    <path d="M77.466 53.6689C77.466 53.6689 75.7657 54.3065 74.7031 56.2192C73.6405 58.132 73.4279 63.6577 77.2534 65.783C79.1662 66.8456 81.2915 67.0582 82.3541 66.208C83.4167 65.3579 83.2042 63.2327 83.2042 61.3199C82.9917 57.9194 82.1416 52.6062 77.466 53.6689Z" fill="#F7A491"/>
    <path d="M74.702 60.6823C74.9146 61.5324 74.702 62.3825 74.0645 62.5951C73.4269 62.8076 72.7893 62.17 72.5768 61.3199C72.3642 60.4698 72.5768 59.6197 73.2144 59.4071C73.8519 58.9821 74.4895 59.6197 74.702 60.6823Z" fill="#F7A491"/>
    <path d="M65.1387 183.949C63.4385 184.799 61.7383 184.161 61.1007 183.949L60.0381 187.561C60.0381 187.561 63.6511 188.624 65.3513 187.561L65.1387 183.949Z" fill="white"/>
    <path d="M83.2033 187.774H95.53C95.955 187.774 96.1675 187.349 95.955 187.136C95.53 186.711 94.2548 186.286 92.5546 185.436C89.7917 185.649 83.8409 183.736 83.2033 183.098C82.9908 184.374 82.9908 187.774 83.2033 187.774Z" fill="white"/>
    <path d="M108.07 88.736C108.283 88.3109 109.133 86.8232 109.133 86.8232C109.133 86.8232 109.983 84.0604 109.771 84.0604C109.771 84.0604 109.345 84.4854 108.92 85.3355C108.708 85.7606 108.495 86.8232 108.07 87.2483C107.645 88.0984 107.22 88.3109 107.22 88.0984C107.22 87.8859 107.645 87.6733 107.858 87.2483C108.495 86.1856 109.133 84.2729 108.92 84.2729C108.708 84.2729 108.07 85.5481 107.433 86.6107C107.22 87.0358 106.158 87.6733 105.732 87.8859C105.732 87.6733 105.732 87.4608 105.945 87.2483C105.945 87.0358 107.008 85.7606 106.583 85.5481C106.158 85.3355 103.82 88.0984 103.82 88.0984L102.757 89.7986C102.757 89.7986 91.0681 94.2617 90.643 94.2617C89.7929 94.0492 86.605 84.9105 86.605 84.9105L80.0166 86.1856C80.0166 86.1856 86.8175 99.7875 88.0927 100.425C89.1553 101.063 101.269 94.6868 103.607 93.4116C106.795 92.1364 108.07 90.8613 108.495 90.0112C108.708 89.5861 109.771 87.8859 109.771 87.8859C109.771 87.8859 109.983 85.5481 109.771 85.5481C109.133 85.5481 109.133 87.6733 109.133 87.6733C109.133 87.6733 108.283 88.736 108.283 88.9485C108.07 88.9485 108.07 88.736 108.07 88.736Z" fill="#F8A492"/>
    <path d="M75.7654 77.047C74.9153 80.8725 79.5909 89.161 79.5909 89.161C79.5909 89.161 86.3918 85.9731 87.4544 84.4854C87.4544 84.4854 82.7788 76.8344 82.5663 76.1968C81.9287 75.1342 79.8035 72.7964 78.3158 73.2215C77.4656 73.6465 75.7654 77.047 75.7654 77.047Z" fill="#42B2E1"/>
    <path d="M76.8283 67.6957C77.2533 64.2953 82.9916 57.2819 80.8663 54.3065C79.1661 51.9687 75.9782 52.6063 73.8529 53.2438C64.7142 56.4318 65.3518 67.6957 62.5889 69.396C57.4882 72.5839 54.3003 74.7092 53.8753 81.9351C53.4502 90.4362 60.6762 94.8993 69.6023 92.774C74.2779 91.7114 75.5531 90.0112 77.4659 85.5481C78.316 83.6353 80.0162 77.2595 79.5911 74.2841C79.1661 71.5212 76.4032 70.4586 76.8283 67.6957Z" fill="#184655"/>
    <path d="M79.5913 63.2327C80.0608 63.2327 80.4414 62.3763 80.4414 61.3199C80.4414 60.2635 80.0608 59.4072 79.5913 59.4072C79.1218 59.4072 78.7412 60.2635 78.7412 61.3199C78.7412 62.3763 79.1218 63.2327 79.5913 63.2327Z" fill="#F7A491"/>
    <path d="M91.7055 139.743L92.1306 122.74C92.1306 117.852 91.2805 113.177 89.3677 108.714L86.1798 101.275C84.9046 101.7 83.6295 102.125 82.3543 102.125C79.3789 102.55 76.4035 102.125 73.4281 101.7C73.4281 101.913 73.4281 101.913 73.4281 101.913C72.7905 104.463 69.8151 109.989 68.7525 117.64C67.2648 126.353 66.8398 139.318 67.0523 140.168C80.4415 141.23 83.6295 141.868 91.7055 139.743Z" fill="#42B2E1"/>
    <path d="M112.958 80.8725C113.171 81.5101 113.171 81.5101 113.383 81.9351C114.658 84.2729 117.421 87.6734 117.421 87.6734L119.546 82.3602C119.546 82.3602 119.121 80.66 118.484 78.3221C116.784 78.9597 114.658 79.3848 112.958 80.8725Z" fill="#F8A492"/>
    <path d="M125.709 76.1969C125.709 76.1969 113.382 81.9351 112.957 81.7226C112.745 81.7226 107.856 73.0089 107.856 64.9329C107.856 61.1074 111.469 56.6443 115.507 57.4944C117.633 57.9195 117.42 58.557 120.608 63.2327C123.583 68.1208 125.709 76.1969 125.709 76.1969Z" fill="#3C8F7C"/>
    <path d="M136.335 178.21L136.123 183.311C135.91 183.949 135.485 185.649 135.485 186.286C135.485 188.624 145.474 184.374 143.349 183.311C143.136 183.311 142.074 182.461 142.074 181.823C142.074 180.548 141.649 178.21 141.649 178.21H136.335Z" fill="#F7A491"/>
    <path d="M143.349 183.311C143.349 183.311 141.012 183.949 139.737 184.161C138.461 184.374 136.974 182.886 136.124 183.311C135.273 183.736 135.273 187.562 135.273 187.562C135.273 187.562 147.813 188.624 151.426 187.562C152.701 187.136 148.025 185.011 143.349 183.311Z" fill="#439C89"/>
    <path d="M115.933 178.21L115.721 183.311C115.508 183.949 115.083 185.649 115.083 186.286C115.083 188.624 125.072 184.374 122.947 183.311C122.734 183.311 121.459 182.036 121.246 181.186C121.246 179.91 121.246 178.21 121.246 178.21H115.933Z" fill="#F7A491"/>
    <path d="M122.734 183.311C122.734 183.311 120.396 183.949 119.121 184.161C117.846 184.374 116.358 182.886 115.508 183.311C114.658 183.736 114.445 187.562 114.445 187.562C114.445 187.562 127.197 188.837 130.597 187.562C132.298 187.136 127.622 185.011 122.734 183.311Z" fill="#439C89"/>
    <path d="M118.908 83.6353L127.834 70.4586C127.834 70.2461 128.047 70.0336 128.047 69.821C128.472 68.5459 129.322 65.783 130.172 63.0201C130.385 62.17 131.022 60.4698 131.447 58.7696C132.085 57.0694 132.723 54.7315 132.723 54.519C132.723 54.519 132.723 54.3065 132.51 54.094C132.297 53.2438 131.872 51.1186 131.872 50.2685C131.872 49.6309 131.66 48.1432 132.297 48.1432C133.36 48.1432 132.935 49.6309 133.36 50.481C133.573 49.8434 133.785 48.7808 133.998 47.5056L134.21 44.7427C134.21 44.5302 133.998 43.0425 134.848 43.0425C135.485 43.0425 135.485 44.7427 135.698 47.5056C135.698 47.0805 135.91 46.868 135.91 46.443C135.91 46.2304 136.123 45.3803 136.123 44.9553C135.91 44.1051 136.123 43.0425 136.761 43.0425C137.186 43.0425 137.186 44.7427 137.186 44.7427C137.186 44.9553 137.186 46.868 137.186 47.0805C137.186 46.443 137.611 43.8926 138.248 43.8926C138.673 43.8926 138.886 44.5302 138.886 45.1678C138.886 45.5928 138.461 48.3557 138.461 48.5682C138.673 48.1432 138.886 45.5928 139.311 45.5928C140.374 45.5928 139.948 48.9933 139.523 50.0559C139.523 50.0559 139.523 50.2685 139.311 50.481C139.098 51.1186 138.886 52.1812 138.461 53.0313C137.823 54.094 136.973 56.0067 136.761 56.2192C136.761 56.8568 136.336 58.7696 135.91 61.3199C135.698 62.3825 135.485 63.6577 135.485 64.7204C135.485 64.9329 135.273 65.783 134.635 68.9709C133.785 73.2215 133.573 73.434 133.573 73.6465C133.148 74.4966 123.584 88.311 123.159 88.736L122.946 89.3736L118.908 83.6353Z" fill="#F7A491"/>
    <path d="M135.273 53.0313C135.273 53.0313 134.636 51.1185 133.36 51.1185C133.36 51.1185 133.998 50.906 134.636 51.3311C135.273 51.7561 135.273 53.0313 135.273 53.0313Z" fill="#F47458"/>
    <path d="M116.783 49.2058L115.721 56.8568C115.721 56.8568 119.971 60.4698 122.522 59.8322C124.647 59.1946 123.159 56.2192 123.159 56.2192C123.159 56.2192 122.097 52.1812 122.309 50.0559C122.734 47.7181 116.783 49.2058 116.783 49.2058Z" fill="#F7A491"/>
    <path d="M117.634 51.5436C118.697 52.1812 120.822 52.8188 122.522 53.0313C122.31 51.9687 122.31 50.906 122.31 50.0559C122.522 48.9933 121.247 48.7808 119.972 48.7808C118.272 48.9933 116.784 49.2058 116.784 49.2058L116.571 50.6935C116.996 50.906 117.209 51.3311 117.634 51.5436Z" fill="#FE875E"/>
    <path d="M111.258 40.2797C111.046 40.2797 112.958 48.7808 115.934 50.2685C118.909 51.7562 123.16 50.9061 124.01 48.5682C124.86 46.0179 121.672 37.3043 117.422 36.2416C113.384 35.179 111.258 40.2797 111.258 40.2797Z" fill="#F7A491"/>
    <path d="M114.658 32.4161C112.32 33.9038 111.258 36.0291 110.833 36.8792C109.77 37.5168 108.495 38.5794 107.857 41.7673C107.007 45.8054 109.77 48.7808 112.745 49.6309C115.721 50.481 116.146 52.6063 116.146 52.6063L116.358 50.2685C116.358 50.2685 115.721 48.3557 114.658 47.2931C113.596 46.2304 115.083 44.9553 115.296 43.6801C115.296 42.83 114.871 41.1298 114.871 39.6421C114.871 39.6421 116.571 37.0917 118.059 36.2416C121.247 35.604 117.634 30.5034 114.658 32.4161Z" fill="#13375B"/>
    <path d="M115.562 47.8226C116.109 47.6109 116.244 46.6406 115.863 45.6554C115.482 44.6701 114.73 44.0429 114.183 44.2545C113.635 44.4662 113.5 45.4364 113.881 46.4217C114.262 47.407 115.015 48.0342 115.562 47.8226Z" fill="#F7A491"/>
    <path d="M126.772 83.8479L143.775 80.8725C143.775 80.8725 141.862 75.7718 141.224 75.7718C140.587 75.7718 128.26 81.5101 128.26 81.5101L127.198 83.6353L126.772 83.8479Z" fill="#F8A492"/>
    <path d="M118.058 96.387C118.058 96.387 116.358 105.101 116.995 111.689C117.633 118.277 117.845 141.868 117.845 141.868L115.295 179.698L121.458 179.91C121.458 179.91 128.897 142.081 128.684 143.143C128.472 144.206 131.235 116.577 131.235 116.577L122.308 95.5369L118.058 96.387Z" fill="#093A5B"/>
    <path d="M119.759 95.962C119.759 95.962 118.696 103.825 119.971 107.226C121.459 110.626 131.873 144.631 131.873 147.394C132.085 150.157 135.486 180.761 135.486 180.761L142.712 180.548L144.2 146.544L140.799 103.825L137.611 92.9866L119.759 95.962Z" fill="#355389"/>
    <path d="M115.721 56.8568C115.721 56.8568 117.421 58.132 119.121 57.9194C120.821 57.7069 123.159 56.2192 123.159 56.2192L122.734 54.9441C122.734 54.9441 118.484 54.3065 118.271 54.3065C118.271 54.519 115.721 56.8568 115.721 56.8568Z" fill="#F7A491"/>
    <path d="M134.848 75.5593C134.848 75.5593 141.224 82.1476 144.199 80.8725C147.174 79.8098 148.237 75.9843 141.224 70.4586C134.848 65.5705 134.848 75.5593 134.848 75.5593Z" fill="#F8A492"/>
    <path d="M139.099 83.4228C138.249 77.8971 131.235 60.6823 130.598 57.4944C130.385 56.0067 126.559 56.0067 122.947 56.2192C119.121 56.4318 115.508 56.8568 115.508 56.8568C115.508 56.8568 112.108 57.4944 110.62 58.9821C109.132 60.4698 108.707 64.5078 110.832 72.1588C112.533 78.3221 114.658 81.5101 115.508 85.9732C115.721 87.4608 115.933 88.9485 116.146 90.6488C116.571 97.2371 116.146 105.951 116.146 105.951C116.146 105.951 134.21 109.989 141.011 103.825C141.436 103.825 140.161 89.1611 139.099 83.4228Z" fill="#50BFA5"/>
    <path d="M143.775 71.5212C143.775 71.5212 136.761 77.6846 136.336 77.6846C136.124 77.6846 126.135 70.0336 124.009 63.6577C122.734 60.0447 125.497 56.2192 128.473 56.2192C130.598 56.2192 131.448 56.8568 135.699 60.4698C139.524 64.2953 143.775 71.5212 143.775 71.5212Z" fill="#3C8F7C"/>
    <path d="M103.819 31.7785H65.7765C61.951 31.7785 58.9756 28.8031 58.9756 24.9776V11.8009C58.9756 7.97539 61.951 5 65.7765 5H103.819C107.644 5 110.62 7.97539 110.62 11.8009V25.1902C110.62 28.8031 107.644 31.7785 103.819 31.7785Z" fill="#FFD173"/>
    <path d="M104.457 21.5772L117.209 27.3154L108.708 15.4138L104.457 21.5772Z" fill="#FFD173"/>
    <path d="M74.0647 19.4519C75.2385 19.4519 76.19 18.5955 76.19 17.5392C76.19 16.4828 75.2385 15.6264 74.0647 15.6264C72.891 15.6264 71.9395 16.4828 71.9395 17.5392C71.9395 18.5955 72.891 19.4519 74.0647 19.4519Z" fill="white"/>
    <path d="M84.2659 19.4519C85.4397 19.4519 86.3912 18.5955 86.3912 17.5392C86.3912 16.4828 85.4397 15.6264 84.2659 15.6264C83.0921 15.6264 82.1406 16.4828 82.1406 17.5392C82.1406 18.5955 83.0921 19.4519 84.2659 19.4519Z" fill="white"/>
    <path d="M94.6809 19.4519C95.8547 19.4519 96.8062 18.5955 96.8062 17.5392C96.8062 16.4828 95.8547 15.6264 94.6809 15.6264C93.5072 15.6264 92.5557 16.4828 92.5557 17.5392C92.5557 18.5955 93.5072 19.4519 94.6809 19.4519Z" fill="white"/>
</svg>
