<svg width="200" height="200" viewBox="0 0 200 200" fill="none" xmlns="http://www.w3.org/2000/svg">
    <path fill-rule="evenodd" clip-rule="evenodd" d="M155.519 147.72C161.219 148.92 165.219 154.2 165.939 160.58C168.905 158.687 172.493 158.027 175.939 158.74C179.079 159.401 181.886 161.146 183.868 163.669C185.85 166.192 186.88 169.333 186.779 172.54C187.82 172.26 188.913 172.231 189.967 172.455C191.022 172.68 192.008 173.151 192.845 173.83C193.683 174.509 194.347 175.377 194.784 176.363C195.221 177.348 195.418 178.423 195.359 179.5L107.719 161.08C108.252 158.562 109.762 156.358 111.918 154.952C114.074 153.546 116.699 153.053 119.219 153.58C120.502 153.864 121.717 154.394 122.799 155.14C123.738 153.318 125.089 151.74 126.746 150.532C128.402 149.324 130.318 148.521 132.34 148.185C134.363 147.848 136.435 147.989 138.394 148.596C140.352 149.203 142.141 150.259 143.619 151.68C145.112 150.076 146.984 148.873 149.063 148.181C151.142 147.489 153.362 147.33 155.519 147.72Z" fill="#FFD173"/>
    <path d="M197.26 181.86C197.26 194.94 2.67969 194.94 2.67969 181.86C2.67969 168.78 46.2197 158.16 99.9997 158.16C153.78 158.16 197.26 168.78 197.26 181.86Z" fill="#5AD199"/>
    <path fill-rule="evenodd" clip-rule="evenodd" d="M61.9993 148.7C68.1593 148.7 73.4193 153.56 75.5793 160.36C76.8729 159.008 78.4243 157.93 80.1419 157.188C81.8594 156.446 83.7083 156.055 85.5793 156.04C89.0549 156.111 92.3914 157.419 94.9901 159.728C97.5888 162.037 99.2797 165.197 99.7593 168.64C100.797 168.088 101.956 167.801 103.132 167.805C104.307 167.808 105.464 168.102 106.499 168.66C107.534 169.218 108.415 170.023 109.064 171.004C109.713 171.984 110.11 173.109 110.219 174.28H15.3393C15.2693 171.484 16.3093 168.774 18.232 166.742C20.1547 164.711 22.8035 163.524 25.5993 163.44C26.978 163.463 28.3381 163.762 29.5993 164.32C30.3131 161.278 32.024 158.563 34.4595 156.606C36.895 154.649 39.9151 153.562 43.0393 153.52C45.659 153.53 48.2181 154.309 50.3993 155.76C51.554 153.678 53.2307 151.932 55.2645 150.694C57.2984 149.456 59.6193 148.769 61.9993 148.7Z" fill="#449E8B"/>
    <path fill-rule="evenodd" clip-rule="evenodd" d="M110.819 162.82C113.306 162.963 115.685 163.886 117.617 165.459C119.548 167.032 120.935 169.174 121.579 171.58C123.71 169.479 126.586 168.306 129.579 168.32C132.271 168.321 134.876 169.269 136.939 170.999C139.001 172.729 140.389 175.129 140.859 177.78C141.663 177.375 142.552 177.167 143.453 177.17C144.353 177.174 145.24 177.39 146.041 177.802C146.842 178.213 147.535 178.808 148.063 179.537C148.591 180.267 148.939 181.11 149.079 182H73.8789C73.8763 180.931 74.0842 179.872 74.4909 178.883C74.8975 177.895 75.4949 176.996 76.2489 176.238C77.0029 175.481 77.8988 174.879 78.8854 174.467C79.872 174.056 80.93 173.843 81.9989 173.84C83.1049 173.849 84.1985 174.074 85.2189 174.5C85.667 172.835 86.4985 171.299 87.6471 170.013C88.7957 168.728 90.2293 167.729 91.8331 167.098C93.437 166.466 95.1665 166.218 96.8832 166.375C98.5999 166.532 100.256 167.088 101.719 168C102.683 166.446 104.021 165.158 105.61 164.253C107.2 163.348 108.99 162.856 110.819 162.82Z" fill="#FFD173"/>
    <path d="M138.739 106.6H166.499L159.099 177.82C158.976 179.019 158.413 180.13 157.519 180.938C156.626 181.747 155.464 182.196 154.259 182.2H124.779C123.584 182.182 122.438 181.726 121.557 180.918C120.676 180.111 120.121 179.009 119.999 177.82L112.539 106.6H138.739Z" fill="#DC4437"/>
    <path d="M111.639 110.7H166.939C168.187 110.7 169.199 109.688 169.199 108.44V106.8C169.199 105.552 168.187 104.54 166.939 104.54H111.639C110.391 104.54 109.379 105.552 109.379 106.8V108.44C109.379 109.688 110.391 110.7 111.639 110.7Z" fill="#C12925"/>
    <path opacity="0.2" d="M153.48 110.7L148.32 182.2H129.38L124.6 110.7H153.48Z" fill="white"/>
    <g opacity="0.6">
        <path opacity="0.6" d="M133.659 140.72L129.659 147.5C129.362 147.983 129.173 148.525 129.108 149.088C129.042 149.651 129.101 150.222 129.279 150.76L125.799 144.9C125.336 144.125 125.166 143.21 125.319 142.32C125.356 142.07 125.431 141.828 125.539 141.6C125.999 140.78 127.999 137.44 127.999 137.44L124.779 135.62L132.779 135.32L136.459 142.38L133.659 140.72Z" fill="white"/>
        <path opacity="0.6" d="M131.08 146.3H136.78V152.9H132.98C132.474 152.872 131.981 152.728 131.539 152.481C131.098 152.233 130.718 151.887 130.431 151.47C130.143 151.053 129.955 150.576 129.88 150.075C129.805 149.574 129.846 149.063 130 148.58L131.08 146.3Z" fill="white"/>
        <path opacity="0.6" d="M143.34 146L151.16 145.82C151.724 145.82 152.281 145.697 152.793 145.458C153.304 145.22 153.757 144.872 154.12 144.44L150.94 150.44C150.51 151.251 149.799 151.877 148.94 152.2C148.703 152.297 148.454 152.358 148.2 152.38C147.26 152.38 143.42 152.5 143.42 152.5L143.56 156.2L139.1 149.42L143.1 142.58L143.34 146Z" fill="white"/>
        <path opacity="0.6" d="M149.419 145.26L146.459 140.38L151.999 136.94L153.999 140.2C154.26 140.641 154.416 141.137 154.454 141.648C154.491 142.159 154.41 142.672 154.217 143.147C154.023 143.622 153.722 144.045 153.337 144.384C152.952 144.723 152.494 144.968 151.999 145.1L149.419 145.26Z" fill="white"/>
        <path opacity="0.6" d="M142.9 134.82L138.9 128.04C138.636 127.532 138.262 127.088 137.805 126.742C137.349 126.397 136.821 126.157 136.26 126.04L143.06 125.9C143.961 125.872 144.841 126.17 145.54 126.74C145.741 126.899 145.916 127.088 146.06 127.3C146.56 128.1 148.48 131.44 148.48 131.44L151.64 129.44L148 136.82L140 136.54L142.9 134.82Z" fill="white"/>
        <path opacity="0.6" d="M139.339 129.82L136.519 134.8L130.799 131.54L132.679 128.22C132.939 127.767 133.302 127.382 133.74 127.097C134.177 126.812 134.676 126.635 135.196 126.58C135.715 126.526 136.24 126.595 136.727 126.783C137.215 126.97 137.65 127.271 137.999 127.66L139.339 129.82Z" fill="white"/>
    </g>
    <path d="M79.8399 166.14C78.5999 171 77.4199 175.86 77.4199 175.86C83.2199 177.64 84.0199 173.86 83.6599 173.06C84.1872 171.291 84.9259 169.592 85.8599 168C79.5999 167.7 79.8399 166.14 79.8399 166.14Z" fill="#FFB27B"/>
    <path d="M46.2401 161.52L40.5801 164.64L42.8601 169.76L49.7201 167.52C49.2321 165.199 48.0123 163.096 46.2401 161.52Z" fill="#FFB27B"/>
    <path d="M77.7598 174.34C77.1285 175.357 76.7448 176.508 76.6398 177.7C76.528 179.044 76.6498 180.397 76.9998 181.7C81.7436 182.011 86.5043 181.958 91.2398 181.54C95.2398 180.8 95.5998 180.1 95.4999 178.96C95.3999 177.82 89.9598 178.16 88.3398 176.8C86.7198 175.44 84.4398 172.52 83.4798 172.98C82.5198 173.44 82.6998 175.28 81.4798 175.4C80.2598 175.52 78.3398 173.64 77.7598 174.34Z" fill="#093A5B"/>
    <path d="M42.859 163.16C41.7126 162.81 40.4999 162.735 39.319 162.94C37.9597 163.175 36.6529 163.649 35.459 164.34C36.3886 168.985 37.6723 173.551 39.299 178C41.059 181.68 41.819 181.84 42.899 181.44C43.979 181.04 42.239 176 43.139 174C44.039 172 46.279 169.12 45.559 168.32C44.839 167.52 43.139 168.16 42.699 166.94C42.259 165.72 43.679 163.54 42.859 163.16Z" fill="#093A5B"/>
    <path d="M62.2989 108C62.2989 108 66.8389 138.96 66.8389 142.8C66.8389 146.64 44.3789 160.2 44.3789 160.2C44.3789 160.2 46.3789 168.2 49.7189 169.68C50.8989 170.2 76.5789 153.16 77.9789 149.92C79.5789 146.22 83.9789 119.92 83.9789 119.92C83.9789 119.92 93.7989 134.68 93.3589 137.72C92.6589 142.62 77.9989 168.24 77.9989 168.24C77.9989 168.24 79.9989 172.68 87.1189 169.62C87.1189 169.62 107.119 144.98 109.639 141.62C115.639 133.92 88.5589 99.36 88.5589 99.36L62.2989 108Z" fill="#093A5B"/>
    <path opacity="0.32" d="M98 137.06C98 132 84.9 114 84.9 114L84 120C84 120 93.82 134.76 93.38 137.8C92.66 142.62 78 168.24 78 168.24C78.3874 168.972 78.9777 169.576 79.7 169.98C86.86 162.7 98 141.72 98 137.06Z" fill="#0D5965"/>
    <g opacity="0.5">
        <path opacity="0.5" d="M74.8588 109.7C74.69 107.863 74.4027 106.04 73.9988 104.24L62.2988 108C62.2988 108 62.8988 112.14 63.6788 117.56C65.465 118.728 67.5452 119.365 69.6788 119.4C71.9388 118.96 74.9188 115.52 74.9188 109.62L74.8588 109.7Z" fill="#0D5965"/>
    </g>
    <path d="M73.6798 105.4C72.1798 90.52 55.9998 60.54 50.5198 50.5C49.2981 50.4785 48.0896 50.7551 46.9989 51.3057C45.9081 51.8563 44.968 52.6644 44.2597 53.66C39.7797 60.86 45.2197 91.42 50.2597 100.38C51.8758 103.351 53.9476 106.051 56.3998 108.38C59.3198 111.12 66.1198 115.04 68.7397 114.54C70.9198 114.12 73.7798 110.94 73.7798 105.48L73.6798 105.4Z" fill="#42B2E1"/>
    <path d="M92.5795 102C92.5795 101.9 69.9595 55.78 65.0595 53.68L64.5595 53.46C60.8608 51.9079 56.951 50.917 52.9595 50.52C52.1472 50.4624 51.3318 50.4624 50.5195 50.52C56.0995 60.52 72.1795 90.52 73.6795 105.42C79.3995 102.6 86.3595 100.32 92.5795 102Z" fill="#D4DEF3"/>
    <g opacity="0.5">
        <path opacity="0.5" d="M64 77.14C67.4058 84.2918 70.2219 91.7098 72.42 99.32C83.42 101.08 86.26 100.06 90.96 98.92C88.68 94.32 86.96 91.12 86.4 89.88L64 77.14Z" fill="#531C2E"/>
    </g>
    <path d="M64.7796 98.64C67.3327 99.1078 69.924 99.3354 72.5196 99.32C70.2891 91.7067 67.4396 84.2887 63.9996 77.14L42.5996 64.94V65.1C43.181 74.3459 47.0633 83.0757 53.5396 89.7C57.9996 94.2 62.2596 98 64.7796 98.64Z" fill="#3290E1"/>
    <path d="M117.58 72C116.796 67.3282 115.508 62.7549 113.74 58.36C112.74 56.2 116.34 44.36 116.34 44.36L70.8605 47.66C70.8605 47.66 72.6205 54.66 70.8605 56.24C64.9805 61.52 69.3405 60.24 68.6205 64.06C68.2405 66.06 65.1405 68.6 64.9805 70.56C64.9805 71.32 66.7805 72.56 66.7805 73.16C67.0874 75.7539 67.9029 78.2617 69.1805 80.54H117.18C117.478 77.7034 117.611 74.852 117.58 72Z" fill="#3F19FF"/>
    <path d="M115.4 45.82C115.4 45.82 88.4405 56.2 78.1605 53.46C67.8805 50.72 68.7005 42.28 79.2605 36.68C89.8205 31.08 122.3 38.96 115.4 45.82Z" fill="#DB8A00"/>
    <path d="M101.16 38.8V30.2H103.9V38.8C103.914 39.3044 104.048 39.7982 104.291 40.2401C104.535 40.682 104.881 41.0591 105.3 41.34C105.81 41.6869 106.229 42.1515 106.521 42.6946C106.814 43.2377 106.971 43.8432 106.98 44.46V61.2H98V44.46C98.0089 43.8432 98.1662 43.2377 98.4586 42.6946C98.751 42.1515 99.17 41.6869 99.68 41.34C100.114 41.0682 100.476 40.695 100.733 40.2526C100.991 39.8101 101.138 39.3116 101.16 38.8Z" fill="#006837"/>
    <path opacity="0.57" d="M86.4197 37.34C86.3011 37.3247 86.1905 37.2717 86.1041 37.1889C86.0177 37.1062 85.9601 36.9979 85.9397 36.88L85.7597 35.86L82.4397 36.44L82.6197 37.44C82.6412 37.559 82.6236 37.6817 82.5695 37.7899C82.5154 37.898 82.4278 37.9858 82.3197 38.04C81.618 38.3911 81.0461 38.9562 80.6866 39.6536C80.3271 40.3511 80.1986 41.1448 80.3197 41.92L84.1797 64.72C84.346 65.6844 84.8877 66.5437 85.6861 67.1097C86.4845 67.6757 87.4746 67.9024 88.4397 67.74L90.2597 67.44C91.2242 67.2737 92.0835 66.7321 92.6495 65.9337C93.2155 65.1352 93.4421 64.1451 93.2797 63.18L89.4197 40.38C89.2952 39.6254 88.9399 38.9278 88.4027 38.3834C87.8654 37.839 87.1727 37.4745 86.4197 37.34Z" fill="#97F0FF"/>
    <path opacity="0.57" d="M84.9797 37.82C84.8611 37.8047 84.7505 37.7517 84.6641 37.6689C84.5777 37.5862 84.5201 37.4779 84.4997 37.36L84.2797 36.12L82.4397 36.44L82.6197 37.44C82.6412 37.559 82.6236 37.6817 82.5695 37.7899C82.5154 37.898 82.4278 37.9858 82.3197 38.04C81.618 38.3911 81.0461 38.9562 80.6866 39.6536C80.3271 40.3511 80.1986 41.1448 80.3197 41.92L84.1797 64.72C84.346 65.6844 84.8877 66.5437 85.6861 67.1097C86.4845 67.6757 87.4746 67.9024 88.4397 67.74L90.0597 67.46C90.7063 67.0813 91.2227 66.5153 91.5405 65.8367C91.8584 65.1582 91.9627 64.3991 91.8397 63.66L87.9997 40.86C87.874 40.1026 87.5157 39.403 86.9746 38.8583C86.4335 38.3136 85.7363 37.9507 84.9797 37.82Z" fill="white"/>
    <path d="M82.8792 47.16L78.4592 58.52L72.6992 57.16L72.7792 56.3L73.9592 44.9L78.1592 45.98L82.8792 47.16Z" fill="#9B0A3A"/>
    <path d="M82.7597 47.12L78.4197 58.48L72.6797 57.18L78.4597 58.58L82.9797 47.22L82.7597 47.12Z" fill="#44051D"/>
    <path d="M72.7793 56.3L73.9593 44.9L78.1593 45.96C77.6593 49.86 76.2793 56.44 72.7793 56.3Z" fill="#BF1657"/>
    <path d="M82.9401 45.44L82.8001 46.04L74.5801 44.04L74.7201 43.44C74.7437 43.3513 74.8004 43.2749 74.8784 43.2266C74.9565 43.1783 75.0501 43.1616 75.1401 43.18L82.6801 44.96C82.7326 44.9675 82.7826 44.9872 82.8261 45.0176C82.8697 45.0479 82.9055 45.088 82.9308 45.1346C82.956 45.1813 82.97 45.2332 82.9716 45.2862C82.9733 45.3392 82.9624 45.3919 82.9401 45.44Z" fill="#F4E4A2"/>
    <path d="M82.9397 45.44L82.7997 46.04L78.6797 45.08C78.698 44.9473 78.698 44.8127 78.6797 44.68C78.6797 44.5 78.1997 44.16 77.6797 43.86L82.6397 45.02C82.6885 45.0243 82.7358 45.0392 82.7784 45.0635C82.821 45.0879 82.8577 45.1211 82.8862 45.161C82.9147 45.2009 82.9343 45.2465 82.9435 45.2947C82.9527 45.3428 82.9514 45.3924 82.9397 45.44Z" fill="#EFBA50"/>
    <path d="M83.2593 47.4L73.2793 45.06L74.1593 44.28L74.2393 44.22L82.9393 46.26L83.2593 47.4Z" fill="#F4E4A2"/>
    <path d="M83.2601 47.4L80.5601 46.76C80.4201 45.98 75.1802 44.56 74.1602 44.28L82.8801 46.28L83.2601 47.4Z" fill="#EFBA50"/>
    <path d="M83.2429 47.3896L73.2734 45.0513L73.2049 45.3433L83.1744 47.6816L83.2429 47.3896Z" fill="#F4C87A"/>
    <path d="M74.3194 43.78L83.0795 45.78C83.1346 45.7942 83.1821 45.8292 83.2119 45.8777C83.2417 45.9262 83.2516 45.9844 83.2394 46.04C83.2252 46.0951 83.1902 46.1426 83.1417 46.1724C83.0932 46.2023 83.0351 46.2122 82.9795 46.2L74.2194 44.2C74.1644 44.2002 74.1113 44.1798 74.0705 44.1428C74.0298 44.1058 74.0044 44.0548 73.9994 44C73.995 43.9604 74.0013 43.9202 74.0179 43.884C74.0344 43.8477 74.0605 43.8165 74.0934 43.7939C74.1263 43.7713 74.1647 43.7581 74.2045 43.7557C74.2443 43.7532 74.284 43.7616 74.3194 43.78Z" fill="#F4E4A2"/>
    <path d="M82.8792 47.16L78.4592 58.52L72.6992 57.16L72.7792 56.3L73.9592 44.9L78.1592 45.98L82.8792 47.16Z" fill="#FC7A22"/>
    <path d="M82.7597 47.12L78.4197 58.48L72.6797 57.18L78.4597 58.58L82.9797 47.22L82.7597 47.12Z" fill="#44051D"/>
    <path d="M74.8398 55.04L75.9998 43.66L80.1998 44.72C79.7198 48.62 78.3398 55.18 74.8398 55.04Z" fill="#FC8A3D"/>
    <path d="M82.9401 45.44L82.8001 46.04L74.5801 44.04L74.7201 43.44C74.7437 43.3513 74.8004 43.2749 74.8784 43.2266C74.9565 43.1783 75.0501 43.1616 75.1401 43.18L82.6801 44.96C82.7326 44.9675 82.7826 44.9872 82.8261 45.0176C82.8697 45.0479 82.9055 45.088 82.9308 45.1346C82.956 45.1813 82.97 45.2332 82.9716 45.2862C82.9733 45.3392 82.9624 45.3919 82.9401 45.44Z" fill="#F4E4A2"/>
    <path d="M83.2593 47.4L73.2793 45.06L74.1593 44.28L74.2393 44.22L82.9393 46.26L83.2593 47.4Z" fill="#F4E4A2"/>
    <path d="M83.2429 47.3896L73.2734 45.0513L73.2049 45.3433L83.1744 47.6816L83.2429 47.3896Z" fill="#F4C87A"/>
    <path d="M74.3194 43.78L83.0795 45.78C83.1346 45.7942 83.1821 45.8292 83.2119 45.8777C83.2417 45.9262 83.2516 45.9844 83.2394 46.04C83.2252 46.0951 83.1902 46.1426 83.1417 46.1724C83.0932 46.2023 83.0351 46.2122 82.9795 46.2L74.2194 44.2C74.1644 44.2002 74.1113 44.1798 74.0705 44.1428C74.0298 44.1058 74.0044 44.0548 73.9994 44C73.995 43.9604 74.0013 43.9202 74.0179 43.884C74.0344 43.8477 74.0605 43.8165 74.0934 43.7939C74.1263 43.7713 74.1647 43.7581 74.2045 43.7557C74.2443 43.7532 74.284 43.7616 74.3194 43.78Z" fill="#F4E4A2"/>
    <path d="M95.8797 48.68C96.0197 48.3784 96.2414 48.122 96.5197 47.94C96.7689 47.8637 97.01 47.7632 97.2397 47.64C97.9363 47.2248 98.5364 46.6656 98.9997 46C99.2797 45.5702 99.4624 45.0843 99.5349 44.5765C99.6075 44.0686 99.5681 43.551 99.4197 43.06C99.328 42.7503 99.302 42.4249 99.3434 42.1047C99.3847 41.7844 99.4924 41.4762 99.6597 41.2L101.04 38.98L98.6597 37.12L96.8197 38.98C96.4201 39.2926 95.927 39.4617 95.4197 39.46C94.6192 39.5056 93.8429 39.7509 93.1617 40.1736C92.4804 40.5964 91.9159 41.183 91.5197 41.88C91.3498 42.2 91.2092 42.5347 91.0997 42.88C91.0341 43.1354 90.9939 43.3967 90.9797 43.66C90.8712 43.9737 90.6773 44.2507 90.4197 44.46C90.287 44.5884 90.1231 44.6799 89.9442 44.7256C89.7653 44.7712 89.5776 44.7692 89.3997 44.72C89.1412 44.6428 88.8655 44.6455 88.6086 44.7275C88.3517 44.8096 88.1255 44.9673 87.9597 45.18L79.9597 55.4C79.74 55.6786 79.6397 56.033 79.681 56.3855C79.7222 56.7379 79.9016 57.0596 80.1797 57.28L85.8797 61.74C86.1583 61.9597 86.5127 62.06 86.8652 62.0187C87.2176 61.9775 87.5393 61.7981 87.7597 61.52L95.7597 51.3C95.9287 51.0868 96.0288 50.8271 96.0467 50.5556C96.0645 50.2841 95.9993 50.0135 95.8597 49.78C95.762 49.6124 95.7123 49.4212 95.7158 49.2272C95.7193 49.0332 95.776 48.844 95.8797 48.68Z" fill="#97F0FF"/>
    <path d="M95.8797 48.68C96.0197 48.3784 96.2414 48.122 96.5197 47.94C96.7689 47.8637 97.01 47.7632 97.2397 47.64C97.9363 47.2248 98.5364 46.6656 98.9997 46C99.2797 45.5702 99.4624 45.0843 99.5349 44.5765C99.6075 44.0686 99.5681 43.551 99.4197 43.06C99.328 42.7503 99.302 42.4249 99.3434 42.1047C99.3847 41.7844 99.4924 41.4762 99.6597 41.2L101.04 38.98L98.6597 37.12L96.8197 38.98C96.4201 39.2926 95.927 39.4617 95.4197 39.46C94.6192 39.5056 93.8429 39.7509 93.1617 40.1736C92.4804 40.5964 91.9159 41.183 91.5197 41.88C91.3498 42.2 91.2092 42.5347 91.0997 42.88C91.0341 43.1354 90.9939 43.3967 90.9797 43.66C90.8712 43.9737 90.6773 44.2507 90.4197 44.46C90.287 44.5884 90.1231 44.6799 89.9442 44.7256C89.7653 44.7712 89.5776 44.7692 89.3997 44.72C89.1412 44.6428 88.8655 44.6455 88.6086 44.7275C88.3517 44.8096 88.1255 44.9673 87.9597 45.18L79.9597 55.4C79.74 55.6786 79.6397 56.033 79.681 56.3855C79.7222 56.7379 79.9016 57.0596 80.1797 57.28L85.8797 61.74C86.1583 61.9597 86.5127 62.06 86.8652 62.0187C87.2176 61.9775 87.5393 61.7981 87.7597 61.52L95.7597 51.3C95.9287 51.0868 96.0288 50.8271 96.0467 50.5556C96.0645 50.2841 95.9993 50.0135 95.8597 49.78C95.762 49.6124 95.7123 49.4212 95.7158 49.2272C95.7193 49.0332 95.776 48.844 95.8797 48.68Z" fill="#97F0FF"/>
    <g style="mix-blend-mode:multiply" opacity="0.49">
        <path d="M95.8591 49.72C95.7661 49.5588 95.7171 49.3761 95.7171 49.19C95.7171 49.0039 95.7661 48.8211 95.8591 48.66C95.9992 48.3584 96.2209 48.102 96.4991 47.92C96.7483 47.8437 96.9895 47.7432 97.2191 47.62C97.921 47.2128 98.5279 46.6605 98.9991 46C99.2791 45.5701 99.4618 45.0843 99.5344 44.5764C99.6069 44.0686 99.5676 43.551 99.4191 43.06C99.3275 42.7503 99.3015 42.4249 99.3428 42.1047C99.3841 41.7844 99.4919 41.4762 99.6591 41.2L101.039 38.98L99.7591 37.98L98.3791 40.2C98.2119 40.4762 98.1041 40.7844 98.0628 41.1046C98.0215 41.4249 98.0475 41.7503 98.1391 42.06C98.2876 42.551 98.3269 43.0686 98.2544 43.5764C98.1818 44.0843 97.9991 44.5701 97.7191 45C97.2602 45.6801 96.6599 46.2532 95.9591 46.68C95.7295 46.8032 95.4883 46.9037 95.2391 46.98C94.9609 47.162 94.7392 47.4184 94.5991 47.72C94.5061 47.8811 94.4571 48.0639 94.4571 48.25C94.4571 48.4361 94.5061 48.6188 94.5991 48.78C94.7388 49.0135 94.804 49.2841 94.7861 49.5556C94.7683 49.8271 94.6682 50.0867 94.4991 50.3L86.4991 60.52C86.2788 60.7981 85.9571 60.9775 85.6046 61.0187C85.2522 61.06 84.8978 60.9597 84.6191 60.74L85.8991 61.74C86.1778 61.9597 86.5322 62.06 86.8846 62.0187C87.2371 61.9775 87.5588 61.7981 87.7791 61.52L95.7791 51.3C95.9584 51.0792 96.0628 50.8071 96.0772 50.5231C96.0916 50.239 96.0152 49.9578 95.8591 49.72Z" fill="#4B6568"/>
    </g>
    <path d="M102.479 37.82L101.399 39.2L98.1992 36.7L99.2792 35.32C99.3166 35.2833 99.3669 35.2628 99.4192 35.2628C99.4716 35.2628 99.5218 35.2833 99.5592 35.32L102.439 37.58C102.471 37.61 102.493 37.6498 102.5 37.6932C102.507 37.7366 102.5 37.7812 102.479 37.82Z" fill="#97F0FF"/>
    <g style="mix-blend-mode:multiply" opacity="0.49">
        <path d="M101.4 39.22L99.7598 38L100.96 36.46L102.44 37.62C102.476 37.6574 102.497 37.7076 102.497 37.76C102.497 37.8123 102.476 37.8626 102.44 37.9L101.4 39.22Z" fill="#4B6568"/>
    </g>
    <path d="M101.406 39.2152L98.2109 36.7106L97.9025 37.1041L101.098 39.6087L101.406 39.2152Z" fill="#57D0DD"/>
    <path d="M102.499 37.968L99.1309 35.3277L98.9705 35.5323L102.339 38.1727L102.499 37.968Z" fill="#57D0DD"/>
    <path d="M102.197 38.3778L98.8281 35.7374L98.6677 35.9421L102.036 38.5824L102.197 38.3778Z" fill="#57D0DD"/>
    <path d="M101.878 38.7752L98.5098 36.1349L98.3494 36.3395L101.718 38.9798L101.878 38.7752Z" fill="#57D0DD"/>
    <path opacity="0.85" d="M91.7402 50.8L87.0002 46.56C86.6287 46.2293 86.3265 45.8282 86.1111 45.3799C85.8957 44.9316 85.7714 44.4451 85.7454 43.9484C85.7194 43.4518 85.7921 42.9549 85.9594 42.4866C86.1267 42.0182 86.3853 41.5877 86.7202 41.22L87.7602 40.06C88.4345 39.3132 89.3775 38.8643 90.3823 38.8119C91.3871 38.7594 92.3717 39.1075 93.1202 39.78L97.8402 44C97.8891 44.0484 97.928 44.106 97.9546 44.1695C97.9811 44.233 97.9948 44.3011 97.9948 44.37C97.9948 44.4388 97.9811 44.507 97.9546 44.5705C97.928 44.634 97.8891 44.6916 97.8402 44.74C97.7912 44.7884 97.7523 44.846 97.7258 44.9095C97.6992 44.973 97.6855 45.0412 97.6855 45.11C97.6855 45.1788 97.6992 45.247 97.7258 45.3105C97.7523 45.374 97.7912 45.4316 97.8402 45.48L99.8402 47.28C99.8885 47.329 99.9461 47.3679 100.01 47.3944C100.073 47.4209 100.141 47.4346 100.21 47.4346C100.279 47.4346 100.347 47.4209 100.411 47.3944C100.474 47.3679 100.532 47.329 100.58 47.28C100.629 47.231 100.686 47.1921 100.75 47.1656C100.813 47.139 100.881 47.1254 100.95 47.1254C101.019 47.1254 101.087 47.139 101.151 47.1656C101.214 47.1921 101.272 47.231 101.32 47.28L108.5 53.68C108.549 53.7284 108.588 53.786 108.615 53.8495C108.641 53.913 108.655 53.9812 108.655 54.05C108.655 54.1188 108.641 54.187 108.615 54.2505C108.588 54.314 108.549 54.3716 108.5 54.42L103.1 60.42C103.052 60.469 102.994 60.5079 102.931 60.5344C102.867 60.5609 102.799 60.5746 102.73 60.5746C102.661 60.5746 102.593 60.5609 102.53 60.5344C102.466 60.5079 102.409 60.469 102.36 60.42L95.3002 54C95.2512 53.9516 95.2123 53.894 95.1858 53.8305C95.1592 53.767 95.1455 53.6988 95.1455 53.63C95.1455 53.5612 95.1592 53.493 95.1858 53.4295C95.2123 53.366 95.2512 53.3084 95.3002 53.26C95.3491 53.2116 95.388 53.154 95.4146 53.0905C95.4411 53.027 95.4548 52.9588 95.4548 52.89C95.4548 52.8212 95.4411 52.753 95.4146 52.6895C95.388 52.626 95.3491 52.5684 95.3002 52.52L93.3002 50.72C93.2518 50.671 93.1942 50.6321 93.1307 50.6056C93.0672 50.579 92.999 50.5654 92.9302 50.5654C92.8613 50.5654 92.7932 50.579 92.7297 50.6056C92.6661 50.6321 92.6085 50.671 92.5602 50.72C92.5179 50.7875 92.4608 50.8443 92.3931 50.8863C92.3255 50.9282 92.2491 50.954 92.1698 50.9617C92.0906 50.9694 92.0107 50.9589 91.9362 50.9308C91.8617 50.9028 91.7946 50.858 91.7402 50.8Z" fill="#427C86"/>
    <path d="M108.58 53.62L101.4 47.22C101.352 47.171 101.294 47.1321 101.231 47.1056C101.167 47.079 101.099 47.0654 101.03 47.0654C100.962 47.0654 100.893 47.079 100.83 47.1056C100.766 47.1321 100.709 47.171 100.66 47.22C100.612 47.269 100.554 47.3079 100.491 47.3344C100.427 47.361 100.359 47.3746 100.29 47.3746C100.222 47.3746 100.153 47.361 100.09 47.3344C100.026 47.3079 99.9688 47.269 99.9204 47.22L97.9204 45.42C97.8714 45.3716 97.8325 45.314 97.806 45.2505C97.7794 45.187 97.7658 45.1188 97.7658 45.05C97.7658 44.9812 97.7794 44.913 97.806 44.8495C97.8325 44.786 97.8714 44.7284 97.9204 44.68C97.9694 44.6316 98.0083 44.574 98.0348 44.5105C98.0613 44.447 98.075 44.3788 98.075 44.31C98.075 44.2412 98.0613 44.173 98.0348 44.1095C98.0083 44.046 97.9694 43.9884 97.9204 43.94L93.1004 39.8C92.4908 39.2495 91.7185 38.9125 90.9004 38.84C92.6404 41 97.8804 47.78 97.8804 51.26C97.8477 52.6583 97.4845 54.029 96.8204 55.26L102.5 60.32C102.549 60.369 102.606 60.4079 102.67 60.4344C102.733 60.461 102.802 60.4746 102.87 60.4746C102.939 60.4746 103.007 60.461 103.071 60.4344C103.134 60.4079 103.192 60.369 103.24 60.32L108.64 54.32C108.72 54.217 108.758 54.0879 108.746 53.9583C108.735 53.8288 108.676 53.708 108.58 53.62Z" fill="#427C86"/>
    <path d="M120.24 73.16C119.9 69.64 114.76 60.56 113.76 58.4C112.76 56.24 116.36 44.4 116.36 44.4C116.205 44.9621 115.893 45.4684 115.46 45.86C115.46 45.86 88.4405 56.1 78.1605 53.4C73.8605 52.26 71.5205 50.14 70.9805 47.66H70.8605C70.8605 47.66 72.6205 54.66 70.8605 56.24C64.9805 61.52 69.3405 60.24 68.6205 64.06C68.2405 66.06 65.1405 68.6 64.9805 70.56C64.9805 71.32 66.7805 72.56 66.7805 73.16C67.0874 75.7539 67.9029 78.2618 69.1805 80.54C68.6053 82.7104 68.2106 84.9246 68.0005 87.16C67.4805 91.42 68.8605 99.16 81.6205 101.76C94.3805 104.36 98.8405 98.92 113.62 97.64C120.64 95.76 117.4 86.42 117.22 80.52C117.12 80.54 120.44 75.28 120.24 73.16Z" fill="#FCBF00"/>
    <path d="M116.28 44.38C116.286 44.4733 116.286 44.5668 116.28 44.66C116.149 44.9829 115.951 45.2744 115.7 45.5156C115.448 45.7568 115.149 45.9423 114.82 46.06C110.6 47.62 87.5604 55.84 78.2404 53.4C73.9404 52.26 71.6004 50.14 71.0604 47.66H70.9404C70.9144 49.5241 71.41 51.3584 72.3712 52.9558C73.3325 54.5532 74.7211 55.8501 76.3804 56.7C77.6604 57.4 76.8204 56.9 77.6404 57.24C85.2404 60.28 103.26 53.58 114.04 47.38C115.18 46.7169 116.024 45.644 116.4 44.38H116.28Z" fill="#E09D00"/>
    <path d="M78.6595 60.4C75.2017 60.3993 71.7866 61.1643 68.6595 62.64C68.7522 63.1088 68.7522 63.5912 68.6595 64.06C68.2795 66.06 65.1795 68.6 65.0195 70.56C65.0195 71.32 66.8195 72.56 66.8195 73.16C67.1264 75.7539 67.942 78.2618 69.2195 80.54C68.6309 82.7092 68.2228 84.9234 67.9995 87.16C67.4795 91.42 68.8595 99.16 81.6195 101.76C90.7995 103.64 95.6195 101.36 103.16 99.44C106 72 89.6795 60.4 78.6595 60.4Z" fill="#FCC721"/>
    <path d="M114.8 46C106.1 52 86.6602 58.54 77.5603 55.32C76.7403 55.02 77.5603 55.32 76.3003 54.84C69.6603 51.98 68.5003 44.84 74.1603 40.2C73.6403 42.2 71.3003 47.2 72.7003 48.76C74.5992 50.3777 76.9551 51.3634 79.4403 51.58H80.3203C88.4203 52 104.56 47.22 114.8 46Z" fill="#FCB500"/>
    <path d="M94.8997 89.02C95.2397 89.02 101.12 91.3 105.7 89.8C107.88 89.08 109.88 88.66 109 90.66C108.12 92.66 104.1 91.82 103.54 92.38C102.98 92.94 110.48 97.04 112.54 97.4C114.6 97.76 111.22 99.5 110.42 99.5C109.62 99.5 110.26 99.82 109.46 100.62C108.66 101.42 106.72 101.24 105.78 101.42C102.7 102.04 94.5397 96.38 93.2997 95.16C92.0597 93.94 94.8997 89.02 94.8997 89.02Z" fill="#FFB27B"/>
    <path d="M50.8196 50.48C52.8374 52.7731 54.5762 55.2974 55.9996 58C57.8796 61.88 68.2996 80.94 69.4596 80.94C70.6196 80.94 96.3596 89.32 96.3596 89.32C95.24 91.8003 94.628 94.4796 94.5596 97.2C94.5596 97.2 66.8796 92.72 64.7996 92.72C62.7196 92.72 60.3196 89.04 58.2396 86.96C56.1596 84.88 45.8196 75.46 42.8396 68.1C39.8596 60.74 41.3796 48.88 50.8196 50.48Z" fill="#42B2E1"/>
    <path d="M60.5203 40.34L63.8603 55.12L50.8203 50.48L53.3603 40.4L60.5203 40.34Z" fill="#FFB27B"/>
    <g style="mix-blend-mode:multiply" opacity="0.68">
        <path d="M60.5198 40.34H53.3598L52.7598 42.68C54.5272 44.6226 56.7661 46.0761 59.2598 46.9C60.1665 47.0548 61.093 47.0548 61.9998 46.9L60.5198 40.34Z" fill="#FF985B"/>
    </g>
    <path d="M55.2001 26.14C56.9833 26.2918 58.6945 26.9128 60.1601 27.94C62.3382 29.8182 64.1138 32.1176 65.3801 34.7C66.0243 36.3186 66.4936 38.0015 66.7801 39.72C66.9401 41.58 60.3801 44.58 57.1201 44.16C55.2003 43.6817 53.4208 42.7567 51.9263 41.4603C50.4318 40.164 49.2647 38.5329 48.5201 36.7C47.4201 33.32 53.7601 26 55.2001 26.14Z" fill="#FFB27B"/>
    <g style="mix-blend-mode:multiply" opacity="0.68">
        <path d="M61.1192 28.7C60.8205 28.4209 60.4994 28.1667 60.1592 27.94C58.6937 26.9128 56.9824 26.2918 55.1992 26.14C54.5192 26.14 52.7392 27.66 51.1992 29.74H52.3192C54.7877 30.324 57.3698 30.2132 59.7792 29.42C60.2463 29.22 60.6947 28.9791 61.1192 28.7Z" fill="#FF985B"/>
    </g>
    <path d="M52.2791 29.66C53.159 31.7897 53.8288 34.0001 54.2791 36.26C54.7737 38.8019 54.9083 41.4006 54.6791 43.98C51.9591 45.38 47.5791 45.24 43.8391 40.4C43.2802 39.6896 42.8727 38.8722 42.6417 37.9983C42.4107 37.1244 42.3611 36.2124 42.496 35.3186C42.6309 34.4248 42.9475 33.5681 43.4261 32.8013C43.9048 32.0344 44.5354 31.3738 45.2791 30.86C46.2191 30.14 44.7591 29.86 45.4191 27.94C46.0791 26.02 47.2591 27.24 48.5191 25.94C49.7791 24.64 46.5191 21.82 48.8191 19.66C51.1191 17.5 54.2591 21.66 54.2591 21.66C54.2591 21.66 55.5591 17.5 57.9391 19.86C60.3191 22.22 60.4191 23.86 58.4791 26.48C56.8205 28.1959 54.6403 29.3141 52.2791 29.66Z" fill="#233862"/>
</svg>
