<svg width="15" height="20" viewBox="0 0 15 20" fill="none" xmlns="http://www.w3.org/2000/svg">
    <path d="M14.3064 1.09131L14.2413 0.635761C14.2263 0.530635 14.1562 0.455545 14.0761 0.455545H12.8046L12.7746 0.245293C12.7545 0.10012 12.6644 0 12.5593 0H11.2477C11.1426 0 11.0525 0.105126 11.0325 0.245293L11.0024 0.455545H9.69088C9.61078 0.455545 9.53569 0.530635 9.52568 0.635761L9.4606 1.09131C9.44058 1.22146 9.52067 1.34161 9.6258 1.34161H14.1462C14.2463 1.34661 14.3264 1.22647 14.3064 1.09131Z" fill="#50BFA2"/>
    <path d="M11.4628 13.8416C11.4879 13.8366 11.5329 13.8265 11.598 13.8065C11.7432 13.7615 11.9985 13.6663 12.3038 13.5011C12.7994 13.2258 13.4352 12.7402 14.0109 11.8942C14.096 11.1634 14.156 10.3624 14.1961 9.49135C14.2662 8.00457 14.3363 3.69441 14.3563 2.37283C14.3613 2.15757 14.1861 1.98236 13.9708 1.98236H10.0161C9.80083 1.98236 9.63063 2.15757 9.63063 2.36782C9.63563 4.06485 9.66067 10.828 9.56055 11.744C10.0962 12.2396 10.8871 13.0306 11.4628 13.8416Z" fill="#50BFA2"/>
    <path d="M12.304 13.5012C11.9986 13.6614 11.7433 13.7565 11.5981 13.8065C11.7533 13.7615 12.0036 13.6714 12.304 13.5012Z" fill="#808080"/>
    <path d="M13.8156 13.401C13.1849 13.9767 12.3038 14.4873 11.1024 14.6776C10.5467 13.9417 9.91097 13.1407 9.45542 12.6602C9.29022 13.6764 8.93981 14.7877 8.19892 15.5086C7.48306 16.1293 6.54193 16.5048 5.50569 16.5048C5.17029 16.5048 4.8449 16.4647 4.52953 16.3896C3.76861 16.2845 2.47206 15.9641 1.71115 15.028C1.71115 15.028 1.22557 16.1443 1.3307 17.3207C2.69233 19.1079 4.94002 20.1842 7.38795 19.9739C7.58819 19.9589 7.78843 19.9289 7.98366 19.8938C7.98867 19.8938 7.99367 19.8988 7.99868 19.8988C8.02872 19.8888 8.05875 19.8838 8.08879 19.8738C8.20392 19.8538 8.31906 19.8287 8.4342 19.7987C8.42419 19.7937 8.41418 19.7887 8.40416 19.7837C11.4478 18.9227 13.0898 17.3408 13.8156 13.401Z" fill="#FFC652"/>
    <path d="M8.48938 7.83937L7.12275 6.47774L5.61594 4.98095C5.55587 4.92087 5.45075 4.98595 5.48078 5.06605C5.59091 5.38643 5.79115 5.92207 5.9163 6.72804C2.33201 7.20861 -0.281116 10.3574 0.0242495 13.9166C0.0993394 14.7927 0.344633 15.6187 0.730095 16.3596C0.765137 16.1243 0.815196 15.889 0.870262 15.6687C1.12056 14.6675 1.53606 14.1469 1.53606 14.1469C1.53606 14.1469 2.4071 14.9929 3.61855 15.4685C3.60354 15.4134 3.58852 15.3534 3.5785 15.2983C2.93273 12.1696 4.24931 10.5126 5.87625 10.057C5.7511 10.7328 5.5809 11.1934 5.48078 11.4837C5.45075 11.5688 5.55587 11.6289 5.61594 11.5688L7.12275 10.072L8.48938 8.71542C8.72967 8.47012 8.72967 8.07966 8.48938 7.83937Z" fill="#49C0B8"/>
</svg>
