<svg width="94" height="23" viewBox="0 0 94 23" fill="none" xmlns="http://www.w3.org/2000/svg">
    <path d="M9.29154 0.274627V6.36219C8.44478 5.56119 7.3005 5.0806 5.97313 5.0806C2.51741 5.0806 0 7.75821 0 11.4199C0 15.0816 2.79204 17.7363 6.59105 17.7363C10.2985 17.7363 12.9303 15.2647 12.9303 11.8547V0.274627H9.29154ZM3.63881 11.4199C3.63881 9.58906 4.85174 8.28458 6.54527 8.28458C8.23881 8.28458 9.45174 9.58906 9.45174 11.4199C9.42886 13.2279 8.23881 14.5323 6.54527 14.5323C4.85174 14.5323 3.63881 13.2279 3.63881 11.4199Z" fill="#50BFA2"/>
    <path d="M15.818 17.2786H19.4569V5.53831H15.818V17.2786ZM15.5434 2.03682C15.5434 3.20398 16.4131 4.05075 17.626 4.05075C18.8618 4.05075 19.7315 3.20398 19.7315 2.03682C19.7315 0.846766 18.8618 0 17.626 0C16.4131 0 15.5434 0.846766 15.5434 2.03682Z" fill="#50BFA2"/>
    <path d="M22.3376 0.274627V11.8547C22.3376 15.2647 24.9923 17.7363 28.6769 17.7363C32.4988 17.7363 35.2679 15.0816 35.2679 11.4199C35.2679 7.75821 32.7505 5.0806 29.3177 5.0806C27.9903 5.0806 26.8231 5.56119 25.9764 6.36219V0.274627H22.3376ZM31.6291 11.4199C31.6291 13.2279 30.4162 14.5323 28.7226 14.5323C27.052 14.5323 25.8391 13.2279 25.8391 11.4199C25.8391 9.58906 27.052 8.28458 28.7226 8.28458C30.4162 8.28458 31.6291 9.58906 31.6291 11.4199Z" fill="#50BFA2"/>
    <path d="M41.886 17.7363C43.4193 17.7363 44.6551 16.9353 45.5019 15.6766V17.2786H49.0263V5.53831H45.3875V12.1065C45.3875 13.5254 44.472 14.5323 43.2133 14.5323C41.9317 14.5323 41.0621 13.5025 41.0621 12.0378V5.53831H37.4233V12.9075C37.4233 15.6995 39.2999 17.7363 41.886 17.7363Z" fill="#50BFA2"/>
    <path d="M57.9255 5.0806C54.1036 5.0806 51.4031 7.73532 51.4031 11.4199C51.4031 15.1503 53.7604 17.7363 57.1703 17.7363C58.7952 17.7363 60.1912 17.0726 61.1524 15.8826V17.2786H64.4937V11.4199C64.4937 7.73532 61.7474 5.0806 57.9255 5.0806ZM57.9484 8.28458C59.6419 8.28458 60.8549 9.58906 60.8549 11.4199C60.8549 13.2279 59.6419 14.5323 57.9484 14.5323C56.2549 14.5323 55.0419 13.2279 55.0419 11.4199C55.0419 9.58906 56.2549 8.28458 57.9484 8.28458Z" fill="#50BFA2"/>
    <path d="M74.2487 5.0806C72.7153 5.0806 71.4795 5.88159 70.6327 7.1403V5.53831H67.1084V17.2786H70.7472V10.7104C70.7472 9.29154 71.6626 8.28458 72.9213 8.28458C74.2029 8.28458 75.0725 9.31443 75.0725 10.7791V17.2786H78.7113V9.90945C78.7113 7.11741 76.8347 5.0806 74.2487 5.0806Z" fill="#50BFA2"/>
    <path d="M87.4046 5.0806C83.6056 5.0806 80.8594 7.71244 80.8594 11.3512C80.8594 14.8527 83.3768 17.4388 86.7638 17.4388C88.0683 17.4388 89.2813 16.9353 90.1509 16.1572V17.2786C90.1509 19.0179 88.9837 20.2537 87.336 20.2537C85.8713 20.2537 84.7042 19.2925 84.4753 17.9652H81.2484V19.4527C81.8892 21.5582 84.4295 23 87.4733 23C91.2265 23 93.7897 20.7343 93.7897 17.4159V11.3512C93.7897 7.71244 91.1121 5.0806 87.4046 5.0806ZM87.3818 8.28458C89.1211 8.28458 90.2882 9.56617 90.2882 11.4199C90.2882 13.2507 89.1211 14.4637 87.4046 14.4637C85.7111 14.4637 84.4982 13.205 84.4982 11.4199C84.4982 9.56617 85.6882 8.28458 87.3818 8.28458Z" fill="#50BFA2"/>
</svg>
