<svg width="199" height="116" viewBox="0 0 199 116" fill="none" xmlns="http://www.w3.org/2000/svg">
    <path fill-rule="evenodd" clip-rule="evenodd" d="M189.95 98.521C190.166 95.7069 190.166 92.8928 189.95 90.0788C186.935 52.8464 148.17 25.788 103.16 29.4679C60.0879 32.9314 27.1377 63.4533 27.1377 98.521H189.95Z" fill="#A0EBFF"/>
    <path fill-rule="evenodd" clip-rule="evenodd" d="M158.788 37.1573C165.705 37.6172 172.847 39.9406 179.351 44.2364C196.945 55.8557 203.213 77.5049 193.351 92.5912C183.489 107.677 161.232 110.488 143.639 98.8687C138.046 95.1754 133.598 90.4688 130.449 85.2817C122.868 88.0445 114.438 88.7336 105.988 86.8225C104.624 86.514 103.289 86.1445 101.986 85.7176C96.0687 89.1051 89.1958 91.3065 81.7642 91.9056C71.3351 92.7463 61.492 90.2955 53.5006 85.5128C53.4476 85.6705 53.3929 85.8279 53.3367 85.9853C48.9521 98.2488 36.505 104.978 25.5354 101.016C14.5658 97.0536 9.22757 83.8998 13.6122 71.6363C17.0706 61.9631 25.5453 55.733 34.3544 55.4772C32.9365 33.8781 51.2289 14.8857 75.463 12.9321C78.5439 12.6838 81.5737 12.7227 84.5198 13.0241C94.7675 2.64485 109.939 -2.36537 125.18 1.08119C143.197 5.15567 156.091 19.8689 158.788 37.1573Z" fill="#A0EBFF"/>
    <path fill-rule="evenodd" clip-rule="evenodd" d="M83.3471 75.1424C108.544 74.2766 125.127 75.7919 132.449 76.6577C139.772 77.5236 153.77 84.2341 164.107 86.6152C212.564 97.0056 192.966 100.036 192.966 100.036C192.966 100.036 156.57 111.076 113.498 114.107C76.0249 116.704 42.644 114.107 26.0612 109.777C15.2931 106.963 6.6787 103.716 1.72541 101.768C-0.212841 100.902 -0.643563 98.3044 1.07932 97.0056L7.75551 92.0269C7.97087 91.8104 27.9994 77.0907 83.3471 75.1424Z" fill="#5AD199"/>
    <path fill-rule="evenodd" clip-rule="evenodd" d="M153.34 74.926C158.293 74.926 162.6 78.606 164.323 84.0176C166.477 81.853 169.276 80.7706 172.507 80.7706C178.321 80.7706 183.059 84.8835 184.136 90.5117C184.998 90.0787 185.859 89.8623 186.72 89.8623C189.736 89.8623 192.104 92.0269 192.535 94.841H115.436C115.436 90.2952 119.097 86.3988 123.835 86.3988C124.912 86.3988 126.204 86.6153 127.066 87.0482C128.358 82.2859 132.88 78.606 138.049 78.606C140.203 78.606 142.356 79.2554 144.079 80.3377C146.233 76.8742 149.463 74.926 153.34 74.926Z" fill="#449E8B"/>
    <path fill-rule="evenodd" clip-rule="evenodd" d="M143.648 38.3431L160.015 60.4227L144.509 59.9898L143.648 38.3431Z" fill="#002946"/>
    <path fill-rule="evenodd" clip-rule="evenodd" d="M143.648 38.3431L156.354 59.7733V93.7587L131.373 105.231V66.7003L143.648 38.3431Z" fill="white"/>
    <path fill-rule="evenodd" clip-rule="evenodd" d="M59.6572 57.8251L131.372 66.7003V105.231L59.6572 96.3563V57.8251Z" fill="white"/>
    <path fill-rule="evenodd" clip-rule="evenodd" d="M143.648 38.3431L131.373 69.0814L54.9194 61.0721V59.9898L143.648 38.3431Z" fill="#002946"/>
    <path fill-rule="evenodd" clip-rule="evenodd" d="M107.683 75.1425L116.944 76.0084V90.2952L107.683 89.2128V75.1425Z" fill="#043A5B"/>
    <path fill-rule="evenodd" clip-rule="evenodd" d="M90.8848 73.8437L100.145 74.7096V101.119L90.8848 100.036V73.8437Z" fill="#043A5B"/>
    <path fill-rule="evenodd" clip-rule="evenodd" d="M74.0869 72.5449L83.3474 73.6272V87.6976L74.0869 86.6153V72.5449Z" fill="#043A5B"/>
    <path fill-rule="evenodd" clip-rule="evenodd" d="M149.463 67.3497V80.1212L141.71 81.42V68.6485L149.463 67.3497Z" fill="#043A5B"/>
    <path fill-rule="evenodd" clip-rule="evenodd" d="M73.6558 32.7149L143.648 38.3431L131.373 67.3497L54.9194 59.9898L73.6558 32.7149Z" fill="#043A5B"/>
    <path fill-rule="evenodd" clip-rule="evenodd" d="M42.6437 78.8224C47.597 78.8224 51.9042 82.5024 53.6271 87.9141C55.7807 85.7494 58.5804 84.667 61.8108 84.667C67.6256 84.667 72.3635 88.7799 73.2249 94.4081C74.0864 93.9751 74.9478 93.7587 75.8093 93.7587C78.8243 93.7587 81.1933 95.9233 81.624 98.7374H4.95557C4.95557 94.1916 8.6167 90.2952 13.3546 90.2952C14.4314 90.2952 15.7236 90.5117 16.585 90.9446C17.8772 86.1823 22.1844 82.5024 27.5684 82.5024C29.7221 82.5024 31.8757 83.1518 33.5986 84.2341C35.5368 80.7706 38.9826 78.8224 42.6437 78.8224Z" fill="#449E8B"/>
    <path fill-rule="evenodd" clip-rule="evenodd" d="M57.2884 91.594C60.5188 91.594 63.1031 93.9751 64.1799 97.2221C65.4721 95.9233 67.4103 95.0574 69.3486 95.0574C73.0097 95.0574 76.0247 97.655 76.6708 101.119C77.1015 100.902 77.7476 100.686 78.3937 100.686C80.332 100.686 81.8395 101.984 82.0548 103.716H33.3833C33.3833 100.686 35.7523 98.5209 38.552 98.5209C39.198 98.5209 40.0595 98.7374 40.7056 98.9539C41.567 95.9233 44.3667 93.7586 47.5971 93.7586C48.8893 93.7586 50.1814 94.1916 51.4736 94.841C52.7658 92.8928 54.9194 91.594 57.2884 91.594Z" fill="#FFD173"/>
</svg>
