<svg width="239" height="239" viewBox="0 0 239 239" fill="none" xmlns="http://www.w3.org/2000/svg">
    <path d="M237.938 227.172C237.938 242.943 1.06226 242.943 1.06226 227.172C1.06226 211.402 54.0376 198.636 119.626 198.636C185.215 198.636 237.938 211.402 237.938 227.172Z" fill="#439D8A"/>
    <path fill-rule="evenodd" clip-rule="evenodd" d="M169.199 194.387C175.255 194.387 180.302 198.751 182.321 204.57C184.844 202.146 188.125 200.691 191.91 200.691C198.724 200.691 204.528 205.54 205.537 211.844C206.546 211.359 207.556 211.117 208.565 211.117C212.098 211.117 214.874 213.541 215.631 216.693H124.28C124.28 211.359 128.822 207.237 134.122 207.237C135.383 207.237 136.898 207.48 138.159 207.965C139.673 202.388 144.973 198.509 151.029 198.509C153.553 198.509 156.076 199.236 158.095 200.448C160.871 196.569 164.656 194.387 169.199 194.387Z" fill="#FFD173"/>
    <path fill-rule="evenodd" clip-rule="evenodd" d="M79.0577 192.262C86.6583 192.262 92.9921 197.824 95.779 205.803C98.8192 202.66 103.38 200.725 107.94 200.725C116.554 200.725 123.901 207.012 125.168 215.476C126.435 214.992 127.701 214.508 129.222 214.508C133.782 214.508 137.329 217.652 138.089 222.004H22.3066C22.3066 214.992 27.8804 209.43 34.9743 209.43C36.7478 209.43 38.5212 209.914 40.0413 210.398C42.0682 203.144 48.6553 197.824 56.5093 197.824C59.8029 197.824 62.8431 198.791 65.63 200.484C68.4168 195.406 73.4839 192.262 79.0577 192.262Z" fill="#5AD199"/>
    <path d="M73.0365 124.672C73.0365 124.672 73.0365 124.924 73.0365 124.672C73.0365 127.693 72.7848 130.966 72.533 133.987C72.0296 138.518 71.5261 143.05 70.7708 147.581C70.7708 148.336 70.5191 149.092 70.5191 149.847C70.5191 150.35 70.2673 151.106 70.2673 151.609C70.0156 152.868 69.7638 154.378 69.5121 155.637C69.2603 156.644 69.0086 157.651 69.0086 158.658C67.7499 164.952 66.7429 169.483 66.2394 170.742C66.2394 170.994 66.4911 172 66.4911 172.252C70.0156 180.056 69.0086 183.329 68.5051 191.133C66.9946 206.49 63.4702 220.588 63.4702 220.588L57.1765 226.126C57.1765 226.126 59.1905 215.553 56.673 196.42C55.9178 190.378 54.6591 183.581 52.8968 176.028C50.8829 167.721 46.0997 145.819 45.5962 129.707C45.5962 127.945 46.0997 111.33 49.3724 104.532C50.1276 102.77 56.9248 107.05 56.9248 107.05H63.7219H70.5191C70.5191 107.05 70.5191 107.302 70.7708 107.302C72.0296 109.567 72.533 112.84 73.0365 116.365C73.0365 118.882 73.0365 121.651 73.0365 124.672Z" fill="#40B4E5"/>
    <path d="M73.0365 124.672C73.0365 124.672 73.0365 124.924 73.0365 124.672C73.0365 127.693 72.7848 130.966 72.533 133.987C72.0295 138.518 71.526 143.05 70.7708 147.581C70.7708 148.336 70.519 149.092 70.519 149.847C70.519 150.35 70.2673 151.106 70.2673 151.609C70.0156 152.868 69.7638 154.378 69.5121 155.637C69.2603 156.644 69.0086 157.651 69.0086 158.658C69.0086 158.658 50.6311 114.854 50.3793 114.351L63.9736 106.798H70.7708C70.7708 106.798 70.7708 107.05 71.0225 107.05C72.2813 109.316 72.7848 112.588 73.2883 116.113C73.0365 118.882 73.0365 121.651 73.0365 124.672Z" fill="#2294C5"/>
    <path d="M56.673 227.636C56.9247 227.385 57.4282 226.881 58.6869 227.133C59.4422 227.133 60.1974 227.385 60.9527 227.636H63.4701C65.7358 227.385 65.4841 226.881 65.4841 226.881C65.4841 226.881 65.2323 226.126 64.9806 225.371C64.4771 224.112 63.9736 222.35 64.2254 221.343C64.2254 220.588 64.2254 220.084 63.9736 219.581C63.7219 219.077 63.4701 218.825 63.4701 218.825C63.4701 218.825 61.7079 220.839 60.7009 220.084C58.6869 218.322 58.1834 218.322 58.1834 218.322C58.1834 218.322 53.652 221.091 52.645 222.098C50.6311 223.86 48.3653 224.112 47.1066 224.616C46.6031 224.867 46.3514 225.119 46.0996 225.622C45.8479 226.378 45.5961 227.133 45.8479 227.636H56.673Z" fill="white"/>
    <path d="M52.1415 56.9524C52.1415 56.9524 47.8619 83.8893 41.0647 94.2109C37.5403 99.4976 13.8761 79.3578 13.8761 79.3578L16.6453 77.8474C16.6453 77.8474 35.2745 86.9102 35.778 85.9032C36.2815 84.8963 38.5472 63.2461 42.0717 60.2251C45.8479 57.2042 52.1415 56.9524 52.1415 56.9524Z" fill="#FFB27D"/>
    <path d="M53.9037 44.6168C53.9037 44.6168 48.617 44.3651 46.0995 35.8057C44.3373 29.2603 47.8618 20.9527 57.4281 21.7079C57.4281 21.7079 63.7218 21.2044 65.9875 26.2393C66.9945 28.505 68.505 29.512 65.7358 37.8197L64.9805 40.5889L53.9037 44.6168Z" fill="#233862"/>
    <path d="M64.7288 36.5609C64.7288 36.5609 68.0015 40.3371 71.7777 39.5819C75.5539 38.8267 82.8546 36.5609 85.6238 39.8336C88.393 43.1063 84.6168 50.9105 87.386 53.6797C90.1552 56.4489 87.8895 65.26 75.0504 62.4908C62.2114 59.4699 62.7149 45.3721 62.9666 43.3581C62.9666 41.8476 64.7288 36.5609 64.7288 36.5609Z" fill="#233862"/>
    <path d="M125.148 181.063L124.645 184.84C124.645 184.84 109.288 180.056 92.1693 175.525C86.6309 174.014 81.0924 172.756 75.8058 171.497C70.2673 170.238 53.9038 100.001 53.9038 100.001C53.9038 100.001 78.0715 97.4836 84.3651 109.567C94.1832 128.197 83.1064 159.413 90.9105 160.42C92.6728 160.672 94.6867 161.175 96.449 161.931C109.54 166.714 125.148 181.063 125.148 181.063Z" fill="#40B4E5"/>
    <path d="M46.3514 56.9524C46.3514 56.9524 53.652 53.428 60.9526 52.9245C68.2533 52.421 76.5609 53.1762 78.5749 55.1902C79.5819 56.1972 82.6028 64.0013 81.3441 70.0432C79.8336 77.0921 79.3301 80.3648 79.0784 84.8963C78.8266 93.4557 81.3441 98.2388 84.8685 107.805C87.1343 114.099 63.7219 127.441 46.6031 114.854C47.1066 107.805 49.6241 90.6864 47.8618 87.6655C42.8269 78.3509 42.8269 59.4699 46.3514 56.9524Z" fill="#FFD173"/>
    <path d="M78.8267 55.1902C78.8267 55.1902 96.7006 75.5816 98.7146 81.6236C100.729 87.4137 73.54 99.2458 73.54 99.2458L72.2812 94.9661C72.2812 94.9661 87.8895 82.3788 87.386 81.3718C86.8825 80.1131 75.3022 69.7915 75.3022 65.0083C75.0505 60.2251 78.8267 55.1902 78.8267 55.1902Z" fill="#FBB28F"/>
    <path d="M57.9317 59.2181C50.8828 59.4699 53.652 54.9385 53.652 54.9385C54.1555 53.428 54.1555 50.407 53.9037 48.393C53.652 46.1273 53.4002 43.8616 53.4002 43.1064C53.4002 42.8546 53.4002 42.8546 53.4002 42.8546L62.2113 40.5889L63.7218 43.3581L63.9736 43.8616C63.9736 44.6169 64.2253 46.6308 64.7288 48.6448C65.2323 50.407 65.7358 51.9175 66.491 52.6727C67.2463 53.1762 68.7568 58.9664 57.9317 59.2181Z" fill="#FFB27D"/>
    <path d="M64.9806 48.6448C58.1835 48.393 53.4003 43.3581 53.4003 43.1063C56.1695 42.3511 60.1974 42.6028 63.7219 43.3581L63.9736 43.8616C64.2254 44.6168 64.4771 46.6308 64.9806 48.6448Z" fill="#ED975D"/>
    <path d="M64.7288 46.379C64.7288 46.379 52.8967 47.386 52.3932 39.8336C51.8897 32.533 50.1275 27.4981 57.6799 26.4911C65.2323 25.4841 66.9945 28.2533 67.7498 30.7708C68.2532 33.54 67.7498 46.1273 64.7288 46.379Z" fill="#FFB27D"/>
    <path d="M62.9667 26.2393C62.9667 26.2393 60.1975 35.0504 55.4143 36.8127C50.3794 38.3231 48.1136 37.3162 48.1136 37.3162C48.1136 37.3162 51.6381 34.0435 52.1416 28.505C52.1416 28.505 60.1975 22.2114 62.9667 26.2393Z" fill="#233862"/>
    <path d="M62.2114 26.9946C62.2114 26.9946 64.7288 28.7568 65.4841 30.519C66.2393 32.2812 66.7428 36.3092 67.7498 36.0574C67.7498 36.0574 69.7638 30.0155 66.7428 26.7428C63.7218 23.4701 62.2114 26.9946 62.2114 26.9946Z" fill="#233862"/>
    <path d="M77.3161 54.1832C77.3161 54.1832 83.1063 56.1972 87.8895 64.5048C87.8895 64.5048 87.1342 70.0432 79.8336 73.8194C72.5329 77.5956 73.2882 61.9873 73.2882 61.9873L77.3161 54.1832Z" fill="#FFD173"/>
    <path d="M47.6102 56.4489C47.6102 56.4489 41.82 58.7146 41.0648 61.2321C39.5543 64.7565 38.0438 70.7985 38.0438 70.7985C38.0438 70.7985 40.3095 76.3369 48.1137 77.8473C55.4143 79.1061 47.6102 56.4489 47.6102 56.4489Z" fill="#FFD173"/>
    <path d="M18.1558 78.6026L17.1488 81.6236C17.1488 81.6236 14.1278 81.3718 12.1139 80.6166C11.3586 80.3648 10.3517 79.6096 10.3517 78.8543C10.0999 77.3439 10.3517 74.0712 11.8621 73.0642C12.1139 72.8124 12.3656 72.8124 12.6174 72.8124C14.1278 72.5607 18.1558 78.6026 18.1558 78.6026Z" fill="#FFB27D"/>
    <path d="M130.435 183.833C130.435 183.833 130.183 183.833 130.435 183.833C130.183 183.581 129.679 183.077 129.679 181.819C129.679 181.063 129.931 180.308 129.931 179.553L129.679 177.035C129.176 175.021 128.672 175.021 128.672 175.021C128.672 175.021 128.169 175.273 127.414 175.525C126.155 176.028 124.644 176.784 123.637 176.784C122.882 176.784 122.63 177.035 122.127 177.287C121.624 177.539 121.624 177.539 121.624 177.539C121.624 177.539 123.889 179.553 123.134 180.56C121.624 182.826 121.372 183.581 121.372 183.581C121.372 183.581 124.896 187.357 126.155 188.364C128.169 190.126 128.672 192.392 129.176 193.399C129.428 193.902 129.679 194.154 130.183 194.406C130.938 194.658 131.693 194.658 132.197 194.406L130.435 183.833Z" fill="white"/>
    <path d="M71.526 99.7493C71.526 99.7493 63.2184 96.7283 61.7079 94.2109C60.1974 91.6934 71.0225 88.4207 71.7777 91.6934C72.7847 95.4696 71.2742 96.2249 71.2742 97.9871C71.2742 100.001 137.232 116.616 115.33 137.008C93.4279 157.399 80.3371 153.875 73.0365 135.497C65.9876 116.868 71.526 99.7493 71.526 99.7493Z" fill="#233862"/>
    <path d="M85.8755 118.127L88.8965 119.134L88.6447 120.392L91.1622 119.889L93.9314 119.134L90.1552 115.358L89.6517 116.868L86.6307 115.861C85.372 115.358 84.1133 115.609 83.358 116.616C82.3511 117.372 81.8476 118.63 82.0993 119.889L82.8545 124.924L85.1203 124.672L84.365 119.637C84.365 119.134 84.6168 118.63 84.8685 118.63C85.1203 118.127 85.372 117.875 85.8755 118.127Z" fill="#EBF3FA"/>
    <path d="M100.729 120.393L95.6936 118.63L94.9384 120.896L99.9733 122.658C100.477 122.91 100.729 123.413 100.729 123.413C100.729 123.665 100.729 124.169 100.225 124.42L97.4558 126.686L96.7006 125.679L95.1901 130.714L100.225 129.707L99.2181 128.448L101.987 126.183C102.994 125.427 103.498 124.169 103.246 122.91C102.743 121.903 101.987 120.896 100.729 120.393Z" fill="#EBF3FA"/>
    <path d="M87.386 134.742C87.1343 134.742 86.6308 134.49 86.6308 133.735L86.1273 130.462L87.6378 129.959L83.8616 126.434L82.3511 131.469L83.6098 131.218L84.1133 134.49C84.365 135.749 85.1203 136.756 86.379 137.259C87.6378 137.763 88.8965 137.511 89.9035 136.756L94.4349 132.98L92.9244 131.218L88.393 134.994C88.1412 134.994 87.6377 134.994 87.386 134.742Z" fill="#EBF3FA"/>
    <path d="M73.5399 94.2109L76.3091 96.7283C76.3091 96.7283 73.2882 102.015 71.7777 102.267H71.5259C70.0155 102.519 66.491 99.7493 66.2393 97.2318C66.2393 96.9801 66.2393 96.7283 66.2393 96.4766C66.9945 94.9661 70.5189 94.4626 72.2812 94.2109C73.0364 94.2109 73.5399 94.2109 73.5399 94.2109Z" fill="#FFB27D"/>
    <path d="M14.3796 78.3508C12.8691 79.6096 10.3517 78.8543 10.3517 78.8543C10.0999 77.3439 10.3517 74.0712 11.8621 73.0642C12.1139 72.8124 12.3656 72.8124 12.6174 72.8124C13.8761 73.0642 15.8901 77.0921 14.3796 78.3508Z" fill="#FFB27D"/>
    <path d="M151.218 149.064C148.952 151.329 145.679 153.343 150.463 158.882C156.504 165.931 164.812 195.133 164.812 195.133C164.309 196.14 164.56 197.651 163.805 198.154C162.546 198.909 159.274 196.392 159.274 196.392C159.274 196.392 131.582 164.672 129.568 157.623C128.057 152.588 138.379 128.42 144.421 115.833C146.686 111.302 148.197 108.281 148.449 108.281C148.449 108.281 148.449 108.281 148.7 108.281C151.973 106.518 154.994 106.77 157.511 108.532C158.015 108.784 158.518 109.288 159.022 109.791C165.316 115.581 168.84 128.42 168.337 130.938C167.833 132.7 164.56 136.476 160.784 140.001C160.029 140.756 159.274 141.511 158.518 142.266C155.246 145.539 151.973 148.308 151.218 149.064Z" fill="#134F74"/>
    <path d="M161.036 140.001C160.281 140.756 159.525 141.511 158.77 142.266L144.672 115.833C146.938 111.302 148.449 108.281 148.7 108.281C148.7 108.281 148.7 108.281 148.952 108.281L157.763 108.532H159.274V109.791L161.036 140.001Z" fill="#043A5B"/>
    <path d="M157.008 50.8825C157.008 50.8825 159.777 59.1901 158.77 63.9733C157.763 68.7565 144.924 91.9172 140.644 95.6934C136.365 99.4696 109.931 80.5886 109.931 80.5886L112.701 78.0711C112.701 78.0711 134.099 84.8683 135.358 83.106C136.616 81.5956 143.917 48.1133 157.008 50.8825Z" fill="#FFB27D"/>
    <path d="M152.98 114.071C152.98 114.071 157.008 142.518 170.099 162.91C182.686 182.798 188.225 212.504 188.225 212.504C188.225 212.504 188.98 213.259 190.994 212.504C192.756 211.748 194.015 212.755 194.266 212C194.266 212 194.266 165.679 187.721 155.105C183.945 149.064 182.938 128.169 183.441 122.378C183.945 116.588 181.679 109.539 181.679 109.539L152.98 114.071Z" fill="#134F74"/>
    <path d="M194.266 220.056H190.994C189.987 219.804 188.98 219.553 187.973 219.301C186.21 219.049 185.455 219.804 185.204 219.804L171.106 219.553C170.854 219.049 171.106 217.79 171.357 217.035C171.609 216.532 172.113 216.028 172.616 215.776C174.127 215.273 177.148 215.021 179.917 212.755C181.427 211.497 187.217 207.721 187.217 207.721C187.469 207.721 187.973 207.972 190.49 210.238C191.749 211.497 194.266 208.727 194.266 208.727C194.266 208.727 194.77 208.979 195.022 209.734C195.273 210.238 195.525 210.993 195.273 212C195.022 213.259 195.777 215.525 196.28 217.287C196.532 218.294 196.784 219.049 196.784 219.049C196.784 219.049 197.036 219.804 194.266 220.056Z" fill="#043A5B"/>
    <path d="M195.022 209.986C194.266 210.49 192.504 211.497 191.497 211.748C189.987 212 187.217 207.972 187.217 207.972C187.469 207.972 187.973 208.224 190.49 210.49C191.749 211.748 194.266 208.979 194.266 208.979C194.266 208.979 194.77 209.231 195.022 209.986Z" fill="#8C9DF4"/>
    <path d="M194.266 220.056H190.994C189.987 219.804 185.455 219.804 185.204 220.056L171.106 219.804C170.854 219.301 171.106 218.042 171.357 217.287C171.861 217.035 171.861 219.049 172.113 219.301C172.364 219.553 183.693 219.553 184.197 219.049C184.952 218.546 186.714 217.79 189.483 218.546C191.749 219.049 195.273 217.79 196.28 217.287C196.532 218.294 196.784 219.049 196.784 219.049C196.784 219.049 197.036 219.804 194.266 220.056Z" fill="#8C9DF4"/>
    <path d="M183.693 91.9171C184.448 76.0571 182.938 53.1482 179.162 51.386C175.889 49.6238 168.588 47.1063 161.288 46.8545C155.246 46.6028 142.407 48.6168 140.644 58.4349C139.386 64.7285 138.63 69.7635 138.63 69.7635C138.63 69.7635 139.889 73.7914 143.414 75.0501C143.665 76.8124 143.917 78.5746 144.421 80.0851C149.707 96.9521 145.679 113.064 145.679 113.064C151.218 118.099 179.917 116.84 182.938 115.078C187.973 112.56 182.938 107.777 183.693 91.9171Z" fill="#92C741"/>
    <path d="M170.854 199.665L168.337 201.93C167.33 202.434 166.574 202.937 165.567 203.441C164.057 204.448 164.057 205.455 164.057 205.707L153.484 215.021C152.98 214.769 152.477 213.762 151.973 213.007C151.721 212.504 151.721 211.748 152.225 211.245C152.98 209.986 154.994 207.721 155.497 204.196C155.749 202.182 157.763 195.637 157.763 195.637C157.763 195.637 158.518 195.385 161.791 195.133C163.553 195.133 163.553 191.357 163.553 191.357C163.553 191.357 164.057 191.357 164.812 191.609C165.316 191.86 166.071 192.364 166.574 193.119C167.33 194.126 169.344 195.637 170.854 196.392C171.861 196.895 172.365 197.147 172.365 197.147C172.365 197.147 172.868 197.399 170.854 199.665Z" fill="#043A5B"/>
    <path d="M164.812 191.357C164.56 192.364 164.057 194.126 163.302 195.133C162.295 196.14 157.763 195.133 157.763 195.133C157.763 195.133 158.518 194.881 161.791 194.63C163.553 194.63 163.553 190.853 163.553 190.853C163.553 190.853 164.057 191.105 164.812 191.357Z" fill="#8C9DF4"/>
    <path d="M170.854 199.665L168.337 201.93C167.33 202.434 166.574 202.937 165.567 203.441C164.057 204.448 164.057 205.455 164.057 205.707L153.484 215.021C152.98 214.769 152.477 213.762 151.973 213.007C151.973 212.504 153.484 214.014 153.987 214.014C154.491 214.014 162.798 206.462 163.05 205.707C163.302 204.951 164.057 202.937 166.574 201.679C168.84 200.672 170.351 197.147 170.854 196.392C171.861 196.895 172.365 197.147 172.365 197.147C172.365 197.147 172.868 197.399 170.854 199.665Z" fill="#8C9DF4"/>
    <path d="M170.854 52.8965C170.854 52.8965 179.665 53.3999 183.441 56.1692C187.469 58.9384 204.336 79.3298 206.35 84.6165C208.364 90.1549 186.714 104.253 186.714 104.253L183.945 99.4695C183.945 99.4695 194.015 86.8822 192.756 85.12C191.749 83.3578 163.302 63.9733 170.854 52.8965Z" fill="#FFB27D"/>
    <path d="M114.966 79.0781L112.952 83.106C112.952 83.106 105.903 81.3438 104.896 79.8333V79.5816C104.896 79.3298 104.645 79.0781 104.645 78.8263C104.645 76.8124 106.407 72.7844 108.924 71.5257C109.176 71.5257 109.428 71.2739 109.68 71.2739C111.442 71.7774 113.204 75.5536 114.211 77.5676C114.966 78.5746 114.966 79.0781 114.966 79.0781Z" fill="#FFB27D"/>
    <path d="M167.833 47.6098C167.833 47.6098 175.889 48.365 181.427 52.393C183.945 54.1552 193.763 64.4768 193.763 64.4768C193.763 64.4768 192.001 74.5466 179.665 76.5606C167.078 78.5746 166.323 57.9314 166.323 57.9314L167.833 47.6098Z" fill="#7EB041"/>
    <path d="M165.567 47.6098C165.819 48.1133 165.819 48.8685 165.567 49.6237C164.309 51.386 161.288 54.1552 153.232 53.1482C150.463 52.8964 149.959 50.6307 151.973 48.6168C152.477 48.1133 152.477 45.0923 152.477 44.0853C152.477 41.3161 152.728 39.8056 152.728 39.8056L158.518 36.2812L164.057 33.0085C162.546 41.3161 164.56 46.0993 165.567 47.6098Z" fill="#FFB27D"/>
    <path d="M163.302 37.0364C163.302 37.0364 159.022 42.8266 152.225 43.8336C152.225 41.0644 152.477 39.5539 152.477 39.5539L158.267 36.0294L163.302 37.0364Z" fill="#ED985F"/>
    <path d="M150.211 39.3021C150.211 39.3021 163.05 43.0783 165.316 35.0225C167.581 27.2183 170.602 22.1834 162.546 19.6659C154.239 16.8967 151.973 19.4142 150.462 21.9316C149.204 24.4491 146.938 38.0434 150.211 39.3021Z" fill="#FFB27D"/>
    <path d="M171.861 19.9177C172.113 19.9177 172.365 19.6659 172.868 19.6659C172.868 19.6659 172.365 19.4142 171.861 19.1624C171.861 18.4072 171.609 16.645 170.099 16.1415C170.099 16.1415 170.854 16.645 170.854 17.652C169.344 15.638 165.819 14.1275 155.749 13.624C142.407 13.1205 145.679 22.1834 147.19 23.1904C148.7 24.4491 153.484 22.1834 156.504 22.6869C159.777 23.4421 159.777 27.9736 160.784 28.7288C161.791 29.484 161.539 28.2253 163.05 27.7218C164.56 27.2183 164.56 29.7358 163.805 31.2463C163.302 32.7567 165.064 35.0224 165.064 35.0224C165.064 35.0224 165.064 35.0224 167.33 33.0085C169.595 30.9945 172.616 21.9316 172.113 19.9177C172.113 20.1694 171.861 19.9177 171.861 19.9177Z" fill="#2C3A64"/>
    <path d="M179.665 102.491C179.665 102.491 171.357 99.4695 169.847 96.9521C168.337 94.4346 179.162 91.1619 179.917 94.4346C180.924 98.2108 179.413 98.9661 179.413 100.728C179.413 102.742 245.371 119.358 223.469 139.749C201.567 160.14 188.476 156.616 181.176 138.238C174.378 119.609 179.665 102.491 179.665 102.491Z" fill="#233862"/>
    <path d="M194.266 120.616L197.287 121.623L196.784 122.882L199.301 122.378L202.071 121.623L198.546 117.847L198.043 119.358L195.022 118.351C193.763 117.847 192.504 118.099 191.749 119.106C190.742 119.861 190.239 121.12 190.49 122.378L191.246 127.413L193.511 127.162L192.756 122.127C192.756 121.623 193.008 121.12 193.26 121.12C193.26 120.868 193.511 120.616 194.266 120.616Z" fill="#EBF3FA"/>
    <path d="M208.868 123.134L203.833 121.371L203.078 123.637L208.113 125.399C208.616 125.651 208.868 126.155 208.868 126.155C208.868 126.406 208.868 126.91 208.364 127.162L205.595 129.427L205.092 128.42L203.581 133.455L208.616 132.448L207.609 131.441L210.378 129.176C211.385 128.42 211.889 127.162 211.637 125.903C211.133 124.392 210.126 123.385 208.868 123.134Z" fill="#EBF3FA"/>
    <path d="M195.777 137.483C195.525 137.483 195.022 137.232 195.022 136.476L194.518 132.952L196.029 132.448L192.253 128.924L190.742 133.959L192.001 133.707L192.504 136.98C192.756 138.238 193.511 139.245 194.77 139.749C196.029 140.252 197.287 140.001 198.294 139.245L202.826 135.469L201.315 133.707L196.784 137.483C196.28 137.735 195.777 137.483 195.777 137.483Z" fill="#EBF3FA"/>
    <path d="M185.203 98.7143L188.476 101.484C188.476 101.484 184.952 108.029 183.441 108.532H183.19C181.427 108.784 177.148 105.763 176.392 102.49C176.392 102.239 176.392 101.987 176.392 101.735C177.148 99.973 181.427 99.2178 183.693 98.966C184.448 98.7143 185.203 98.7143 185.203 98.7143Z" fill="#FFB27D"/>
    <path d="M108.673 80.0851C105.148 79.8333 104.896 78.8263 104.896 78.8263C104.896 76.8124 106.659 72.7844 109.176 71.5257C109.428 71.5257 109.68 71.2739 109.931 71.2739C110.435 72.2809 110.938 73.5397 111.19 74.5466C111.945 77.3159 111.945 80.3368 108.673 80.0851Z" fill="#FFB27D"/>
</svg>
