<svg width="270" height="270" viewBox="0 0 270 270" fill="none" xmlns="http://www.w3.org/2000/svg">
    <g clip-path="url(#clip0)">
        <path fill-rule="evenodd" clip-rule="evenodd" d="M91.0055 202C98.9613 202 105.591 207.674 108.243 215.239C111.558 212.087 115.867 210.196 120.84 210.196C129.79 210.196 137.414 216.5 138.74 224.696C140.066 224.065 141.392 223.75 142.718 223.75C147.359 223.75 151.006 226.902 152 231H32C32 224.065 37.9669 218.707 44.9282 218.707C46.5856 218.707 48.5746 219.022 50.232 219.652C52.221 212.402 59.1823 207.359 67.1381 207.359C70.453 207.359 73.768 208.304 76.4199 209.88C80.0663 204.837 85.0387 202 91.0055 202Z" fill="#8DF3C3"/>
        <path d="M270 249.791C270 267.403 0 267.403 0 249.791C0 232.179 60.4241 218 135 218C209.576 218 270 232.179 270 249.791Z" fill="#439D8A"/>
        <path fill-rule="evenodd" clip-rule="evenodd" d="M143.856 208C153.006 208 160.63 214.652 163.68 223.522C167.492 219.826 172.448 217.609 178.166 217.609C188.459 217.609 197.227 225 198.751 234.609C200.276 233.87 201.801 233.5 203.326 233.5C208.663 233.5 212.856 237.196 214 242H76C76 233.87 82.8619 227.587 90.8674 227.587C92.7735 227.587 95.0608 227.957 96.9669 228.696C99.2541 220.196 107.26 214.283 116.409 214.283C120.221 214.283 124.033 215.391 127.083 217.239C131.276 211.326 136.994 208 143.856 208Z" fill="#FFD173"/>
        <path d="M219.071 234.89L219.351 240.115C219.651 241.064 219.89 242.03 220.067 243.008C220.067 245.279 206.661 241.08 209.678 240.084C209.958 240.084 211.357 239.307 211.451 238.529C211.544 237.751 211.948 234.952 211.948 234.952L219.071 234.89Z" fill="#F9C38A"/>
        <path d="M210.829 239.555C212.394 240.02 213.983 240.404 215.588 240.706C217.205 240.924 219.32 238.995 220.471 239.524C221.622 240.053 221.684 245.31 221.684 245.31C221.684 245.31 204.825 246.803 200.066 245.31C198.169 244.657 204.39 241.702 210.829 239.555Z" fill="#DC4437"/>
        <path d="M240.409 234.61L240.814 239.835C241.113 240.784 241.352 241.75 241.529 242.728C241.529 244.999 228.123 240.8 231.14 239.804C231.42 239.804 233.255 238.529 233.349 237.751C233.412 236.715 233.412 235.677 233.349 234.641L240.409 234.61Z" fill="#F9C38A"/>
        <path d="M232.353 239.151C233.919 239.615 235.507 239.999 237.112 240.302C238.73 240.52 240.845 238.591 241.996 239.12C243.147 239.649 243.302 244.905 243.302 244.905C236.049 245.282 228.782 245.282 221.529 244.905C219.631 244.563 225.914 241.297 232.353 239.151Z" fill="#DC4437"/>
        <path d="M32.2549 12.3333C43.5771 12.3333 52.7842 17.8078 52.8464 24.7753C52.7161 26.651 52.1035 28.4613 51.0681 30.0307C50.0327 31.6002 48.6096 32.8756 46.9365 33.7336L50.638 41.8209L41.8975 36.0664C38.8812 37.0365 35.7343 37.54 32.566 37.5595C21.2437 37.5595 12.0367 32.085 11.9744 25.1175C11.9122 18.15 20.9327 12.4266 32.2549 12.3333Z" fill="#FFFBF3"/>
        <path d="M124.73 115.415C126.135 115.494 127.495 115.933 128.68 116.691C131.142 115.79 133.552 114.752 135.897 113.58C135.897 113.58 155.555 103.875 156.613 103.315L170.828 85.4612L181.777 90.5002C181.777 90.5002 165.82 109.505 164.793 110.345C163.767 111.185 135.586 121.076 133.128 122.041C133.128 122.041 130.64 124.311 129.054 125.68C127.745 126.614 126.31 127.358 124.792 127.888C123.422 128.58 121.969 129.092 120.469 129.413C118.322 129.879 120.095 128.417 120.095 128.417C120.095 128.417 123.89 126.8 123.704 126.52C123.517 126.24 121.526 127.297 119.162 127.857L117.389 128.262C115.927 128.573 115.305 127.733 116.767 127.173C117.424 126.905 118.1 126.687 118.789 126.52C119.431 126.325 120.056 126.075 120.655 125.773C121.315 125.557 121.959 125.298 122.584 124.996C122.584 124.996 122.584 124.685 122.024 124.809C120.86 125.201 119.676 125.533 118.478 125.804L116.425 126.115C116.425 126.115 113.999 126.364 113.968 126.115C113.937 125.867 115.43 124.965 116.363 124.965C117.027 124.724 117.715 124.557 118.416 124.467C118.416 124.467 121.246 123.347 121.091 122.943C119.884 122.907 118.676 122.98 117.483 123.16C115.554 123.16 114.154 123.16 114.061 122.912C113.968 122.663 115.43 122.103 115.43 122.103L117.234 121.792C117.762 121.792 119.287 121.201 119.287 121.201C119.287 121.201 124.481 119.303 124.295 118.899C124.108 118.495 123.237 117.717 122.895 117.717C122.553 117.717 121.868 118.09 121.495 118.09C121.122 118.09 120.344 118.09 120.282 117.562C120.22 117.033 122.273 116.131 122.273 116.131C123.028 115.711 123.868 115.466 124.73 115.415Z" fill="#FFB27B"/>
        <path d="M160.905 96.3479C160.905 96.3479 164.451 99.4585 165.913 100.64C167.375 101.822 173.098 104.404 173.098 104.404C173.098 104.404 179.039 95.3215 181.621 90.749C184.731 85.2124 186.94 77.0006 186.193 76.7518C183.71 75.9035 181.003 75.9808 178.572 76.9695C169.583 81.1687 160.905 96.3479 160.905 96.3479Z" fill="#E6E6E6"/>
        <path d="M128.151 120.174C127.43 120.394 126.655 120.366 125.951 120.095C125.247 119.825 124.653 119.327 124.263 118.681C124.108 120.392 126.721 121.263 128.151 120.174Z" fill="#F9C38A"/>
        <path d="M132.257 87.3275C130.92 87.3275 129.489 86.7054 129.458 86.4254C129.427 86.1455 130.236 85.4923 130.547 85.3679L131.48 84.9013C131.554 84.8649 131.62 84.8143 131.674 84.7522C131.728 84.6902 131.769 84.618 131.795 84.5399C131.821 84.4617 131.832 84.3792 131.825 84.2971C131.819 84.215 131.797 84.1349 131.76 84.0615C131.76 83.6882 130.329 84.0615 129.893 84.0615C128.198 85.0047 126.557 86.0432 124.979 87.172C124.574 87.4519 115.834 86.7365 112.817 86.7676C107.871 86.7676 102.832 86.2388 102.303 86.2077L82.4894 79.6134L77.1704 86.0211C77.1704 86.0211 99.3172 93.7662 100.468 94.0462C101.028 94.0462 112.475 93.6107 112.475 93.6107L124.015 92.3354C124.015 92.3354 126.938 92.8642 128.774 93.2997C129.956 93.5796 130.951 91.9932 131.884 91.9621C131.884 89.6293 131.573 90.9668 132.195 88.8516C132.04 88.4784 132.257 87.5452 132.257 87.3275Z" fill="#FFB27B"/>
        <path d="M78.3526 234.703C78.3441 231.753 78.8602 228.825 79.8768 226.056C77.4195 226.056 75.3354 224.967 72.7848 224.998C72.1005 229.042 71.0118 235.698 71.0118 235.698V240.955H88.6173C86.7702 240.05 84.9924 239.011 83.2983 237.845C82.8006 237.596 78.5704 236.227 78.3526 234.703Z" fill="#F9C38A"/>
        <path d="M70.8246 242.293H88.99C89.6743 242.293 89.8298 241.671 89.581 241.328C87.5877 239.922 85.4373 238.753 83.1733 237.845C78.9846 238.148 74.7876 237.377 70.9802 235.605C70.1036 237.738 70.0482 240.121 70.8246 242.293Z" fill="#353535"/>
        <path d="M56.4233 234.703C55.9825 231.744 55.9825 228.735 56.4233 225.776C53.966 225.776 51.602 225.309 49.0825 225.34C49.0825 229.509 49.0825 235.667 49.0825 235.667V240.924H66.6879C64.8409 240.019 63.063 238.98 61.369 237.814C60.8713 237.596 56.641 236.227 56.4233 234.703Z" fill="#F9C38A"/>
        <path d="M48.9272 242.293H66.937C67.6213 242.293 67.7768 241.671 67.528 241.328C65.5347 239.922 63.3843 238.753 61.1203 237.845C56.9316 238.147 52.735 237.376 48.9272 235.605C48.1009 237.758 48.1009 240.14 48.9272 242.293Z" fill="#353535"/>
        <path d="M73.4998 120.081L68.1187 123.192L57.2008 139.926L76.7036 185.993C76.7036 185.993 74.4952 192.929 73.7798 196.382C73.0644 199.834 71.2292 231.095 71.2292 231.095H79.5653C79.5653 231.095 87.466 197.999 88.8968 187.268C90.5143 174.235 80.6229 143.192 80.6229 143.192C78.7877 136.971 74.8062 123.814 74.8062 123.814C74.8062 123.814 73.7176 120.641 73.4998 120.081Z" fill="#043A5B"/>
        <path d="M54.8057 113.798C55.0451 116.706 54.4745 119.624 53.1572 122.227C51.8196 124.965 49.4557 127.111 47.8071 130.47C44.5281 137.006 43.241 144.361 44.1056 151.622C44.1056 151.622 50.6688 176.692 50.3266 185.837C49.9061 190.404 49.2206 194.943 48.2737 199.43C47.6205 203.069 47.8382 230.068 47.8382 230.068L56.672 230.255L63.8262 185.961L66.9367 146.583L73.4998 120.081L54.8057 113.798Z" fill="#0B4C74"/>
        <path d="M75.4594 55.2893C75.2757 53.1526 74.6698 51.0735 73.6766 49.1727C72.6835 47.2719 71.323 45.5871 69.6739 44.216C68.2252 43.0458 66.497 42.2727 64.6592 41.9728C62.8213 41.6728 60.937 41.8563 59.1915 42.5052C48.678 46.3311 54.3391 54.6983 41.275 63.6255C37.9694 65.5395 35.0648 68.0744 32.7211 71.0907C30.6074 73.4865 29.1136 76.3642 28.3707 79.4715C27.6277 82.5789 27.6583 85.8211 28.4597 88.9139C30.1986 93.6641 33.6424 97.5975 38.1211 99.949C42.5998 102.3 47.793 102.902 52.6905 101.636C65.4747 96.9701 76.1126 80.7021 76.828 76.2852C77.1018 69.2581 76.6431 62.2215 75.4594 55.2893Z" fill="#233862"/>
        <path d="M76.4548 86.7054C79.5653 88.074 84.7909 90.1269 84.7909 90.1269L87.9014 80.4533C70.6382 70.6241 72.0068 72.2104 59.0671 72.3971C48.7091 72.3971 44.3855 70.5619 35.4895 94.6683C35.4895 94.6683 42.2704 97.7788 44.821 98.7119C45.8786 95.6014 47.7449 89.7848 48.8647 93.1752C50.5164 98.2509 51.7542 103.452 52.5661 108.728C53.3842 112.126 53.6572 115.633 53.3749 119.117C57.4811 119.948 61.6373 120.509 65.8169 120.796C68.3765 120.76 70.9273 120.489 73.4376 119.988C73.4376 119.988 74.4952 97.6232 75.0551 96.6901C76.0694 95.3803 76.702 93.8157 76.8832 92.169C77.0643 90.5223 76.7869 88.8575 76.0815 87.3586C75.7394 86.5188 75.8327 86.4254 76.4548 86.7054Z" fill="#FFD173"/>
        <path d="M60.7158 62.4435C60.7158 62.4435 59.907 69.1 59.4094 71.4328C58.9117 73.7657 58.1341 81.4797 63.142 82.7239C68.1499 83.9681 66.5946 74.4189 66.6879 71.9616C66.7812 69.5043 68.181 60.9193 68.181 60.9193L60.7158 62.4435Z" fill="#FFB27B"/>
        <path d="M60.3423 64.5897C61.3742 65.2918 62.5935 65.6672 63.8416 65.6672C65.0897 65.6672 66.309 65.2918 67.3409 64.5897C67.652 62.4435 67.963 60.7327 67.963 60.7327L60.4978 62.288C60.4978 62.288 60.4978 63.3455 60.3423 64.5897Z" fill="#E5AC7A"/>
        <path d="M62.1155 45.0869C60.2212 45.7642 58.6249 47.0853 57.6052 48.8195C55.9256 51.7434 55.0546 60.1417 61.3067 63.7188C67.5589 67.2959 71.9758 61.5725 71.7891 56.1914C71.6025 50.8102 70.0473 43.7183 62.1155 45.0869Z" fill="#FFB27B"/>
        <path d="M71.7047 56.5155C72.5111 56.4746 73.1077 55.3149 73.0373 53.9252C72.9669 52.5355 72.2562 51.4421 71.4498 51.4829C70.6434 51.5238 70.0468 52.6835 70.1172 54.0732C70.1876 55.4629 70.8984 56.5563 71.7047 56.5155Z" fill="#FFB27B"/>
        <path d="M62.9863 44.8381C62.9863 44.8381 59.627 53.6097 56.3299 54.5428C53.0327 55.476 53.2194 59.7996 53.2194 59.7996C53.2194 59.7996 52.7839 49.8149 55.8011 47.3576C57.892 45.8212 60.3938 44.9439 62.9863 44.8381Z" fill="#233862"/>
        <path d="M57.0133 59.3839C57.9292 59.0376 58.2531 57.6497 57.7367 56.2838C57.2203 54.918 56.0592 54.0915 55.1433 54.4377C54.2274 54.784 53.9035 56.172 54.4199 57.5378C54.9362 58.9037 56.0973 59.7302 57.0133 59.3839Z" fill="#FFB27B"/>
        <path d="M107.56 128.697C109.862 118.339 106.565 110.034 113.003 101.947L113.252 101.667C116.846 97.2538 121.961 94.3464 127.592 93.5174C125.184 90.268 123.459 86.5646 122.521 82.6307C124.291 83.2186 126.16 83.4472 128.019 83.303C129.877 83.1588 131.689 82.6447 133.346 81.7908L130.764 93.4241C136.171 93.3784 141.415 95.2771 145.539 98.7741C153.098 105.182 162.087 115.011 162.305 125.711C162.523 136.411 164.762 140.455 148.992 150.035C132.755 159.895 125.041 151.186 115.274 152.492C105.507 153.799 104.916 140.579 107.56 128.697Z" fill="#043A5B"/>
        <path d="M133.128 141.73H170.081L160.252 236.476C160.09 238.071 159.342 239.549 158.152 240.624C156.962 241.698 155.416 242.293 153.813 242.293H114.59C112.987 242.293 111.44 241.698 110.251 240.624C109.061 239.549 108.313 238.071 108.151 236.476L98.2906 141.73H133.128Z" fill="#DC4437"/>
        <path d="M97.6375 147.174H170.174C172.116 147.174 173.689 145.6 173.689 143.659V142.508C173.689 140.567 172.116 138.993 170.174 138.993H97.6375C95.6963 138.993 94.1226 140.567 94.1226 142.508V143.659C94.1226 145.6 95.6963 147.174 97.6375 147.174Z" fill="#C12925"/>
        <path opacity="0.2" d="M152.755 147.174L145.881 242.324H120.686L114.341 147.174H152.755Z" fill="white"/>
        <g opacity="0.6">
            <path opacity="0.6" d="M126.379 187.143L121.153 196.164C120.76 196.805 120.512 197.524 120.426 198.271C120.34 199.018 120.419 199.774 120.655 200.488L116.052 192.68C115.434 191.654 115.203 190.441 115.399 189.259C115.453 188.923 115.558 188.598 115.71 188.294C116.301 187.175 118.82 182.758 118.82 182.758L114.528 180.331L125.29 179.927L130.205 189.259L126.379 187.143Z" fill="white"/>
            <path opacity="0.6" d="M122.926 194.546H130.515V203.318H125.507C124.822 203.302 124.149 203.126 123.543 202.805C122.937 202.484 122.414 202.026 122.015 201.468C121.617 200.909 121.354 200.266 121.247 199.588C121.141 198.911 121.194 198.217 121.402 197.564L122.926 194.546Z" fill="white"/>
            <path opacity="0.6" d="M139.256 194.111L149.676 193.769C150.429 193.771 151.173 193.608 151.856 193.291C152.538 192.974 153.143 192.511 153.627 191.934L149.396 199.99C148.842 201.051 147.926 201.879 146.815 202.323C146.497 202.456 146.162 202.54 145.819 202.572C144.575 202.572 139.598 202.727 139.598 202.727L139.785 207.642L133.844 198.621L139.287 189.539L139.256 194.111Z" fill="white"/>
            <path opacity="0.6" d="M147.375 193.178L143.424 186.677L150.921 182.104L153.564 186.428C153.909 187.013 154.113 187.67 154.163 188.347C154.212 189.024 154.105 189.703 153.849 190.332C153.593 190.961 153.196 191.522 152.688 191.973C152.18 192.423 151.575 192.75 150.921 192.929L147.375 193.178Z" fill="white"/>
            <path opacity="0.6" d="M138.696 179.274L133.439 170.253C133.079 169.591 132.577 169.017 131.969 168.571C131.362 168.124 130.664 167.818 129.924 167.672L138.945 167.485C140.143 167.449 141.313 167.847 142.242 168.605C142.506 168.818 142.737 169.069 142.926 169.351C143.61 170.409 146.037 174.857 146.037 174.857L150.236 172.306L145.259 181.887L134.683 181.513L138.696 179.274Z" fill="white"/>
            <path opacity="0.6" d="M133.937 172.617L130.204 179.243L122.584 174.888L125.072 170.471C125.42 169.882 125.9 169.383 126.475 169.013C127.05 168.643 127.704 168.412 128.384 168.339C129.064 168.267 129.751 168.354 130.391 168.595C131.032 168.835 131.607 169.222 132.071 169.725L133.937 172.617Z" fill="white"/>
        </g>
        <path d="M237.392 124.809C238.671 131.614 239.12 138.549 238.73 145.463C237.796 154.359 237.734 185.899 237.734 185.899L241.125 236.6L232.757 236.787C232.757 236.787 222.959 186.21 223.146 187.548C223.333 188.885 219.818 151.933 219.818 151.933L231.793 123.689L237.392 124.809Z" fill="#282828"/>
        <path d="M234.22 117.219C234.22 117.219 244.515 128.044 240.69 139.895C239.165 144.654 224.826 190.036 224.639 193.738C224.453 197.439 219.787 238.467 219.787 238.467L210.02 238.156L207.905 192.556L210.673 131.123L216.583 120.765L234.22 117.219Z" fill="#353535"/>
        <path d="M171.792 81.9463C175.116 78.6347 178.694 75.5876 182.492 72.8326C184.4 71.1585 186.487 69.6982 188.713 68.4779C191.326 67.5758 195.805 65.1807 202.306 75.0099C206.909 82.0707 236.179 118.526 241.125 119.739L209.553 134.669C208.682 127.484 193.161 113.922 190.89 111.403C185.944 105.866 168.588 85.5234 171.792 81.9463Z" fill="#FFFBF3"/>
        <path d="M173.254 66.7049L183.021 72.4593C183.021 72.4593 183.301 80.8265 180.097 82.9728C177.422 84.808 175.369 80.4222 175.369 80.4222C173.589 77.8954 171.427 75.6603 168.961 73.7968C166.224 72.2105 173.254 66.7049 173.254 66.7049Z" fill="#FFB27B"/>
        <path d="M174.902 70.3753C174.4 72.5752 173.538 74.6771 172.352 76.5963C171.375 75.4685 170.244 74.4842 168.992 73.6724C167.717 72.957 168.526 71.3706 169.77 69.9087C171.512 68.0735 173.254 66.5804 173.254 66.5804L175.12 67.6691C175.188 68.577 175.115 69.49 174.902 70.3753Z" fill="#E5AC7A"/>
        <path d="M168.152 52.3344C168.308 52.1166 176.364 62.1324 175.369 66.8293C174.373 71.5261 169.521 75.8186 166.037 74.6366C162.553 73.4546 155.337 61.5414 157.825 55.9736C160.314 50.4058 168.152 52.3344 168.152 52.3344Z" fill="#FFB27B"/>
        <path d="M159.35 49.1616C161.409 48.1106 163.681 47.5421 165.993 47.499C168.305 47.4558 170.596 47.9393 172.694 48.9128C174.981 50.3154 176.712 52.4674 177.591 55.0026C178.47 57.5377 178.443 60.2991 177.515 62.8167C177.024 63.8493 176.801 64.989 176.866 66.1305C176.931 67.272 177.283 68.3788 177.888 69.3488L175.089 67.7313C174.194 66.3255 173.571 64.7638 173.254 63.1278C173.036 61.106 170.143 61.4481 168.65 60.5461C167.157 59.644 166.131 57.4356 164.327 56.3469C162.054 56.0318 159.74 56.2665 157.577 57.0312C153.782 59.2397 154.311 51.9611 159.35 49.1616Z" fill="#233862"/>
        <path d="M174.174 62.3762C174.199 60.8819 173.495 59.6586 172.601 59.6439C171.708 59.6293 170.964 60.8288 170.94 62.3232C170.915 63.8175 171.619 65.0408 172.513 65.0555C173.406 65.0701 174.15 63.8706 174.174 62.3762Z" fill="#FFB27B"/>
        <path d="M151.978 133.643C152.888 131.729 153.927 129.879 155.089 128.106C155.744 127.406 156.474 126.781 157.266 126.24C164.358 122.103 182.834 111.403 183.55 110.687C184.265 109.972 197.018 88.7583 197.018 88.7583L185.696 86.1766L174.622 105.742C173.689 106.488 156.115 119.459 156.115 119.459C156.115 119.459 152.631 122.196 150.703 123.472C149.842 123.963 148.936 124.369 147.997 124.685C146.808 125.119 145.671 125.682 144.606 126.364L142.678 128.168C142.118 128.697 141.465 129.288 141.216 129.599C140.917 129.856 140.582 130.065 140.22 130.221C140.099 130.27 139.995 130.353 139.922 130.462C139.849 130.57 139.81 130.697 139.81 130.828C139.81 130.958 139.849 131.086 139.922 131.194C139.995 131.302 140.099 131.386 140.22 131.434C140.819 131.485 141.418 131.343 141.931 131.03C143.206 130.439 144.762 128.822 144.855 129.008C144.948 129.195 143.362 132.679 143.206 133.083C142.412 134.822 141.727 136.609 141.153 138.433C141.153 139.335 141.589 139.553 141.993 139.211C142.398 138.868 145.104 133.55 145.104 133.55C145.104 133.55 145.477 132.865 145.633 133.27C145.788 133.674 143.144 138.557 142.895 139.491C142.647 140.424 142.895 140.953 143.58 140.673C144.264 140.393 147.095 134.669 147.095 134.669C147.095 134.669 147.406 133.985 147.654 134.234C147.903 134.483 145.57 138.589 145.539 139.055C145.52 139.181 145.54 139.31 145.597 139.425C145.654 139.539 145.744 139.633 145.856 139.694C145.969 139.756 146.097 139.781 146.224 139.767C146.351 139.752 146.47 139.699 146.566 139.615C147.722 137.959 148.702 136.187 149.49 134.327C149.49 134.327 149.77 134.016 149.832 134.327C149.894 134.638 148.183 138.215 148.339 138.744C148.346 138.801 148.365 138.857 148.395 138.907C148.424 138.957 148.463 139 148.509 139.035C148.556 139.07 148.608 139.095 148.665 139.109C148.721 139.123 148.779 139.126 148.836 139.117C149.738 138.993 150.92 135.198 151.978 133.643Z" fill="#FFB27B"/>
        <path d="M193.814 99.6762C193.814 99.6762 190.112 98.4942 187.748 97.4055C186.162 96.6901 179.257 93.2374 179.257 93.2374C180.59 87.4419 182.262 81.7295 184.265 76.1297C191.668 59.5507 200.066 70.9663 201.217 73.6413C203.799 79.6446 193.814 99.6762 193.814 99.6762Z" fill="#E6E6E6"/>
        <path opacity="0.6" d="M69.7051 117.468C70.033 116.79 70.1034 116.015 69.9032 115.288C69.7029 114.562 69.2457 113.933 68.6164 113.518C68.5136 113.448 68.4385 113.345 68.4044 113.225C68.3702 113.106 68.3792 112.978 68.4298 112.865L68.9897 111.558L67.6833 110.967L67.1234 112.274C67.0757 112.386 66.9909 112.478 66.8832 112.534C66.7756 112.591 66.6517 112.609 66.5324 112.585C65.8027 112.403 65.032 112.493 64.3629 112.836C63.6938 113.179 63.1717 113.753 62.8931 114.451C62.8454 114.568 62.8412 114.698 62.8811 114.818C62.921 114.938 63.0025 115.039 63.1109 115.104L61.1512 119.583C61.0122 119.564 60.8706 119.59 60.7473 119.657C60.624 119.724 60.5257 119.829 60.4669 119.957L57.6053 126.52C57.4923 126.773 57.4309 127.046 57.4246 127.322C57.4183 127.599 57.4673 127.875 57.5687 128.132C57.67 128.39 57.8217 128.625 58.0149 128.824C58.2082 129.022 58.439 129.18 58.6939 129.288L60.187 129.941L61.68 130.595C61.9329 130.707 62.2058 130.769 62.4827 130.775C62.7595 130.781 63.0349 130.733 63.2927 130.631C63.5504 130.53 63.7854 130.378 63.9838 130.185C64.1822 129.992 64.3402 129.761 64.4484 129.506L67.2789 123.005C67.3384 122.873 67.3523 122.725 67.3185 122.584C67.2847 122.443 67.2052 122.318 67.0923 122.227L69.0519 117.748C69.1761 117.791 69.3118 117.786 69.4326 117.734C69.5533 117.683 69.6505 117.588 69.7051 117.468Z" fill="#FFFBF3"/>
        <path d="M68.7718 112.367L67.2166 111.683C67.1959 111.662 67.1795 111.638 67.1682 111.612C67.157 111.585 67.1512 111.556 67.1512 111.527C67.1512 111.498 67.157 111.47 67.1682 111.443C67.1795 111.416 67.1959 111.392 67.2166 111.372L67.4032 110.905C67.4235 110.884 67.4477 110.868 67.4744 110.857C67.5011 110.846 67.5298 110.84 67.5588 110.84C67.5877 110.84 67.6164 110.846 67.6431 110.857C67.6698 110.868 67.694 110.884 67.7143 110.905L69.2695 111.589C69.2902 111.61 69.3067 111.634 69.3179 111.661C69.3291 111.687 69.3349 111.716 69.3349 111.745C69.3349 111.774 69.3291 111.803 69.3179 111.829C69.3067 111.856 69.2902 111.88 69.2695 111.9L69.0829 112.367C69.0626 112.388 69.0384 112.404 69.0117 112.415C68.985 112.427 68.9563 112.432 68.9274 112.432C68.8984 112.432 68.8697 112.427 68.843 112.415C68.8163 112.404 68.7921 112.388 68.7718 112.367Z" fill="#353535"/>
        <g style="mix-blend-mode:multiply" opacity="0.3">
            <path d="M67.0924 122.227L69.052 117.748L65.9415 116.442C65.9415 116.442 68.0566 117.717 67.8078 118.712C67.559 119.708 67.1857 122.414 63.9508 121.045C63.9508 121.045 66.5014 122.445 66.097 123.876C65.6926 125.307 63.9508 131.528 60.0938 129.91L61.5868 130.563C61.8397 130.676 62.1125 130.738 62.3894 130.744C62.6663 130.75 62.9417 130.701 63.1994 130.6C63.4572 130.499 63.6921 130.347 63.8906 130.154C64.089 129.961 64.2469 129.73 64.3551 129.475L67.1857 122.974C67.249 122.855 67.274 122.719 67.2573 122.586C67.2406 122.452 67.183 122.327 67.0924 122.227Z" fill="#CFE9FA"/>
        </g>
        <path d="M66.9367 124.28C66.9367 124 67.3411 123.658 67.2167 123.44C67.0849 123.33 66.9215 123.265 66.7501 123.254C66.5324 123.254 66.2524 123.72 66.128 123.751C66.0036 123.783 65.6303 123.969 65.4437 123.751C65.2571 123.534 64.1373 122.912 63.9506 122.725C63.764 122.538 63.0175 122.103 62.9242 121.978C62.8309 121.854 62.1466 121.076 62.3021 120.672C62.4576 120.268 63.5463 120.174 63.5463 120.174C63.5463 120.174 65.0393 120.361 65.4748 119.894C65.4748 119.894 65.7236 119.521 65.4748 119.272C65.331 119.244 65.1831 119.244 65.0393 119.272C64.7374 119.291 64.4361 119.227 64.1684 119.086C63.942 118.951 63.6851 118.876 63.4219 118.868C63.2041 118.868 62.271 119.086 61.991 119.086C61.7438 119.04 61.49 119.044 61.2444 119.098C60.9988 119.151 60.7662 119.253 60.5602 119.397C59.9695 119.759 59.3444 120.061 58.6939 120.299C58.0023 120.307 57.319 120.147 56.7032 119.832L54.7747 118.712L53.1572 117.655L52.1929 117.033C39.7509 108.945 39.7509 108.634 39.7509 108.479C40.6744 104.958 41.9999 101.556 43.7013 98.3387C41.6172 97.4677 37.8846 95.7881 36.1117 95.0104C34.0728 100.245 32.4503 105.633 31.2593 111.123C31.6325 113.082 55.9256 124 56.3299 124.249L57.4186 124.778L58.0096 125.369C58.3816 125.616 58.7776 125.824 59.1916 125.991C59.1916 125.991 61.1823 126.986 61.3689 126.986C61.9407 127.165 62.5223 127.31 63.1108 127.422C63.4155 127.317 63.7274 127.234 64.044 127.173C64.3598 127.194 64.6745 127.118 64.946 126.955C65.2259 126.738 65.6614 126.52 65.6925 126.24C65.9439 126.082 66.1831 125.905 66.4079 125.711C66.6064 125.513 66.7183 125.245 66.719 124.965C66.8692 124.769 66.9462 124.527 66.9367 124.28Z" fill="#FFB27B"/>
        <path d="M133.284 88.7894C133.563 88.1051 133.75 87.5141 133.128 87.3586C131.534 87.0928 129.922 86.9472 128.307 86.9231C127.685 86.9231 127.529 87.4208 127.747 87.6074C127.965 87.7941 131.511 88.6028 131.511 88.6028C131.511 88.6028 131.977 88.6028 131.697 88.8827C130.33 88.7537 128.97 88.5565 127.622 88.2917C127.094 88.2917 126.627 88.5406 126.783 88.9449C126.938 89.3493 130.608 90.0025 130.608 90.0025C130.608 90.0025 131.044 90.0025 130.888 90.2514C130.733 90.5002 127.965 89.7537 127.778 89.8159C127.591 89.8781 127.125 90.2514 127.374 90.5624C128.516 90.9879 129.707 91.27 130.92 91.4022C130.92 91.4022 131.137 91.4022 130.92 91.62C130.702 91.8377 128.307 91.3089 127.809 91.62C127.311 91.931 127.529 92.0243 127.529 92.0243C127.529 92.5842 130.391 93.0508 130.64 93.0819C131.355 93.0819 132.102 91.8999 132.381 91.1223L133.284 88.7894Z" fill="#F9C38A"/>
        <path d="M39.7818 24.553L38.4443 33.5734L26.4378 31.7693L21.3677 30.9917L22.7363 22.0023L32.1611 23.4021L39.7818 24.553Z" fill="#ED8CB2"/>
        <path d="M28.5659 27.8959L28.3651 27.8652L28.2267 28.7709C28.2085 28.8901 28.1686 28.9739 28.1073 29.0222C28.0459 29.0705 27.9727 29.0882 27.8878 29.0752C27.7964 29.0613 27.7301 29.0209 27.6889 28.9543C27.6478 28.8877 27.6359 28.7973 27.6533 28.6832L27.9849 26.5143C28.0038 26.3912 28.0451 26.3063 28.1088 26.2597C28.1726 26.213 28.2662 26.1991 28.3898 26.218L29.3222 26.3606C29.4509 26.3803 29.5601 26.4029 29.6497 26.4284C29.7395 26.4526 29.8185 26.487 29.8868 26.5315C29.9699 26.5823 30.0403 26.6475 30.0979 26.7271C30.1555 26.8068 30.1947 26.8954 30.2153 26.993C30.2374 27.0895 30.2406 27.1891 30.225 27.2916C30.1928 27.5018 30.1073 27.6606 29.9684 27.768C29.8308 27.8755 29.637 27.937 29.387 27.9526C29.4804 28.022 29.5655 28.1163 29.642 28.2356C29.7186 28.3549 29.7839 28.4796 29.8377 28.6099C29.893 28.739 29.9333 28.8547 29.9585 28.9569C29.9852 29.0581 29.9958 29.1266 29.9903 29.1625C29.9846 29.1997 29.9667 29.235 29.9365 29.2684C29.9079 29.3008 29.8714 29.3241 29.8271 29.3383C29.7826 29.3538 29.7333 29.3574 29.6792 29.3491C29.6149 29.3393 29.5632 29.3156 29.5241 29.2782C29.4849 29.242 29.4527 29.1984 29.4276 29.1473C29.4037 29.0965 29.3717 29.022 29.3313 28.924L29.1598 28.5082C29.0988 28.3559 29.0411 28.2381 28.9866 28.155C28.9334 28.0721 28.8754 28.0121 28.8126 27.975C28.7498 27.9378 28.6676 27.9115 28.5659 27.8959ZM29.0752 26.7616L28.5462 26.6808L28.4278 27.4557L28.9413 27.5342C29.079 27.5552 29.1966 27.5614 29.294 27.5527C29.3917 27.5427 29.4693 27.5132 29.5268 27.4643C29.5859 27.4143 29.623 27.3393 29.6383 27.2393C29.6503 27.1611 29.6408 27.0895 29.6099 27.0244C29.5792 26.9581 29.5307 26.9047 29.4645 26.8644C29.4019 26.826 29.2721 26.7917 29.0752 26.7616Z" fill="#B31A46"/>
        <path d="M31.1806 27.6955L31.1709 27.759C31.2886 27.6523 31.4052 27.579 31.5207 27.5389C31.6363 27.4976 31.7617 27.4872 31.8968 27.5079C32.059 27.5327 32.2019 27.5972 32.3256 27.7013C32.4493 27.8055 32.5381 27.9437 32.5921 28.116C32.6474 28.2884 32.6583 28.4842 32.6248 28.7034C32.6001 28.8649 32.5542 29.0101 32.4871 29.1389C32.4215 29.2666 32.3417 29.3705 32.2478 29.4506C32.1541 29.5294 32.0487 29.5855 31.9317 29.6187C31.8161 29.6509 31.6959 29.6575 31.5711 29.6384C31.4205 29.6154 31.2983 29.5658 31.2046 29.4899C31.1121 29.4141 31.0285 29.3108 30.9537 29.1799L30.8331 29.9683C30.7979 30.199 30.6959 30.3015 30.5273 30.2757C30.4282 30.2606 30.3672 30.2204 30.3442 30.1553C30.3211 30.0914 30.3182 30.0024 30.3357 29.8883L30.682 27.6232C30.6973 27.5232 30.7305 27.4522 30.7817 27.4102C30.8331 27.3669 30.8968 27.351 30.9727 27.3627C31.0474 27.3741 31.1039 27.409 31.1424 27.4673C31.1824 27.5246 31.1951 27.6007 31.1806 27.6955ZM32.0967 28.6168C32.1179 28.4783 32.1148 28.3565 32.0874 28.2513C32.0602 28.1448 32.0127 28.0595 31.9448 27.9953C31.8784 27.9301 31.7995 27.8905 31.7081 27.8765C31.5627 27.8543 31.431 27.8925 31.3132 27.9913C31.1967 28.0902 31.1214 28.2506 31.0875 28.4723C31.0556 28.6813 31.0803 28.8516 31.1615 28.9835C31.243 29.114 31.3571 29.1904 31.5038 29.2129C31.5913 29.2263 31.6762 29.2137 31.7585 29.1751C31.841 29.1352 31.9125 29.0681 31.973 28.9737C32.0335 28.8793 32.0748 28.7604 32.0967 28.6168Z" fill="#B31A46"/>
        <path d="M38.6622 25.4239L37.6047 32.4225L22.2699 30.1208L23.3897 23.1221L38.6622 25.4239ZM37.5114 31.6449L38.3201 26.3571C38.3332 26.2712 38.3291 26.1835 38.308 26.0992C38.2869 26.0149 38.2491 25.9357 38.197 25.8662C38.1448 25.7966 38.0793 25.7382 38.0043 25.6943C37.9293 25.6504 37.8463 25.6219 37.7602 25.6105L24.1362 23.5576C24.0503 23.5444 23.9626 23.5485 23.8783 23.5697C23.7941 23.5908 23.7148 23.6286 23.6453 23.6807C23.5758 23.7328 23.5174 23.7983 23.4735 23.8733C23.4296 23.9483 23.4011 24.0313 23.3897 24.1175L22.6121 29.3742C22.5989 29.4601 22.603 29.5478 22.6241 29.6321C22.6453 29.7164 22.683 29.7956 22.7352 29.8651C22.7873 29.9347 22.8528 29.9931 22.9278 30.037C23.0028 30.0809 23.0858 30.1093 23.1719 30.1208L36.7959 32.1737C36.8892 32.1872 36.9843 32.1803 37.0746 32.1535C37.165 32.1268 37.2485 32.0808 37.3194 32.0188C37.3903 31.9567 37.447 31.8801 37.4855 31.7941C37.524 31.708 37.5434 31.6147 37.5425 31.5205L37.5114 31.6449Z" fill="#B31A46"/>
        <g filter="url(#filter0_d)">
            <path d="M44.8833 25.5172L38.7867 32.267L29.7662 24.1486L25.9403 20.7271L32.068 13.9462L39.1599 20.3538L44.8833 25.5172Z" fill="#ED8CB2"/>
        </g>
        <path d="M43.4525 25.6106L38.7246 30.8673L27.2157 20.4782L31.9437 15.2215L43.4525 25.6106ZM39.1289 30.0897L42.706 26.1393C42.7681 26.0785 42.8174 26.0059 42.851 25.9258C42.8847 25.8457 42.9021 25.7597 42.9021 25.6728C42.9021 25.5859 42.8847 25.4998 42.851 25.4197C42.8174 25.3396 42.7681 25.267 42.706 25.2062L32.4724 15.8747C32.4116 15.8126 32.339 15.7633 32.2589 15.7296C32.1788 15.696 32.0928 15.6786 32.0059 15.6786C31.919 15.6786 31.8329 15.696 31.7528 15.7296C31.6727 15.7633 31.6001 15.8126 31.5393 15.8747L27.9933 19.825C27.9313 19.8858 27.8819 19.9584 27.8483 20.0386C27.8146 20.1187 27.7973 20.2047 27.7973 20.2916C27.7973 20.3785 27.8146 20.4645 27.8483 20.5446C27.8819 20.6248 27.9313 20.6974 27.9933 20.7582L38.2269 30.0897C38.2897 30.1498 38.364 30.1967 38.4452 30.2277C38.5264 30.2587 38.6131 30.2732 38.7 30.2703C38.7869 30.2674 38.8724 30.2472 38.9514 30.2108C39.0304 30.1745 39.1013 30.1227 39.16 30.0586L39.1289 30.0897Z" fill="#B31A46"/>
        <path d="M34.2186 22.007L34.0746 21.8789L33.4966 22.5285C33.4205 22.614 33.3456 22.6601 33.2717 22.6669C33.1979 22.6737 33.1305 22.65 33.0696 22.5958C33.004 22.5375 32.9721 22.4711 32.9737 22.3968C32.9753 22.3225 33.0126 22.2444 33.0854 22.1626L34.4695 20.6069C34.5481 20.5186 34.6248 20.4724 34.6996 20.4681C34.7745 20.4639 34.8563 20.5012 34.9449 20.5801L35.6137 21.1751C35.706 21.2573 35.7812 21.3316 35.8394 21.3982C35.8984 21.4639 35.9436 21.5321 35.9749 21.6028C36.0149 21.6861 36.0372 21.7744 36.042 21.8676C36.0467 21.9607 36.0321 22.0515 35.9981 22.1399C35.9659 22.2282 35.9171 22.3091 35.8516 22.3826C35.7175 22.5334 35.5674 22.6157 35.4013 22.6294C35.2362 22.644 35.0502 22.5929 34.8431 22.4762C34.8816 22.5797 34.9006 22.6987 34.9 22.8332C34.8994 22.9677 34.8869 23.1008 34.8625 23.2323C34.8398 23.3637 34.8121 23.4766 34.7794 23.571C34.7484 23.6653 34.7215 23.7254 34.6986 23.7511C34.6748 23.7778 34.6423 23.7966 34.6011 23.8077C34.5616 23.8186 34.5205 23.8183 34.4778 23.8068C34.4344 23.7961 34.3933 23.7735 34.3545 23.739C34.3084 23.698 34.2794 23.6524 34.2677 23.6025C34.2551 23.5534 34.252 23.502 34.2584 23.4484C34.2657 23.3956 34.2786 23.3198 34.2971 23.2209L34.3752 22.8012C34.4053 22.6484 34.4202 22.5249 34.4197 22.4306C34.4202 22.3371 34.405 22.2594 34.3742 22.1974C34.3434 22.1353 34.2915 22.0719 34.2186 22.007ZM35.2099 21.3669L34.8305 21.0293L34.3359 21.5851L34.7043 21.9128C34.803 22.0007 34.8935 22.0664 34.9756 22.1098C35.0585 22.1522 35.1355 22.1689 35.2066 22.1596C35.2794 22.1503 35.3477 22.1097 35.4115 22.038C35.4614 21.9819 35.4909 21.92 35.4999 21.8523C35.5097 21.7836 35.4987 21.7161 35.4667 21.6498C35.4367 21.5868 35.3511 21.4925 35.2099 21.3669Z" fill="#B31A46"/>
        <path d="M36.404 23.1978L36.3635 23.2433C36.5123 23.2192 36.643 23.221 36.7556 23.2487C36.869 23.2755 36.9742 23.332 37.0711 23.4183C37.1874 23.5217 37.2679 23.6469 37.3126 23.7937C37.3573 23.9405 37.3566 24.0965 37.3107 24.2615C37.2656 24.4274 37.1732 24.5889 37.0333 24.7461C36.9302 24.862 36.8187 24.9538 36.6988 25.0217C36.5806 25.0895 36.4634 25.1311 36.3472 25.1464C36.2319 25.1607 36.1191 25.1509 36.0087 25.117C35.9001 25.0829 35.801 25.026 35.7115 24.9464C35.6035 24.8503 35.5318 24.7478 35.4964 24.6389C35.4619 24.5308 35.4487 24.4053 35.4566 24.2625L34.9535 24.828C34.8063 24.9935 34.6722 25.0224 34.5513 24.9148C34.4802 24.8516 34.4523 24.7881 34.4677 24.7243C34.4822 24.6615 34.5259 24.5892 34.5987 24.5074L36.0443 22.8827C36.1081 22.811 36.1712 22.7716 36.2337 22.7646C36.297 22.7567 36.3559 22.7769 36.4103 22.8254C36.4639 22.873 36.4909 22.93 36.4914 22.9964C36.4936 23.0626 36.4645 23.1297 36.404 23.1978ZM36.6576 24.4044C36.7459 24.3051 36.8064 24.2065 36.8389 24.1086C36.8722 24.0098 36.8785 23.9173 36.8575 23.8312C36.8384 23.7449 36.796 23.6726 36.7305 23.6143C36.6261 23.5215 36.5016 23.484 36.3568 23.5017C36.2129 23.5203 36.0702 23.6092 35.9287 23.7682C35.7953 23.9181 35.727 24.0665 35.7236 24.2134C35.721 24.3594 35.7724 24.4792 35.8776 24.5728C35.9404 24.6287 36.0145 24.6625 36.0999 24.6743C36.1862 24.6851 36.2778 24.6686 36.3747 24.6247C36.4717 24.5808 36.566 24.5074 36.6576 24.4044Z" fill="#B31A46"/>
    </g>
    <defs>
        <filter id="filter0_d" x="21.9403" y="11.9462" width="26.9429" height="26.3208" filterUnits="userSpaceOnUse" color-interpolation-filters="sRGB">
            <feFlood flood-opacity="0" result="BackgroundImageFix"/>
            <feColorMatrix in="SourceAlpha" type="matrix" values="0 0 0 0 0 0 0 0 0 0 0 0 0 0 0 0 0 0 127 0"/>
            <feOffset dy="2"/>
            <feGaussianBlur stdDeviation="2"/>
            <feColorMatrix type="matrix" values="0 0 0 0 0 0 0 0 0 0 0 0 0 0 0 0 0 0 0.05 0"/>
            <feBlend mode="normal" in2="BackgroundImageFix" result="effect1_dropShadow"/>
            <feBlend mode="normal" in="SourceGraphic" in2="effect1_dropShadow" result="shape"/>
        </filter>
        <clipPath id="clip0">
            <rect width="270" height="270" fill="white"/>
        </clipPath>
    </defs>
</svg>
