<svg width="281" height="281" viewBox="0 0 281 281" fill="none" xmlns="http://www.w3.org/2000/svg">
    <path fill-rule="evenodd" clip-rule="evenodd" d="M191.249 209.991C194.432 210.176 197.475 211.363 199.943 213.382C202.411 215.401 204.177 218.148 204.99 221.231C207.7 218.559 211.355 217.064 215.162 217.072C218.603 217.067 221.935 218.276 224.572 220.486C227.209 222.696 228.982 225.767 229.577 229.155C230.607 228.631 231.746 228.358 232.901 228.359C234.057 228.36 235.195 228.635 236.224 229.162C237.252 229.688 238.141 230.451 238.817 231.388C239.494 232.325 239.938 233.409 240.115 234.551H144.069C144.069 233.185 144.338 231.833 144.86 230.572C145.383 229.31 146.148 228.164 147.114 227.199C148.079 226.233 149.226 225.468 150.487 224.945C151.748 224.423 153.1 224.154 154.466 224.154C155.875 224.167 157.268 224.453 158.568 224.997C159.143 222.873 160.208 220.913 161.678 219.276C163.149 217.639 164.983 216.37 167.034 215.572C169.084 214.773 171.294 214.468 173.484 214.68C175.674 214.892 177.784 215.615 179.643 216.791C180.855 214.778 182.552 213.1 184.579 211.912C186.607 210.724 188.9 210.064 191.249 209.991Z" fill="#FFD173"/>
    <path d="M271.305 259.197C271.305 274.764 7.39026 274.764 7.39026 259.197C7.39026 243.629 66.4003 231.097 139.46 231.097C212.52 231.097 271.305 243.658 271.305 259.197Z" fill="#439D8A"/>
    <path d="M41.8973 244.245C41.2149 244.915 40.3147 245.317 39.3606 245.379C38.4065 245.441 37.4619 245.158 36.6988 244.582C33.5516 240.648 32.7929 225.531 35.5467 221.203C36.2319 220.539 37.1313 220.14 38.0839 220.078C39.0364 220.016 39.9798 220.296 40.7452 220.866C43.9205 224.8 44.6511 239.918 41.8973 244.245Z" fill="#463E4C"/>
    <path d="M89.9199 244.47C89.1708 245.059 88.2368 245.362 87.2846 245.326C86.3323 245.29 85.4239 244.917 84.7214 244.273C81.9114 240.03 82.8668 224.912 86.0702 220.894C86.817 220.3 87.7522 219.993 88.706 220.029C89.6597 220.065 90.569 220.442 91.2687 221.091C94.0787 225.39 93.2076 240.508 89.9199 244.47Z" fill="#463E4C"/>
    <path d="M79.1017 242.896H49.4843C47.4916 242.896 45.5687 242.162 44.0816 240.836C42.5946 239.509 41.6471 237.682 41.4196 235.703L32.4838 157.81H94.7253L87.1102 235.562C86.916 237.558 85.9906 239.411 84.5121 240.765C83.0335 242.119 81.1064 242.878 79.1017 242.896Z" fill="#F15A24"/>
    <path d="M94.7253 157.81L87.1102 235.562C86.9145 237.572 85.9771 239.437 84.4808 240.793C82.9845 242.149 81.0367 242.899 79.0174 242.896H71.6552C72.8916 229.746 77.5562 174.613 69.1262 168.656C61.5392 163.289 41.1948 163.261 33.1301 163.458L32.4838 157.838L94.7253 157.81Z" fill="#DC4437"/>
    <path d="M44.9599 198.892C45.7395 197.032 46.631 195.221 47.6294 193.468L45.2409 191.586C45.7186 191.586 44.4541 191.586 53.6709 191.586C53.7334 191.579 53.7966 191.592 53.8518 191.622C53.907 191.652 53.9517 191.698 53.98 191.754C58.5322 200.184 57.8016 198.807 58.0826 199.398L55.6941 198.105C52.3783 203.528 52.4907 203.416 52.294 203.416C49.7088 203.416 46.674 203.416 45.2128 200.184C45.0118 199.785 44.9243 199.338 44.9599 198.892Z" fill="white"/>
    <path d="M61.3703 203.978V213.138C60.8926 213.138 55.5255 213.138 55.0478 213.138C54.1889 213.216 53.3247 213.067 52.5409 212.707C51.7572 212.348 51.0812 211.789 50.5799 211.087C47.3203 205.13 45.6343 202.32 45.5781 202.011C46.2279 202.659 47.0062 203.164 47.8628 203.493C48.7194 203.822 49.6354 203.968 50.5518 203.922C50.5518 203.922 61.0331 203.95 61.3703 203.978Z" fill="white"/>
    <path d="M71.0087 181.189C72.3133 182.725 73.5238 184.339 74.6336 186.022L77.4436 184.758C77.275 185.207 77.8089 184.055 73.7344 192.26C73.7106 192.322 73.6678 192.374 73.6121 192.409C73.5565 192.445 73.4911 192.461 73.4253 192.457C63.8151 192.682 65.4168 192.654 64.7424 192.654L66.9904 191.108C63.6746 185.685 63.7027 185.853 63.787 185.685C64.9391 183.381 66.3722 180.599 69.8847 180.823C70.2836 180.851 70.6696 180.977 71.0087 181.189Z" fill="white"/>
    <path d="M59.01 193.609L50.8329 189.45C51.0296 189.001 53.4743 184.224 53.6429 183.83C53.9565 183.001 54.487 182.272 55.1791 181.718C55.8712 181.164 56.6993 180.807 57.5769 180.683C64.2928 180.683 67.6648 180.402 67.8896 180.458C67.0217 180.747 66.2236 181.213 65.5462 181.828C64.8688 182.442 64.3271 183.191 63.9556 184.027C63.9556 184.027 59.1786 193.3 59.01 193.609Z" fill="#653870"/>
    <path d="M74.6336 213.167C72.6677 213.585 70.6784 213.886 68.6764 214.066C68.6764 214.993 68.6764 216.117 68.4797 217.101C68.1706 216.735 68.9293 217.775 63.6465 210.272C63.6077 210.219 63.5868 210.155 63.5868 210.09C63.5868 210.024 63.6077 209.96 63.6465 209.907C68.0301 201.477 67.2714 202.77 67.6086 202.179L67.9177 204.989C74.2683 204.652 74.0997 204.596 74.2121 204.765C75.7014 206.872 77.4436 209.457 75.589 212.436C75.3364 212.755 75.008 213.006 74.6336 213.167Z" fill="white"/>
    <path d="M69.4631 196.7L76.9939 191.502C77.303 191.867 80.3378 196.307 80.5907 196.7C81.169 197.369 81.5574 198.18 81.7155 199.05C81.8737 199.92 81.7958 200.816 81.4899 201.646C78.427 207.603 76.9658 210.75 76.8253 210.75C76.9866 209.848 76.9574 208.922 76.7396 208.031C76.5219 207.141 76.1204 206.306 75.5608 205.58C75.5608 205.58 69.6317 197.009 69.4631 196.7Z" fill="white"/>
    <path d="M92.477 153.763H33.9728C31.6449 153.763 29.7578 155.65 29.7578 157.978C29.7578 160.306 31.6449 162.193 33.9728 162.193H92.477C94.8049 162.193 96.692 160.306 96.692 157.978C96.692 155.65 94.8049 153.763 92.477 153.763Z" fill="#C12925"/>
    <path d="M123.415 244.245C122.73 244.91 121.83 245.309 120.878 245.37C119.925 245.432 118.982 245.153 118.217 244.582C115.069 240.648 114.311 225.531 117.064 221.203C117.75 220.539 118.649 220.14 119.602 220.078C120.554 220.016 121.498 220.296 122.263 220.866C125.438 224.8 126.169 239.918 123.415 244.245Z" fill="#463E4C"/>
    <path d="M171.41 244.47C170.661 245.059 169.727 245.362 168.775 245.326C167.822 245.29 166.914 244.917 166.211 244.273C163.401 240.03 164.357 224.912 167.56 220.894C168.307 220.3 169.242 219.993 170.196 220.029C171.15 220.065 172.059 220.442 172.759 221.091C175.597 225.39 174.726 240.508 171.41 244.47Z" fill="#463E4C"/>
    <path d="M160.619 242.896H131.002C129.009 242.896 127.087 242.162 125.599 240.836C124.112 239.509 123.165 237.682 122.937 235.703L114.002 157.81H176.243L168.6 235.562C168.406 237.553 167.485 239.402 166.012 240.756C164.54 242.109 162.619 242.871 160.619 242.896Z" fill="#55A02A"/>
    <path d="M176.243 157.81L168.6 235.562C168.404 237.572 167.467 239.437 165.971 240.793C164.474 242.149 162.526 242.899 160.507 242.896H153.173C154.409 229.746 159.074 174.613 150.644 168.656C143.057 163.289 122.713 163.261 114.648 163.458L114.002 157.838L176.243 157.81Z" fill="#43821A"/>
    <path d="M126.45 198.892C127.23 197.032 128.121 195.221 129.119 193.468L126.731 191.586C127.209 191.586 125.944 191.586 135.161 191.586C135.223 191.579 135.287 191.592 135.342 191.622C135.397 191.652 135.442 191.698 135.47 191.754C140.022 200.184 139.292 198.807 139.573 199.398L137.184 198.105C133.868 203.528 133.981 203.416 133.784 203.416C131.199 203.416 128.164 203.416 126.703 200.184C126.502 199.785 126.414 199.338 126.45 198.892Z" fill="#653870"/>
    <path d="M142.889 203.978V213.138C142.411 213.138 137.044 213.138 136.566 213.138C135.703 213.221 134.833 213.075 134.043 212.715C133.254 212.355 132.574 211.793 132.07 211.087C128.839 205.13 127.153 202.32 127.096 202.011C127.746 202.659 128.524 203.164 129.381 203.493C130.238 203.822 131.154 203.968 132.07 203.922C132.07 203.922 142.551 203.95 142.889 203.978Z" fill="white"/>
    <path d="M152.555 181.189C153.859 182.725 155.07 184.339 156.18 186.022L158.99 184.758C158.821 185.207 159.355 184.055 155.281 192.26C155.257 192.322 155.214 192.374 155.158 192.409C155.103 192.445 155.037 192.461 154.971 192.457C145.361 192.682 146.963 192.654 146.289 192.654L148.537 191.108C145.221 185.685 145.249 185.853 145.333 185.685C146.485 183.381 147.918 180.599 151.431 180.823C151.83 180.851 152.216 180.977 152.555 181.189Z" fill="white"/>
    <path d="M140.5 193.609L132.351 189.45C132.548 189.001 134.992 184.224 135.161 183.83C135.475 183.001 136.005 182.272 136.697 181.718C137.389 181.164 138.217 180.807 139.095 180.683C145.811 180.683 149.183 180.402 149.408 180.458C148.54 180.747 147.742 181.213 147.064 181.828C146.387 182.442 145.845 183.191 145.474 184.027C145.474 184.027 140.697 193.3 140.5 193.609Z" fill="white"/>
    <path d="M156.18 213.167C154.214 213.585 152.224 213.886 150.222 214.066C150.222 214.993 150.222 216.117 150.026 217.101C149.717 216.735 150.475 217.775 145.193 210.272C145.154 210.219 145.133 210.155 145.133 210.09C145.133 210.024 145.154 209.96 145.193 209.907C149.576 201.477 148.817 202.77 149.155 202.179L149.464 204.989C155.814 204.652 155.646 204.596 155.758 204.765C157.247 206.872 158.99 209.457 157.135 212.436C156.882 212.755 156.554 213.006 156.18 213.167Z" fill="white"/>
    <path d="M150.981 196.7L158.512 191.502C158.821 191.867 161.856 196.307 162.109 196.7C162.682 197.372 163.066 198.184 163.219 199.054C163.372 199.924 163.289 200.819 162.98 201.646C159.945 207.603 158.484 210.75 158.343 210.75C158.505 209.848 158.475 208.922 158.258 208.031C158.04 207.141 157.638 206.306 157.079 205.58C157.079 205.58 151.15 197.009 150.981 196.7Z" fill="white"/>
    <path d="M173.995 153.763H115.491C113.163 153.763 111.276 155.65 111.276 157.978C111.276 160.306 113.163 162.193 115.491 162.193H173.995C176.323 162.193 178.21 160.306 178.21 157.978C178.21 155.65 176.323 153.763 173.995 153.763Z" fill="#6AB23B"/>
    <path d="M195.857 244.245C195.175 244.915 194.274 245.317 193.32 245.379C192.366 245.441 191.422 245.158 190.658 244.582C187.511 240.648 186.753 225.531 189.506 221.203C190.192 220.539 191.091 220.14 192.044 220.078C192.996 220.016 193.94 220.296 194.705 220.866C197.88 224.8 198.611 239.918 195.857 244.245Z" fill="#463E4C"/>
    <path d="M243.964 244.47C243.228 245.044 242.315 245.344 241.382 245.319C240.448 245.293 239.553 244.943 238.85 244.33C236.04 240.086 236.995 224.969 240.199 220.95C240.948 220.361 241.882 220.058 242.834 220.094C243.786 220.13 244.695 220.503 245.397 221.147C248.039 225.39 247.28 240.508 243.964 244.47Z" fill="#463E4C"/>
    <path d="M233.061 242.896H203.444C201.451 242.896 199.528 242.162 198.041 240.836C196.554 239.509 195.607 237.682 195.379 235.703L186.443 157.81H248.685L241.154 235.562C240.958 237.572 240.021 239.437 238.525 240.793C237.028 242.149 235.081 242.899 233.061 242.896Z" fill="#F9B406"/>
    <path d="M248.685 157.81L241.154 235.562C240.958 237.572 240.021 239.437 238.525 240.793C237.028 242.149 235.081 242.899 233.061 242.896H225.615C226.851 229.746 231.516 174.613 223.086 168.656C215.499 163.289 195.154 163.261 187.09 163.458L186.443 157.838L248.685 157.81Z" fill="#BB8705"/>
    <path d="M198.836 198.892C199.606 197.033 200.488 195.222 201.477 193.468L199.089 191.586C199.566 191.586 198.302 191.586 207.519 191.586C207.581 191.579 207.644 191.592 207.699 191.622C207.755 191.652 207.799 191.698 207.828 191.754C212.38 200.184 211.649 198.807 211.93 199.398L209.542 198.105C206.226 203.528 206.338 203.416 206.142 203.416C203.556 203.416 200.522 203.416 199.06 200.184C198.869 199.782 198.791 199.335 198.836 198.892Z" fill="white"/>
    <path d="M215.33 203.978V213.138C214.853 213.138 209.485 213.138 209.008 213.138C208.128 213.233 207.239 213.09 206.434 212.725C205.628 212.359 204.935 211.784 204.428 211.059C201.28 205.13 199.51 202.32 199.51 202.011C200.16 202.659 200.938 203.164 201.795 203.493C202.651 203.822 203.567 203.968 204.484 203.922C204.484 203.922 214.993 203.95 215.33 203.978Z" fill="white"/>
    <path d="M224.969 181.189C226.273 182.725 227.484 184.339 228.594 186.022L231.404 184.758C231.235 185.207 231.769 184.055 227.694 192.26C227.671 192.322 227.628 192.374 227.572 192.409C227.517 192.445 227.451 192.461 227.385 192.457C217.775 192.682 219.377 192.654 218.702 192.654L220.95 191.108C217.635 185.685 217.663 185.853 217.747 185.685C218.899 183.381 220.332 180.599 223.845 180.823C224.244 180.85 224.63 180.976 224.969 181.189Z" fill="white"/>
    <path d="M212.942 193.609L204.765 189.45C204.933 189.001 207.406 184.224 207.575 183.83C207.888 183.001 208.419 182.272 209.111 181.718C209.803 181.164 210.631 180.807 211.509 180.683C218.225 180.683 221.597 180.402 221.821 180.458C220.954 180.747 220.155 181.213 219.478 181.828C218.801 182.442 218.259 183.191 217.887 184.027C217.887 184.027 213.138 193.3 212.942 193.609Z" fill="#653870"/>
    <path d="M228.593 213.167C226.628 213.585 224.638 213.886 222.636 214.066C222.636 214.993 222.496 216.117 222.44 217.101C222.13 216.735 222.889 217.775 217.606 210.272C217.568 210.219 217.547 210.155 217.547 210.09C217.547 210.024 217.568 209.96 217.606 209.907C221.99 201.477 221.231 202.77 221.568 202.179L221.878 204.989C228.228 204.652 228.06 204.596 228.172 204.765C229.661 206.872 231.403 209.457 229.549 212.436C229.296 212.755 228.968 213.006 228.593 213.167Z" fill="#653870"/>
    <path d="M223.423 196.7L230.954 191.502C231.263 191.867 234.298 196.307 234.551 196.7C235.129 197.369 235.517 198.18 235.675 199.05C235.834 199.92 235.756 200.816 235.45 201.646C232.387 207.603 230.926 210.75 230.785 210.75C230.947 209.848 230.917 208.922 230.7 208.031C230.482 207.141 230.08 206.306 229.521 205.58C229.521 205.58 223.592 197.009 223.423 196.7Z" fill="white"/>
    <path d="M246.437 153.763H187.933C185.605 153.763 183.718 155.65 183.718 157.978C183.718 160.306 185.605 162.193 187.933 162.193H246.437C248.765 162.193 250.652 160.306 250.652 157.978C250.652 155.65 248.765 153.763 246.437 153.763Z" fill="#FFDA88"/>
    <path d="M112.091 139.011C111.164 139.011 92.7581 138.168 92.7581 138.168L105.544 150.391L133.644 155.758L112.091 139.011Z" fill="#FB8834"/>
    <path d="M124.82 154.55C124.202 156.236 123.134 161.435 123.134 161.435L108.297 157.079C108.297 157.079 110.602 152.33 111.248 150.588C111.894 148.846 113.159 143.788 113.159 143.788L127.996 148.143C127.996 148.143 125.41 153.005 124.82 154.55Z" fill="#FAD16A"/>
    <path opacity="0.3" d="M124.82 154.55C124.202 156.236 123.134 161.435 123.134 161.435L112.653 158.484C112.653 158.484 114.957 153.735 115.603 151.993C116.25 150.251 117.514 145.193 117.514 145.193L127.967 148.256C127.967 148.256 125.41 153.004 124.82 154.55Z" fill="#F38D2E"/>
    <path d="M127.996 148.227L113.131 143.872L113.524 142.804L128.361 147.16L127.996 148.227Z" fill="#F38D2E"/>
    <path d="M122.741 162.615L107.876 158.259L108.269 157.191L123.134 161.547L122.741 162.615Z" fill="#F38D2E"/>
    <path d="M127.602 150.925L132.969 158.287C133.115 158.495 133.215 158.731 133.262 158.98C133.31 159.229 133.304 159.486 133.246 159.733C133.188 159.979 133.078 160.211 132.924 160.412C132.769 160.614 132.574 160.78 132.351 160.901L128.979 162.868C128.48 163.16 127.891 163.262 127.323 163.154C126.754 163.045 126.244 162.734 125.888 162.277L120.605 155C120.183 154.425 119.955 153.731 119.955 153.019C119.955 152.306 120.183 151.612 120.605 151.037C120.665 150.967 120.697 150.877 120.697 150.785C120.697 150.692 120.665 150.603 120.605 150.532L120.324 150.138L122.825 148.677L123.106 149.07V149.239C123.147 149.32 123.213 149.385 123.294 149.426C123.375 149.466 123.467 149.48 123.556 149.464C124.299 149.328 125.066 149.391 125.776 149.648C126.487 149.905 127.117 150.345 127.602 150.925Z" fill="#E9F1FD"/>
    <path d="M127.602 150.925L132.969 158.287C133.115 158.495 133.214 158.731 133.262 158.98C133.31 159.229 133.304 159.486 133.246 159.733C133.188 159.979 133.078 160.211 132.923 160.412C132.769 160.614 132.574 160.78 132.351 160.901L130.244 162.137C129.744 162.43 129.156 162.531 128.587 162.423C128.019 162.314 127.509 162.003 127.153 161.547L121.87 154.269C121.447 153.695 121.22 153.001 121.22 152.288C121.22 151.575 121.447 150.881 121.87 150.307C121.885 150.242 121.885 150.175 121.87 150.11C121.892 150.062 121.904 150.009 121.904 149.956C121.904 149.902 121.892 149.849 121.87 149.801L121.589 149.408L122.853 148.677L123.134 149.07V149.239C123.175 149.32 123.241 149.385 123.322 149.426C123.403 149.466 123.495 149.48 123.584 149.464C124.323 149.333 125.084 149.399 125.789 149.655C126.494 149.912 127.12 150.35 127.602 150.925Z" fill="#E3EAF5"/>
    <path opacity="0.3" d="M126.225 151.74L131.592 159.102C131.738 159.31 131.838 159.546 131.885 159.795C131.933 160.044 131.927 160.301 131.869 160.547C131.811 160.794 131.701 161.026 131.547 161.227C131.392 161.429 131.197 161.595 130.974 161.716L130.244 162.137C129.744 162.43 129.156 162.531 128.587 162.423C128.019 162.314 127.509 162.003 127.153 161.547L121.87 154.269C121.447 153.695 121.22 153.001 121.22 152.288C121.22 151.575 121.447 150.881 121.87 150.307C121.885 150.242 121.885 150.175 121.87 150.11H122.066C122.843 149.972 123.642 150.05 124.376 150.338C125.11 150.626 125.75 151.111 126.225 151.74Z" fill="#CCD4EA"/>
    <path d="M131.227 155.899L124.202 159.973L121.083 155.674L128.08 151.571L131.227 155.899Z" fill="#EF6522"/>
    <path d="M122.376 147.862L119.594 149.492L120.043 150.082L122.825 148.452L122.376 147.862Z" fill="#FAD16A"/>
    <path d="M109.14 147.806L111.136 156.433C111.184 156.688 111.179 156.951 111.122 157.204C111.065 157.458 110.957 157.697 110.805 157.908C110.652 158.118 110.458 158.295 110.235 158.428C110.012 158.561 109.763 158.647 109.506 158.681L105.572 159.411C105.018 159.535 104.437 159.444 103.947 159.157C103.458 158.871 103.094 158.409 102.93 157.866L100.963 149.436C100.821 148.729 100.901 147.995 101.193 147.336C101.485 146.677 101.974 146.124 102.593 145.755C102.673 145.708 102.734 145.634 102.765 145.547C102.795 145.459 102.794 145.364 102.762 145.277V145.108V144.659L105.572 144.125V144.574C105.576 144.631 105.576 144.687 105.572 144.743C105.577 144.826 105.611 144.905 105.667 144.966C105.723 145.027 105.799 145.068 105.881 145.08C106.63 145.168 107.338 145.473 107.917 145.957C108.496 146.441 108.921 147.084 109.14 147.806Z" fill="#E9F1FD"/>
    <path d="M109.14 147.806L111.136 156.433C111.184 156.688 111.179 156.951 111.122 157.204C111.065 157.458 110.957 157.697 110.805 157.908C110.652 158.118 110.458 158.295 110.235 158.428C110.012 158.561 109.763 158.647 109.506 158.681L107.033 159.13C106.479 159.254 105.899 159.163 105.409 158.876C104.919 158.59 104.555 158.128 104.392 157.585L102.425 149.155C102.249 148.44 102.303 147.688 102.581 147.007C102.859 146.325 103.345 145.749 103.97 145.361L104.111 145.221C104.138 145.169 104.152 145.111 104.152 145.052C104.152 144.994 104.138 144.936 104.111 144.884V144.715V144.265L105.572 143.984V144.434C105.576 144.49 105.576 144.546 105.572 144.603C105.577 144.686 105.611 144.764 105.667 144.826C105.723 144.887 105.799 144.927 105.881 144.94C106.648 145.038 107.368 145.363 107.949 145.874C108.53 146.385 108.945 147.058 109.14 147.806Z" fill="#E3EAF5"/>
    <path opacity="0.3" d="M107.511 148.115L109.59 156.714C109.638 156.969 109.633 157.232 109.577 157.485C109.52 157.739 109.412 157.978 109.259 158.189C109.107 158.399 108.913 158.576 108.689 158.709C108.466 158.842 108.218 158.928 107.96 158.962L107.117 159.13C106.563 159.254 105.983 159.163 105.493 158.876C105.003 158.59 104.64 158.128 104.476 157.585L102.509 149.155C102.325 148.449 102.367 147.703 102.629 147.023C102.891 146.342 103.36 145.761 103.97 145.361L104.11 145.221H104.279C105.045 145.326 105.762 145.658 106.337 146.174C106.913 146.689 107.322 147.366 107.511 148.115Z" fill="#CCD4EA"/>
    <path d="M110.489 153.595L102.284 155.112L101.132 150.082L109.309 148.537L110.489 153.595Z" fill="#FAD16A"/>
    <path d="M105.516 143.254L102.256 143.872L102.425 144.546L105.684 143.956L105.516 143.254Z" fill="#FAD16A"/>
    <path d="M143.31 204.652L140.135 222.721L139.207 227.947L137.381 238.4H112.653L105.206 234.27C98.0129 230.223 88.0936 224.575 87.082 223.564C85.7246 220.003 84.7817 216.297 84.272 212.52C82.7265 204.652 81.2372 195.492 81.2372 195.492L90.2573 180.374L82.4736 163.654L92.7301 138.168L105.516 150.391L133.616 155.73L143.31 204.652Z" fill="#FFA347"/>
    <path d="M140.022 222.721L137.212 238.372H112.625L105.178 234.242L103.127 228.846L126.815 219.18H129.625L140.022 222.721Z" fill="#FF9841"/>
    <path d="M143.31 204.652L140.135 222.721L139.207 227.947C137.55 227.217 126.45 221.99 126.872 219.18C127.293 216.37 143.31 204.652 143.31 204.652Z" fill="#FB8834"/>
    <path d="M87.11 223.564C87.11 223.564 102.087 227.61 103.183 228.874C104.279 230.139 107.398 235.45 107.398 235.45L87.11 223.564Z" fill="#FB8834"/>
    <path d="M103.773 215.583L103.155 228.875L126.871 219.208L143.226 204.652L128.248 186.921L121.083 203.978L103.773 215.583Z" fill="#FF9841"/>
    <path d="M106.583 201.308C106.583 201.308 118.442 198.217 119.537 196.841C120.633 195.464 128.277 186.921 128.277 186.921C128.277 186.921 126.253 200.775 124.848 202.432C123.443 204.09 106.583 201.308 106.583 201.308Z" fill="#FB8834"/>
    <path d="M96.8608 191.277L84.3001 212.52C82.7546 204.652 81.2653 195.492 81.2653 195.492L88.4308 187.933L96.8608 191.277Z" fill="#FF9841"/>
    <path d="M96.8607 191.277C96.8607 191.277 90.0043 188.86 81.1809 195.492L90.201 180.374L96.8607 191.277Z" fill="#FB8834"/>
    <path d="M82.4172 163.654L103.296 168.544L112.035 180.486L82.4172 163.654Z" fill="#FB8834"/>
    <path d="M69.0418 61.1175C69.0418 60.6398 68.6484 55.4975 60.7523 55.1884C60.7523 55.1884 64.6301 55.638 65.3045 57.3521C65.3045 57.3521 62.6631 55.2446 60.4994 55.919C58.3357 56.5934 57.0712 60.3588 57.0712 61.539C57.0712 62.7192 58.2514 66.7656 59.6283 67.159C60.1753 67.2703 60.7391 67.2703 61.2862 67.159C60.8939 67.7652 60.5373 68.3939 60.2184 69.0417C57.0712 75.5047 60.2184 81.8272 63.0284 81.1247C64.7425 80.6751 65.2202 83.5975 65.2202 83.5975L81.7992 70.25C81.7992 70.25 75.7015 57.5769 69.0418 61.1175Z" fill="#1F3765"/>
    <path d="M74.8304 252.029L72.0204 253.546C72.0204 253.546 56.0877 231.6 54.205 212.886C53.8323 209.695 54.0033 206.465 54.7108 203.332L54.2893 200.971L53.8397 198.442L51.8727 187.202C49.9619 177.03 47.7701 163.907 45.8312 154.297L59.1787 143.928L66.85 141.905C66.85 141.905 68.5641 145.249 70.0815 161.069C70.3625 163.149 70.6154 165.425 70.8121 167.897C71.5151 177.124 71.2703 186.399 70.0815 195.576C69.7255 198.33 69.2759 201.14 68.7327 204.006C68.3257 206.797 68.2315 209.624 68.4517 212.436C69.6735 225.764 71.8047 238.992 74.8304 252.029Z" fill="#0D458D"/>
    <path d="M70.8121 167.898L54.1769 200.971L53.7273 198.442L51.7603 187.202C49.9619 177.03 47.7701 163.907 45.8312 154.297L59.1787 143.928L66.85 141.905C66.85 141.905 68.5641 145.249 70.0815 161.069C70.2501 163.149 70.6154 165.425 70.8121 167.898Z" fill="#0C3563"/>
    <path d="M63.506 146.12L63.1126 142.832C56.6495 144.546 39.4242 138.055 39.4242 138.055C39.4242 138.055 33.186 143.675 34.0009 156.714C34.3943 163.149 35.1249 190.434 35.8836 198.526C36.1646 201.336 36.3894 203.528 36.5018 204.371C36.5141 204.621 36.4451 204.867 36.3051 205.074C35.199 206.965 34.2588 208.949 33.4951 211.003C25.9924 230.982 34.1695 253.799 34.1695 253.799L36.8109 254.502C36.8109 254.502 41.8127 227.301 45.8029 215.162C46.2995 213.58 46.9587 212.055 47.7699 210.609C49.9289 206.559 51.5445 202.241 52.575 197.768C55.3569 187.427 63.506 146.12 63.506 146.12Z" fill="#0D458D"/>
    <path d="M32.8488 257.424H35.2654C36.0803 257.424 36.6704 257.059 37.5134 256.946C37.8558 256.867 38.2121 256.868 38.5537 256.951C38.8953 257.034 39.2127 257.196 39.4804 257.424H49.765C50.0179 257.059 49.765 256.188 49.5402 255.569C49.4584 255.361 49.3297 255.174 49.1641 255.023C48.9984 254.871 48.8002 254.761 48.5848 254.698C46.6726 254.371 44.8799 253.548 43.3863 252.31C42.2904 251.298 38.0473 248.629 38.0473 248.629C38.0473 248.629 37.5134 248.629 35.5745 250.399C34.591 251.242 32.7645 249.219 32.7645 249.219C32.5291 249.432 32.3381 249.69 32.2025 249.978C31.9623 250.465 31.8835 251.016 31.9777 251.551C31.9809 252.86 31.7329 254.157 31.2471 255.373C30.9942 256.075 30.7975 256.581 30.7975 256.581C30.7975 256.581 30.9099 257.171 32.8488 257.424Z" fill="#D24B3F"/>
    <path d="M32.2869 250.09C33.0647 250.695 33.9521 251.143 34.9002 251.411C35.9961 251.551 38.0193 248.769 38.0193 248.769C38.0193 248.769 37.4854 248.769 35.5465 250.54C34.563 251.383 32.7365 249.359 32.7365 249.359C32.5442 249.574 32.392 249.822 32.2869 250.09Z" fill="#C43C36"/>
    <path d="M32.8489 257.424H35.2655C36.0804 257.424 36.6705 257.059 37.5135 256.946C37.8559 256.867 38.2122 256.868 38.5538 256.951C38.8955 257.034 39.2129 257.196 39.4805 257.424H49.7651C50.018 257.059 49.7651 256.188 49.5403 255.57C49.3155 254.951 49.1469 256.778 48.9783 257.003C46.0266 257.204 43.0622 257.12 40.1268 256.75C39.5468 256.411 38.9038 256.194 38.2371 256.112C37.5704 256.03 36.894 256.084 36.249 256.272C34.5653 256.411 32.8754 256.091 31.3596 255.345C31.1067 256.047 30.91 256.553 30.91 256.553C30.91 256.553 30.91 257.171 32.8489 257.424Z" fill="#C43C36"/>
    <path d="M69.0136 257.424H71.4302C72.2451 257.424 72.8352 257.059 73.6782 256.946C74.0206 256.867 74.3769 256.868 74.7185 256.951C75.0601 257.034 75.3775 257.196 75.6452 257.424H85.9298C86.1827 257.059 85.9298 256.188 85.705 255.569C85.6232 255.361 85.4945 255.174 85.3289 255.023C85.1632 254.871 84.965 254.761 84.7496 254.698C82.8374 254.371 81.0447 253.548 79.5511 252.31C78.4552 251.298 74.2121 248.629 74.2121 248.629C74.2121 248.629 73.6782 248.629 71.7393 250.399C70.7558 251.242 68.9293 249.219 68.9293 249.219C68.6939 249.432 68.5029 249.69 68.3673 249.978C68.1271 250.465 68.0483 251.016 68.1425 251.551C68.1553 252.858 67.9169 254.156 67.44 255.373C67.1871 256.075 66.9904 256.581 66.9904 256.581C66.9904 256.581 66.9342 257.171 69.0136 257.424Z" fill="#D24B3F"/>
    <path d="M68.4515 250.09C69.2294 250.695 70.1168 251.143 71.0648 251.411C72.1607 251.551 74.1839 248.769 74.1839 248.769C74.1839 248.769 73.65 248.769 71.7111 250.54C70.7276 251.383 68.9011 249.359 68.9011 249.359C68.7089 249.574 68.5566 249.822 68.4515 250.09Z" fill="#C43C36"/>
    <path d="M69.0136 257.424H71.4302C72.2451 257.424 72.8352 257.059 73.6782 256.946C74.0206 256.867 74.3769 256.868 74.7185 256.951C75.0601 257.034 75.3775 257.196 75.6452 257.424H85.9298C86.1827 257.059 85.9298 256.188 85.705 255.57C85.4802 254.951 85.3116 256.778 85.143 257.003C82.1912 257.204 79.2269 257.12 76.2915 256.75C75.7114 256.411 75.0685 256.194 74.4018 256.112C73.735 256.03 73.0586 256.084 72.4137 256.272C70.7046 256.436 68.9836 256.124 67.44 255.373C67.1871 256.075 66.9904 256.581 66.9904 256.581C66.9904 256.581 66.9342 257.171 69.0136 257.424Z" fill="#C43C36"/>
    <path d="M115.435 135.779C114.62 134.964 109.815 135.161 109.815 135.161C109.815 135.161 107.005 134.093 103.858 132.66C99.7691 131.05 95.8834 128.966 92.2804 126.45C89.4704 123.218 85.8736 112.4 82.5859 105.235L81.7148 103.324C81.7244 103.258 81.7244 103.192 81.7148 103.127L81.2933 102.34C80.8074 101.323 80.1833 100.377 79.4387 99.5302C78.7081 98.7434 78.0337 98.4343 77.3874 98.7153C76.4201 99.2771 75.5631 100.01 74.8584 100.879C74.7154 101.01 74.5924 101.162 74.4931 101.329C73.5815 102.506 72.9129 103.853 72.5261 105.291C72.0848 106.681 71.8667 108.132 71.8798 109.59C72.2957 113.026 73.4664 116.326 75.308 119.256C75.3912 119.422 75.4851 119.581 75.589 119.734C78.834 125.642 83.2517 130.825 88.5712 134.964C92.6928 136.616 97.0619 137.566 101.497 137.774C104.729 138.111 107.595 138.28 108.747 138.364C109.253 138.926 112.934 143.141 114.367 141.905C115.063 141.065 115.527 140.058 115.714 138.984C115.902 137.91 115.805 136.805 115.435 135.779Z" fill="#FF985B"/>
    <path d="M75.87 106.106C73.531 107.154 71.0129 107.746 68.4516 107.848C57.3521 108.466 54.8512 98.7434 54.4016 92.2804C55.6194 91.8602 56.9112 91.6975 58.1951 91.8027C58.9819 91.8027 59.7968 91.8027 60.4712 91.9994C61.82 91.2969 64.2647 87.8406 65.6697 82.0801L66.1474 82.3049L74.1559 86.0703C74.1559 86.0703 73.3129 88.6836 72.6666 91.1564C72.1499 92.5564 71.9484 94.0532 72.0765 95.54L73.0881 95.9615C74.3379 99.246 75.2695 102.643 75.87 106.106Z" fill="#FFB27B"/>
    <path d="M78.6799 113.384L78.3989 114.03C75.5046 120.099 70.2499 145.137 70.2499 145.137C69.1259 149.633 36.5299 144.265 36.3051 140.163C35.0968 135.807 40.6325 128.923 43.7516 125.326C44.1386 124.889 44.4865 124.419 44.7913 123.921C45.563 122.667 46.0432 121.255 46.1963 119.79C46.5857 115.005 46.7264 110.203 46.6178 105.403C46.6178 105.403 46.6178 105.403 46.6178 105.206L48.36 103.942C49.1231 103.416 49.8378 102.824 50.4956 102.172C51.0656 101.641 51.4248 100.923 51.5072 100.148C51.5516 99.5873 51.5516 99.0235 51.5072 98.4624C51.5072 98.1814 51.5072 97.9285 51.5072 97.6475C51.1952 95.7996 50.6573 93.9971 49.9055 92.2804C52.5995 91.5693 55.4089 91.4068 58.1669 91.8027C58.1669 91.8027 58.1669 92.0837 58.1669 92.5895C58.0132 95.2188 58.2212 97.8567 58.7851 100.429C59.5719 101.61 73.7343 106.724 74.493 105.122C75.2517 103.52 73.0599 96.2425 73.0599 95.9615C75.3772 96.7465 77.5507 97.9044 79.4948 99.3897C76.6567 101.16 80.8155 107.511 78.6799 113.384Z" fill="#439C89"/>
    <path d="M74.0997 86.0984C74.0997 86.0984 73.2567 88.7117 72.6104 91.1845C67.9458 89.8919 66.5127 84.9744 66.0912 82.333L74.0997 86.0984Z" fill="#FF985B"/>
    <path d="M75.0833 88.8522C75.0833 88.8522 63.8433 86.267 65.6136 79.3263C67.3839 72.3856 67.0467 67.3838 74.2684 68.7326C81.4901 70.0814 82.2207 73.0881 82.1926 75.5328C82.1645 77.9775 78.0338 89.3299 75.0833 88.8522Z" fill="#FFB27B"/>
    <path d="M82.8388 71.5707C81.6305 69.0417 80.2255 69.1822 79.3263 69.6318C77.9822 68.2618 76.1923 67.418 74.2802 67.2531C72.368 67.0882 70.46 67.613 68.9012 68.7326C67.6488 71.6426 65.4237 74.0267 62.6068 75.4766C64.5421 76.8667 66.9293 77.4785 69.2946 77.1907C70.9084 77.0786 72.453 76.4921 73.7344 75.5047C71.9938 77.2161 70.0273 78.6815 67.8896 79.8602C74.1278 78.68 78.3147 71.4302 78.7362 70.6715C79.5744 71.8089 80.1327 73.1277 80.366 74.5212C80.366 76.432 79.8321 80.1412 80.928 80.1412C80.9561 80.3098 84.6372 75.3642 82.8388 71.5707Z" fill="#1F3765"/>
    <path d="M79.5229 99.3897C79.5229 99.3897 82.3329 104.082 82.6139 105.291C81.6431 105.256 80.6798 105.473 79.818 105.921C78.9561 106.369 78.2251 107.033 77.6964 107.848C77.6964 107.848 77.3873 100.008 79.5229 99.3897Z" fill="#438989"/>
    <path d="M61.005 136.735C54.1767 136.735 48.4162 129.569 44.8756 123.921C45.6473 122.667 46.1275 121.255 46.2806 119.79C46.67 115.005 46.8107 110.203 46.7021 105.403C46.7021 105.403 46.7021 105.403 46.7021 105.206L48.4443 103.942C49.2073 103.416 49.922 102.824 50.5799 102.172C56.1999 111.613 70.2499 136.819 61.005 136.735Z" fill="#438989"/>
    <path d="M99.0525 142.046C99.0525 142.046 94.6127 138.87 91.9713 139.488C89.1389 139.682 86.2936 139.426 83.5413 138.73L79.4668 136.454C75.8334 134.446 72.3068 132.252 68.9012 129.878C67.6438 129.091 66.5316 128.093 65.6135 126.928C64.7322 125.255 63.9806 123.517 63.3655 121.729C62.944 120.549 62.4944 119.284 62.0448 117.908C61.2299 115.66 60.4431 113.243 59.6282 110.798C58.1389 106.387 56.5372 101.919 55.0198 98.4905C53.4736 97.9686 51.8168 97.8652 50.2177 98.191C48.6186 98.5167 47.1342 99.2599 45.9154 100.345C45.9154 100.598 45.9154 100.823 45.9154 101.104C45.8884 101.553 45.8884 102.003 45.9154 102.453C46.0211 104.081 46.2655 105.698 46.646 107.286C47.4102 110.736 48.4245 114.127 49.6808 117.43C50.0461 118.385 50.4395 119.369 50.8329 120.24C53.6429 127.405 57.4364 134.065 60.5555 136.341L60.9208 136.594C62.6471 137.591 64.4745 138.401 66.3722 139.011C69.5194 140.079 73.2567 141.034 76.6006 141.821L81.8272 142.945L82.6983 143.141C85.0917 143.716 87.4473 144.439 89.7514 145.305C93.6011 146.823 95.9896 144.322 97.7037 143.591C99.4178 142.86 99.0525 142.046 99.0525 142.046Z" fill="#FFB27B"/>
    <path d="M55.076 98.35C53.4628 97.9985 51.7879 98.0505 50.1997 98.5014C48.6115 98.9524 47.1592 99.7884 45.9716 100.935C45.9716 93.2077 49.8775 92.1399 49.8775 92.1399C51.423 91.6622 53.2214 94.3317 55.076 98.35Z" fill="#438989"/>
    <path d="M98.0127 143.816C96.2986 144.546 93.9101 147.047 90.0604 145.53C87.7483 144.644 85.3833 143.902 82.9792 143.31H82.08L76.8534 142.186C78.1053 140.488 79.0558 138.587 79.6634 136.566L83.7379 138.842C86.4903 139.538 89.3355 139.794 92.1679 139.601C94.8093 138.983 99.2491 142.158 99.2491 142.158C99.2491 142.158 99.6987 143.141 98.0127 143.816Z" fill="#FFB27B"/>
    <path d="M114.142 141.933C112.765 143.169 109.084 138.954 108.522 138.392C107.342 138.392 104.504 138.14 101.272 137.802C102.203 136.164 103.002 134.454 103.661 132.688C106.949 134.121 109.618 135.189 109.618 135.189C109.618 135.189 114.451 134.992 115.238 135.807C115.605 136.835 115.697 137.941 115.504 139.016C115.312 140.09 114.843 141.096 114.142 141.933Z" fill="#FF985B"/>
    <path d="M253.293 243.796C253.293 243.796 256.469 247.083 255.85 249.416C255.232 251.748 252.366 253.322 251.973 256.16C251.579 258.998 250.034 260.571 248.657 260.571H242.025C242.025 260.571 240.986 258.548 243.486 257.958C245.987 257.368 246.887 253.996 246.746 250.877C246.679 248.449 246.754 246.018 246.971 243.599L252.226 242.222L253.293 243.796Z" fill="#0C3563"/>
    <path d="M214.375 252.282C214.375 252.282 214.937 259.756 213.56 260.543H195.717C195.79 259.823 196.11 259.15 196.622 258.639C197.134 258.127 197.806 257.807 198.527 257.733C201.337 257.227 206.423 255.317 207.266 251.073C208.109 246.83 214.375 252.282 214.375 252.282Z" fill="#0C3563"/>
    <path d="M199.313 146.598C199.313 146.598 200.241 159.72 201.365 175.484C202.854 196.897 204.68 223.254 204.849 228.2C205.158 236.855 206.395 250.68 206.395 250.68C207.568 251.746 209.001 252.483 210.55 252.819C212.099 253.154 213.709 253.076 215.218 252.591C218.591 239.237 220.856 225.628 221.99 211.902V210.75C223.395 189.478 225.559 144.631 225.559 144.631L199.313 146.598Z" fill="#0D458D"/>
    <path d="M199.313 146.598C199.313 146.598 200.241 159.72 201.365 175.484L221.962 212.014L221.99 210.75C223.395 189.478 225.559 144.631 225.559 144.631L199.313 146.598Z" fill="#0C3563"/>
    <path d="M203.613 148.143C203.613 148.143 220.473 195.632 231.713 217.972C242.952 240.311 246.353 246.521 246.353 246.521C246.353 246.521 252.731 243.711 253.321 241.716C253.321 241.716 249.05 198.611 241.604 188.101C237.389 182.172 232.443 164.357 232.19 158.119C231.937 151.881 230.673 139.573 230.673 139.573L203.613 148.143Z" fill="#0D458D"/>
    <path d="M225.924 74.9427C225.924 74.9427 214.459 81.2371 207.94 78.9048C209.162 77.2798 210.677 75.8979 212.408 74.8303C212.183 73.3129 212.014 72.0203 211.902 70.8963C211.621 68.3392 211.621 66.878 211.621 66.878L216.033 62.9159L220.22 59.1224C219.979 62.0144 220.363 64.9243 221.348 67.6543C222.332 70.3842 223.893 72.8701 225.924 74.9427Z" fill="#FFB27B"/>
    <path d="M231.965 142.017C231.965 142.804 230.504 143.731 229.83 144.069C225.267 146.52 220.297 148.119 215.162 148.789C209.857 148.958 204.547 148.695 199.285 148.003C199.028 147.992 198.786 147.881 198.611 147.694C198.442 147.553 198.302 139.264 198.442 128.614C198.442 128.192 198.442 127.771 198.442 127.321V127.181C198.442 123.05 198.611 118.751 198.807 114.423C198.93 106.476 199.644 98.5484 200.943 90.7068C202.069 85.851 204.554 81.4162 208.108 77.9213L210.385 75.6452C212.79 76.2359 215.33 75.8946 217.494 74.6898C220.135 73.2286 223.114 71.5426 223.507 71.8798C226.964 74.6898 229.127 81.3214 230.504 89.5828C231.245 94.7569 231.592 99.9797 231.544 105.206C231.544 107.258 231.544 109.365 231.403 111.445C230.992 120.342 231.114 129.257 231.769 138.14C231.853 139.826 231.937 141.09 231.965 142.017Z" fill="#FFD075"/>
    <path d="M231.769 138.168C176.215 138.168 221.512 91.8589 221.512 91.8589L230.504 89.6109C231.245 94.785 231.593 100.008 231.544 105.235C231.544 107.286 231.544 109.393 231.404 111.473C230.992 120.37 231.114 129.285 231.769 138.168Z" fill="#FFBE75"/>
    <path d="M207.041 107.763L206.872 112.4L206.703 116.784L206.141 131.733L198.245 146.991C198.245 146.991 192.344 153.988 177.17 153.988C158.259 153.988 155.449 142.326 155.449 142.326L155.674 123.64L162.615 112.4L159.158 101.16L167.588 84.0752L178.828 77.3593L185.994 79.4387L192.007 77.8651L201.505 82.7826L207.041 107.763Z" fill="#449FF2"/>
    <path d="M185.741 78.0056L184.027 71.9079C183.976 71.6924 183.854 71.5002 183.681 71.3625C183.508 71.2248 183.293 71.1497 183.072 71.1492C181.419 71.1305 179.773 71.3482 178.182 71.7955C180.594 73.993 183.117 76.0657 185.741 78.0056Z" fill="#2776CE"/>
    <path d="M186.668 78.2585L186.921 74.0716C186.917 73.9494 186.942 73.828 186.993 73.717C187.044 73.606 187.121 73.5085 187.216 73.4321C187.312 73.3558 187.424 73.3027 187.543 73.2771C187.663 73.2515 187.787 73.2542 187.905 73.2848L189.45 73.7625C189.744 73.8453 190.005 74.0145 190.201 74.248C190.397 74.4815 190.518 74.7686 190.548 75.0718C190.578 75.375 190.516 75.6803 190.371 75.948C190.225 76.2156 190.002 76.4332 189.731 76.5725L186.668 78.2585Z" fill="#2776CE"/>
    <path d="M184.364 78.3709L184.701 77.6684C184.768 77.5297 184.871 77.4118 185 77.3276C185.129 77.2434 185.278 77.1961 185.432 77.1907H187.596C187.729 77.1916 187.861 77.2253 187.978 77.2891C188.096 77.3528 188.196 77.4444 188.27 77.556L188.607 78.0618C188.752 78.2759 188.812 78.5364 188.776 78.7924V79.1577C188.755 79.3738 188.654 79.5743 188.493 79.7199C188.332 79.8654 188.122 79.9455 187.905 79.9445L185.095 79.804C184.935 79.7882 184.782 79.7326 184.65 79.6423C184.518 79.552 184.41 79.4299 184.338 79.2872C184.265 79.1445 184.229 78.9858 184.234 78.8257C184.238 78.6655 184.283 78.5092 184.364 78.3709Z" fill="#2776CE"/>
    <path d="M167.729 84.3L172.253 97.6194C172.299 97.7856 172.397 97.9322 172.535 98.0367C172.672 98.1412 172.839 98.1978 173.012 98.1978C173.184 98.1978 173.352 98.1412 173.489 98.0367C173.626 97.9322 173.725 97.7856 173.77 97.6194L175.625 93.0953C175.778 92.7248 175.814 92.3164 175.729 91.9246C175.644 91.5329 175.441 91.1766 175.147 90.9035L167.729 84.3Z" fill="#2776CE"/>
    <path d="M162.615 112.4C162.615 112.4 167.813 120.493 166.745 121.701C165.678 122.909 155.674 123.64 155.674 123.64L162.615 112.4Z" fill="#2776CE"/>
    <path d="M206.113 131.817C206.113 131.817 185.46 139.488 186.612 142.242C187.764 144.996 198.245 147.075 198.245 147.075L206.113 131.817Z" fill="#2776CE"/>
    <path d="M206.872 112.4L206.704 116.784L187.539 118.863C186.809 118.863 186.443 117.851 187.09 117.374L198.948 108.944C199.325 108.688 199.771 108.551 200.226 108.551C200.682 108.551 201.128 108.688 201.505 108.944L206.872 112.4Z" fill="#2776CE"/>
    <path d="M183.971 80.7594L178.8 82.2487C178.588 82.3243 178.395 82.4464 178.235 82.606C178.076 82.7656 177.954 82.9588 177.879 83.1714C177.803 83.3841 177.776 83.6108 177.8 83.8352C177.823 84.0596 177.896 84.276 178.014 84.4686L178.632 85.5364C178.713 85.6763 178.83 85.7924 178.971 85.8731C179.111 85.9538 179.271 85.9962 179.433 85.9962C179.595 85.9962 179.754 85.9538 179.894 85.8731C180.035 85.7924 180.152 85.6763 180.233 85.5364L183.971 80.7594Z" fill="#2776CE"/>
    <path d="M186.668 80.5908L191.839 79.5792C192.007 79.5478 192.18 79.5543 192.345 79.598C192.51 79.6417 192.664 79.7217 192.794 79.8321L194.846 81.49C195.239 81.7991 194.846 82.4735 194.508 82.3892L186.668 80.5908Z" fill="#2776CE"/>
    <path d="M192.766 119.144L190.715 118.413C190.568 117.76 190.271 117.15 189.847 116.632C189.423 116.114 188.884 115.702 188.272 115.429C187.661 115.156 186.995 115.03 186.326 115.06C185.657 115.091 185.004 115.276 184.42 115.603C184.42 115.603 182.453 116.784 183.324 118.16C184.195 119.537 184.027 118.807 185.235 120.802C186.443 122.797 188.298 123.612 189.816 122.994H191.53L192.766 119.144Z" fill="#FFB27B"/>
    <path d="M225.924 74.9146C229.581 82.4523 231.413 90.7449 231.271 99.1217C231.13 107.498 229.019 115.724 225.109 123.134C220.922 131.227 189.31 123.64 189.31 123.64C189.31 123.64 188.073 121.139 191.389 118.526C191.389 118.526 212.436 114.536 214.937 113.889C217.438 113.243 215.667 90.4258 218.224 83.7942C219.548 79.951 222.307 76.769 225.924 74.9146Z" fill="#FFD075"/>
    <path d="M220.22 63.225C218.448 66.7309 215.447 69.4616 211.79 70.8963C211.509 68.3392 211.509 66.878 211.509 66.878L215.92 62.9159L220.22 63.225Z" fill="#FF985B"/>
    <path d="M209.514 66.7094C209.514 66.7094 220.445 68.7326 221.484 61.0894C222.524 53.4462 224.603 48.5849 217.663 47.0394C210.722 45.4939 208.98 48.051 207.94 50.58C206.9 53.109 206.704 66.0069 209.514 66.7094Z" fill="#FFB27B"/>
    <path d="M225.446 46.0559C225.446 46.0559 225.784 45.8311 226.289 45.803C226.004 45.6166 225.674 45.5099 225.334 45.4939C225.334 44.679 224.856 43.274 223.62 42.9087C223.827 43.0527 224 43.2407 224.127 43.4593C224.253 43.6778 224.329 43.9216 224.35 44.1732C222.945 42.5153 219.911 41.3632 211.537 42.0657C200.494 43.0492 204.119 51.0858 205.552 52.0412C206.985 52.9966 210.582 50.3833 213.251 50.6081C215.921 50.8329 216.426 55.2165 217.325 55.8347C218.225 56.4529 217.888 55.3851 219.096 54.7388C220.304 54.0925 220.445 56.4248 220.079 57.9141C219.714 59.4034 221.4 61.3985 221.4 61.3985L223.086 59.3191C225.086 55.38 225.961 50.9658 225.615 46.5617L225.446 46.0559Z" fill="#0D458D"/>
</svg>
