<svg width="16" height="16" viewBox="0 0 16 16" fill="none" xmlns="http://www.w3.org/2000/svg">
	<path fill-rule="evenodd" clip-rule="evenodd" d="M14.0145 4.18344C14.2464 3.93885 14.5942 3.93885 14.8261 4.18344C15.058 4.42803 15.058 4.83567 14.8261 5.03949L8.37198 11.8471C8.17874 12.051 7.79227 12.051 7.56039 11.8471L1.14493 5.03949C0.951691 4.83567 0.951691 4.42802 1.14493 4.18344C1.41546 3.93885 1.72464 3.93885 1.99517 4.18344L7.98551 10.5427L14.0145 4.18344Z" fill="#AEAEAE"/>
	<path fill-rule="evenodd" clip-rule="evenodd" d="M7.35173 12.0632L0.927217 5.24589C0.927097 5.24577 0.927338 5.24602 0.927217 5.24589C0.764108 5.0736 0.7 4.83841 0.7 4.62675C0.7 4.41263 0.764544 4.18097 0.90953 3.99746L0.925101 3.97775L0.943735 3.96091C1.12155 3.80014 1.33538 3.7 1.57005 3.7C1.80471 3.7 2.01854 3.80014 2.19636 3.96091L2.20529 3.96898L7.98621 10.1059L13.7968 3.97704C14.147 3.60766 14.6936 3.60766 15.0438 3.97704C15.371 4.32211 15.4025 4.91955 15.0355 5.25465L8.58969 12.0535C8.42424 12.228 8.19322 12.3 7.98068 12.3C7.76671 12.3 7.53922 12.2279 7.36233 12.0725L7.35173 12.0632ZM14.8261 5.03949C15.058 4.83567 15.058 4.42803 14.8261 4.18344C14.5942 3.93885 14.2464 3.93885 14.0145 4.18344L7.98551 10.5427L1.99517 4.18344C1.72464 3.93885 1.41546 3.93885 1.14493 4.18344C0.951691 4.42803 0.951691 4.83567 1.14493 5.03949L7.56039 11.8471C7.79227 12.051 8.17874 12.051 8.37198 11.8471L14.8261 5.03949Z" fill="#AEAEAE"/>
</svg>
