<svg width="16" height="16" viewBox="0 0 16 16" fill="none" xmlns="http://www.w3.org/2000/svg">
	<g clip-path="url(#clip0)">
		<path d="M14.1666 16H1.83337C0.822021 16 0 15.178 0 14.1666V3.16663C0 2.15527 0.822021 1.33337 1.83337 1.33337H14.1666C15.178 1.33337 16 2.15527 16 3.16663V14.1666C16 15.178 15.178 16 14.1666 16ZM1.83337 2.33337C1.37402 2.33337 1 2.70728 1 3.16663V14.1666C1 14.626 1.37402 15 1.83337 15H14.1666C14.626 15 15 14.626 15 14.1666V3.16663C15 2.70728 14.626 2.33337 14.1666 2.33337H1.83337Z" fill="currentColor"/>
		<path d="M15.5 6.33337H0.5C0.223999 6.33337 0 6.10938 0 5.83337C0 5.55737 0.223999 5.33337 0.5 5.33337H15.5C15.776 5.33337 16 5.55737 16 5.83337C16 6.10938 15.776 6.33337 15.5 6.33337Z" fill="currentColor"/>
		<path d="M3.83337 4C3.55737 4 3.33337 3.776 3.33337 3.5V0.5C3.33337 0.223999 3.55737 0 3.83337 0C4.10938 0 4.33337 0.223999 4.33337 0.5V3.5C4.33337 3.776 4.10938 4 3.83337 4Z" fill="currentColor"/>
		<path d="M12.1666 4C11.8906 4 11.6666 3.776 11.6666 3.5V0.5C11.6666 0.223999 11.8906 0 12.1666 0C12.4426 0 12.6666 0.223999 12.6666 0.5V3.5C12.6666 3.776 12.4426 4 12.1666 4Z" fill="currentColor"/>
	</g>
	<defs>
		<clipPath id="clip0">
			<rect width="16" height="16" fill="white"/>
		</clipPath>
	</defs>
</svg>
