<svg width="17" height="16" viewBox="0 0 17 16" fill="none" xmlns="http://www.w3.org/2000/svg">
	<path fill-rule="evenodd" clip-rule="evenodd" d="M7.85998 0.0290336C5.16609 0.279263 2.98294 1.68019 1.65696 3.84255C0.795427 5.2477 0.390415 6.91241 0.515388 8.62061C0.820995 12.8001 4.47779 16.3385 9.15843 15.9742C13.358 15.6473 16.8231 11.9368 16.4681 7.37309C16.3381 5.70223 15.7468 4.32516 14.799 3.08179C14.3698 2.51866 14.2852 2.50962 13.8371 2.04865C13.2814 1.47693 12.1062 0.820686 11.3562 0.530159C10.3505 0.140666 9.07011 -0.083414 7.85998 0.0290336Z" fill="#108DE8"/>
	<path fill-rule="evenodd" clip-rule="evenodd" d="M3.86004 5.66859C3.75792 5.9583 3.81878 9.17868 3.81878 9.77603C3.8187 10.4221 3.68883 10.6241 4.71825 10.9698C7.4436 11.8853 10.1423 8.78134 12.8524 10.3169C12.9779 10.3881 13.131 10.5341 13.1669 10.2983L13.1679 6.15556C13.1681 5.71 13.2087 5.57044 12.9077 5.36451C10.4826 3.70535 7.85691 6.54343 5.39621 6.22512C4.4855 6.10734 4.10847 5.65088 3.86004 5.66859Z" fill="white"/>
</svg>
