<svg width="17" height="16" viewBox="0 0 17 16" fill="none" xmlns="http://www.w3.org/2000/svg">
	<path d="M8.49322 0C12.9115 0 16.4932 3.58167 16.4932 8C16.4932 12.4183 12.9115 16 8.49322 16C4.07494 16 0.493164 12.4183 0.493164 8C0.493164 3.58167 4.07494 0 8.49322 0Z" fill="#00AED6"/>
	<path fill-rule="evenodd" clip-rule="evenodd" d="M13.1602 7.75336C13.0992 6.73521 12.2324 5.95453 11.2135 5.99996H6.16016C5.97606 5.99996 5.82686 5.8508 5.82686 5.66665C5.82686 5.4826 5.97606 5.33333 6.16016 5.33333H11.2802C11.2503 4.64328 10.7792 4.05105 10.1135 3.86665C8.6209 3.60009 7.09285 3.60009 5.60015 3.86665C4.7519 4.07515 4.11728 4.78108 4.00018 5.64671C3.76687 7.21584 3.76687 8.81081 4.00018 10.38C4.1788 11.296 4.90658 12.0051 5.82686 12.16C7.67725 12.3934 9.54968 12.3934 11.4002 12.16C12.2245 11.993 12.8484 11.3153 12.9468 10.4799C13.1161 9.5814 13.1876 8.66732 13.1602 7.75336ZM11.4935 8.87339V9.16661C11.4935 9.35077 11.3443 9.50004 11.1602 9.50004C10.9761 9.50004 10.8269 9.35077 10.8269 9.16661V8.87339C10.7191 8.7794 10.6582 8.64287 10.6602 8.49997C10.6602 8.2239 10.884 7.99999 11.1602 7.99999C11.4363 7.99999 11.6602 8.2239 11.6602 8.49997C11.6587 8.64218 11.5984 8.77731 11.4935 8.87339V8.87339Z" fill="white"/>
</svg>
