<?xml version="1.0" encoding="UTF-8"?>
<svg xmlns="http://www.w3.org/2000/svg" xmlns:xlink="http://www.w3.org/1999/xlink" width="20pt" height="20pt" viewBox="0 0 20 20" version="1.1">
	<g id="surface1">
		<path style=" stroke:none;fill-rule:nonzero;fill:rgb(0%,0%,0%);fill-opacity:1;" d="M 19.664062 8.941406 L 17.972656 7.402344 L 17.972656 2.296875 C 17.972656 1.972656 17.710938 1.707031 17.386719 1.707031 L 13.320312 1.707031 C 12.996094 1.707031 12.730469 1.972656 12.730469 2.296875 L 12.730469 2.625 L 10.691406 0.765625 C 10.296875 0.40625 9.703125 0.40625 9.308594 0.765625 L 0.335938 8.941406 C 0.0195312 9.226562 -0.0820312 9.671875 0.0703125 10.070312 C 0.222656 10.46875 0.601562 10.722656 1.027344 10.722656 L 2.460938 10.722656 L 2.460938 18.917969 C 2.460938 19.242188 2.722656 19.503906 3.046875 19.503906 L 7.964844 19.503906 C 8.292969 19.503906 8.554688 19.242188 8.554688 18.917969 L 8.554688 13.941406 L 11.445312 13.941406 L 11.445312 18.917969 C 11.445312 19.242188 11.707031 19.503906 12.035156 19.503906 L 16.953125 19.503906 C 17.277344 19.503906 17.539062 19.242188 17.539062 18.917969 L 17.539062 10.722656 L 18.972656 10.722656 C 19.398438 10.722656 19.777344 10.46875 19.929688 10.070312 C 20.082031 9.671875 19.980469 9.226562 19.664062 8.941406 Z M 16.953125 9.546875 C 16.625 9.546875 16.363281 9.8125 16.363281 10.136719 L 16.363281 18.328125 L 12.621094 18.328125 L 12.621094 13.355469 C 12.621094 13.03125 12.359375 12.765625 12.035156 12.765625 L 7.964844 12.765625 C 7.640625 12.765625 7.378906 13.03125 7.378906 13.355469 L 7.378906 18.328125 L 3.636719 18.328125 L 3.636719 10.136719 C 3.636719 9.8125 3.371094 9.546875 3.046875 9.546875 L 1.414062 9.546875 L 10 1.726562 L 12.921875 4.390625 C 13.09375 4.546875 13.34375 4.585938 13.558594 4.492188 C 13.769531 4.398438 13.90625 4.1875 13.90625 3.957031 L 13.90625 2.882812 L 16.796875 2.882812 L 16.796875 7.660156 C 16.796875 7.828125 16.867188 7.984375 16.992188 8.097656 L 18.585938 9.546875 Z M 16.953125 9.546875 "/>
	</g>
</svg>
