<svg width="25" height="25" viewBox="0 0 25 25" fill="none" xmlns="http://www.w3.org/2000/svg">
	<path fill-rule="evenodd" clip-rule="evenodd" d="M24.7734 12.946C24.7734 12.946 22.3608 10.2016 22.2918 10.133L13.6063 0.870884C13.3306 0.59645 12.917 0.390625 12.5723 0.390625C12.1587 0.390625 11.8141 0.59645 11.5383 0.870884L0.233362 12.946C-0.111302 13.2204 -0.0423693 13.7693 0.233362 14.1123C0.509092 14.4553 1.06055 14.4553 1.47415 14.1123L2.57707 12.8773V23.1C2.57707 23.9233 3.19747 24.5408 4.02466 24.5408H8.91888C9.67714 24.5408 10.3665 23.9233 10.3665 23.1V17.9544C10.3665 16.7194 11.3315 15.7589 12.5723 15.7589C13.8131 15.7589 14.7782 16.788 14.7782 17.9544V23.1686C14.7782 23.9233 15.3986 24.6094 16.2257 24.6094H21.051C21.8093 24.6094 22.4986 23.9919 22.4986 23.1686V13.0832L23.3947 14.0437C23.7394 14.3867 24.2909 14.3867 24.7045 14.0437C25.0491 13.7693 25.1181 13.2204 24.7734 12.946Z" fill="currentColor"/>
</svg>
