<svg width="17" height="16" viewBox="0 0 17 16" fill="none" xmlns="http://www.w3.org/2000/svg">
	<g clip-path="url(#clip0)">
		<path d="M1.0262 15.686C0.721971 15.514 0.482278 15.3634 0.493546 15.3512C0.532402 15.3091 1.98811 14.9721 3.00465 14.77C5.20436 14.3326 7.81967 13.9826 10.4247 13.7768C11.4975 13.692 15.3787 13.6892 16.0518 13.7727L16.4931 13.8274L15.9957 13.8358C15.1125 13.8507 13.0873 14.0044 11.5005 14.177C8.49689 14.5037 5.15779 15.106 2.74215 15.7569C2.24877 15.8897 1.78536 15.9984 1.71222 15.9984C1.63915 15.9984 1.33042 15.8578 1.0262 15.686ZM5.22546 12.4066C5.18032 12.2714 5.36914 12.2108 5.4515 12.1724C5.82128 12.0004 6.08153 11.7201 6.16859 11.4C6.21025 11.2468 6.3372 10.3808 6.45063 9.47573C6.56405 8.57062 6.66601 7.87054 6.67714 7.82943C6.6854 7.79906 6.70773 7.69106 6.82744 7.67943C7.13297 7.67625 7.35982 7.68047 7.67292 7.68047C7.8459 7.66247 7.81189 7.86773 7.7983 7.99928C7.78471 8.16536 7.74353 8.4861 7.69546 8.87729C7.63693 9.35454 7.54946 10.0678 7.50104 10.4623C7.39226 11.3491 7.33196 11.6221 7.14389 12.0788C6.92004 12.6223 6.57792 12.9381 5.95772 13.1628C5.83248 13.2054 5.47328 13.3379 5.43422 13.2201C5.35316 12.9382 5.29559 12.6931 5.22546 12.4066ZM12.3477 12.1093C11.9344 11.9283 11.9539 11.2294 12.3874 10.9426C12.6618 10.7611 13.0473 10.792 13.2454 11.0068C13.7335 11.5363 13.0157 12.4017 12.3477 12.1093ZM9.22375 11.6917C8.00863 11.4666 8.01676 9.89506 8.28895 8.99699C8.62985 7.95751 9.46051 7.6555 10.1433 7.62913C10.7194 7.60773 11.5182 7.72395 11.7187 7.85839C11.7741 7.89551 11.748 8.2558 11.5934 9.59173C11.4859 10.5193 11.3685 11.3169 11.3323 11.3642C11.1399 11.6157 9.85092 11.8159 9.22375 11.6917ZM10.2838 10.448C10.4142 9.92158 10.4693 9.44632 10.5626 8.89099C10.5509 8.69958 10.2531 8.69825 10.1773 8.6978C9.78283 8.6978 9.54983 8.93803 9.4263 9.4721C9.25694 10.2046 9.43381 10.6127 9.92071 10.6127C10.0746 10.5972 10.2352 10.6065 10.2838 10.448ZM1.40294 11.2677C1.7351 10.3875 3.06918 7.23587 3.38939 6.58321C3.44989 6.42047 3.60928 6.38839 3.7184 6.37698C4.03219 6.36143 4.30343 6.36558 4.57897 6.36772C4.86292 6.37047 4.86708 6.47854 4.90362 6.70743C4.94828 6.9355 5.50224 10.5231 5.62761 11.3843C5.64359 11.5272 5.67589 11.5717 5.50428 11.572C5.2665 11.5728 4.69418 11.6063 4.49996 11.5904C4.43789 11.5817 4.39746 11.5375 4.38784 11.4878C4.37008 11.3954 4.35007 11.2369 4.33641 11.0716L4.30104 10.6426H3.58824H2.87538L2.71955 11.0551C2.6641 11.2018 2.60352 11.3465 2.55839 11.4426C2.52677 11.5307 2.47965 11.5713 2.40911 11.588C2.23463 11.5863 1.61621 11.6112 1.38369 11.589C1.26869 11.5317 1.37269 11.3478 1.40294 11.2677ZM4.17539 9.4481C4.15518 9.21632 4.0188 8.02099 3.98678 7.84432C3.97838 7.82536 3.97442 7.83158 3.96574 7.84276C3.88154 7.97988 3.42585 9.19314 3.34828 9.47492C3.33892 9.51373 3.36221 9.52803 3.39608 9.52484C3.51169 9.51625 3.98411 9.50669 4.12779 9.50069C4.16877 9.49729 4.17279 9.48173 4.17539 9.4481ZM12.4025 10.0293C12.421 9.87292 12.4613 9.44884 12.4922 9.08677C12.5232 8.72469 12.5727 8.15921 12.6023 7.8301C12.6247 7.58032 12.6445 7.33787 12.6531 7.21032C12.6703 7.09595 12.7978 7.08247 12.8816 7.08158C13.1608 7.08476 13.4237 7.06684 13.6749 7.09195C13.7936 7.10513 13.8431 7.13358 13.8436 7.21017C13.7304 7.84025 13.3235 10.0142 13.2922 10.1489C13.2651 10.265 13.2542 10.2992 13.0909 10.3093C12.8907 10.3058 12.7238 10.3171 12.5208 10.316C12.4044 10.3144 12.3732 10.2774 12.4025 10.0293ZM6.7681 6.79943C6.7681 6.41535 6.99591 6.12261 7.28122 5.99943C7.52774 5.90572 7.80404 5.90609 7.95113 6.08839C8.2122 6.41758 8.04086 6.90395 7.73595 7.15736C7.34521 7.44891 6.77445 7.27662 6.7681 6.79943ZM13.7681 5.98995C13.6828 5.78424 13.409 5.13528 13.1598 4.5478C12.9105 3.96031 12.7197 3.44246 12.7358 3.3969C12.7519 3.35142 13.0297 2.97705 13.3532 2.56512L13.8797 1.89446C13.9141 1.84935 13.9536 1.79401 14.0014 1.79335C14.3187 1.79505 14.6474 1.81564 14.9502 1.81238C15.1757 1.81031 15.2892 1.79446 15.1219 1.97861C15.0148 2.12246 14.8037 2.38579 14.5623 2.67475C14.2133 3.09231 13.9279 3.44513 13.9279 3.45883C13.9279 3.47246 14.1895 4.09602 14.5093 4.84454C14.7606 5.43261 14.9681 5.95861 15.038 6.17832C15.068 6.25291 15.0417 6.31676 14.9778 6.33417C14.8932 6.3555 14.7409 6.36395 14.4789 6.36395H14.0865C13.9907 6.37484 13.9202 6.35661 13.8833 6.26765L13.7681 5.98995ZM2.02492 5.55209C1.6718 5.3612 1.5049 5.11965 1.47444 4.75557C1.45621 4.53735 1.78536 1.60394 1.93109 0.671195C1.96667 0.452158 1.9821 0.439639 2.1757 0.439639H2.55661C2.7567 0.439639 2.93882 0.43601 3.05341 0.443047C3.20993 0.445565 3.18131 0.552529 3.16936 0.680677C3.14246 0.966677 3.0586 1.58631 2.95337 2.38416C2.7666 3.79972 2.71907 4.2992 2.76373 4.37624C2.81604 4.46617 2.94879 4.48098 3.82855 4.49528L4.61551 4.50809C4.80289 4.49676 4.84168 4.54668 4.82317 4.7292C4.77728 5.03143 4.75215 5.27217 4.70647 5.54291C4.67512 5.71187 4.5746 5.66765 4.41802 5.67802L3.49804 5.69187C2.31835 5.70795 2.31207 5.70728 2.02492 5.55209ZM11.0992 5.66083C11.0872 5.63617 11.1201 5.29283 11.1723 4.89787C11.2244 4.50291 11.3333 3.65461 11.4142 3.01283C11.6441 1.19083 11.7196 0.641862 11.7516 0.431862C11.7854 0.18675 11.7856 0.200306 12.007 0.200306H12.3581C12.495 0.200306 12.602 0.19838 12.6845 0.201269C12.9998 0.21238 12.9597 0.182898 12.8801 0.712529C12.8501 0.912677 12.75 1.79357 12.6576 2.53409C12.4252 4.39898 12.2727 5.54246 12.2448 5.63091C12.2185 5.7138 11.1384 5.74202 11.0992 5.66083ZM5.10104 5.51891C5.24745 4.18624 5.38731 3.17853 5.54997 1.93838C5.56212 1.78994 5.69665 1.77275 5.85385 1.77253C6.03263 1.77238 6.21435 1.76979 6.38459 1.77594C6.71436 1.77712 6.80108 1.82505 6.76687 2.06438C6.6208 3.22861 6.44025 4.26765 6.25061 5.45135C6.21517 5.6518 6.17194 5.64587 5.99535 5.64587C5.7898 5.64661 5.425 5.65409 5.23864 5.64846C5.12958 5.62758 5.1048 5.61417 5.10104 5.51891ZM7.42859 2.5355C7.51907 2.02016 7.58176 1.93972 7.71314 1.84631C7.87533 1.73112 9.07325 1.61105 9.4868 1.66853C9.54457 1.67749 9.59955 1.68875 9.65186 1.70231C10.8636 2.01446 10.6752 3.50268 10.5964 4.18735C10.5134 4.84143 10.4319 5.4372 10.4153 5.5112C10.3864 5.64009 10.3606 5.64587 9.81186 5.64587C9.62754 5.64587 9.53119 5.63898 9.4263 5.62832C9.25681 5.61632 9.2411 5.57498 9.25804 5.44128C9.31977 4.89483 9.40308 4.42357 9.46515 3.91313C9.54874 3.21653 9.52648 2.52883 8.72969 2.67668C8.59311 2.71424 8.55576 2.72616 8.53691 2.87387C8.43748 3.56194 8.35014 4.27276 8.25918 4.9458C8.23917 5.10639 8.21131 5.27424 8.1827 5.42306C8.17525 5.46091 8.17122 5.49483 8.16487 5.51995C8.15675 5.54965 8.1379 5.58046 8.11987 5.54995C7.99183 5.29698 7.38939 5.33913 7.13802 5.52476C7.01189 5.61987 6.98594 5.67098 7.03743 5.38113C7.04651 5.31965 7.05532 5.25824 7.06393 5.19691C7.18869 4.30898 7.27275 3.4355 7.42859 2.5355ZM5.70853 1.01038C5.57394 0.512454 5.97466 0.0203053 6.42338 0.00319416C7.03149 -0.04088 7.19934 0.866307 6.57723 1.27779C6.21694 1.4566 5.83821 1.41868 5.70853 1.01038Z" fill="#E9232A"/>
	</g>
	<defs>
		<clipPath id="clip0">
			<rect width="16" height="16" fill="white" transform="translate(0.493164)"/>
		</clipPath>
	</defs>
</svg>
