<svg width="20" height="20" viewBox="0 0 20 20" fill="none" xmlns="http://www.w3.org/2000/svg">
	<g clip-path="url(#clip0)">
		<g clip-path="url(#clip1)">
			<path d="M19.8111 9.69499C19.819 9.68534 19.8259 9.67519 19.8333 9.66531C19.8421 9.65343 19.8514 9.64183 19.8596 9.62949C19.8675 9.61765 19.8744 9.60535 19.8817 9.59316C19.8884 9.58199 19.8953 9.57109 19.9015 9.55957C19.9082 9.54715 19.9138 9.53437 19.9198 9.52172C19.9254 9.50973 19.9314 9.49793 19.9365 9.48567C19.9416 9.47336 19.9457 9.46082 19.9502 9.44832C19.9549 9.43516 19.9599 9.42215 19.964 9.40868C19.9678 9.39618 19.9706 9.38348 19.9737 9.37087C19.9772 9.35716 19.981 9.3436 19.9838 9.32962C19.9867 9.31497 19.9884 9.3002 19.9905 9.28548C19.9923 9.27333 19.9946 9.26134 19.9958 9.24903C20.0012 9.19435 20.0012 9.13923 19.9958 9.08455C19.9946 9.07224 19.9923 9.06029 19.9905 9.04814C19.9884 9.03338 19.9867 9.01861 19.9838 9.004C19.981 8.99002 19.9772 8.97651 19.9737 8.9628C19.9705 8.95014 19.9678 8.93745 19.964 8.92495C19.9599 8.91151 19.9549 8.8985 19.9502 8.88538C19.9457 8.87288 19.9416 8.8603 19.9365 8.848C19.9314 8.83573 19.9254 8.82393 19.9198 8.81198C19.9138 8.79929 19.9082 8.78651 19.9015 8.77409C19.8954 8.76261 19.8884 8.75171 19.8817 8.74054C19.8745 8.72835 19.8676 8.71605 19.8596 8.70417C19.8514 8.69187 19.8422 8.68027 19.8334 8.66843C19.8259 8.65851 19.819 8.64832 19.8111 8.63867C19.7938 8.61761 19.7756 8.59734 19.7563 8.57809C19.7562 8.57793 19.7561 8.57777 19.7559 8.57762L17.256 6.07772C16.9306 5.7523 16.403 5.7523 16.0775 6.07772C15.7521 6.40313 15.7521 6.93077 16.0775 7.25619L17.1549 8.33356H12.5003C12.0401 8.33356 11.667 8.70663 11.667 9.16685C11.667 9.62707 12.0401 10.0001 12.5003 10.0001H17.1549L16.0775 11.0775C15.7521 11.4029 15.7521 11.9306 16.0775 12.256C16.4029 12.5814 16.9306 12.5814 17.256 12.256L19.7559 9.75608C19.756 9.75593 19.7561 9.75577 19.7563 9.75561C19.7756 9.73632 19.7938 9.71609 19.8111 9.69499Z" fill="#59D098"/>
			<path d="M14.1664 11.6664C13.7062 11.6664 13.3331 12.0395 13.3331 12.4997V16.6662H9.99993V3.33375V3.33344C9.99993 2.96545 9.75853 2.64101 9.40608 2.53527L6.51128 1.66683H13.3331V5.83334C13.3331 6.29355 13.7062 6.66662 14.1664 6.66662C14.6267 6.66662 14.9997 6.29355 14.9997 5.83334V0.833543C14.9997 0.373327 14.6267 0.000256531 14.1664 0.000256531H0.833623C0.833545 0.000256531 0.833467 0.000256531 0.833389 0.000256531C0.808741 0.00021747 0.784328 0.0013893 0.76011 0.00349859C0.377861 0.0323255 0.128691 0.283761 0.0381479 0.583944C0.0323278 0.602615 0.0272499 0.621676 0.0227188 0.640972C0.0222501 0.643043 0.0218595 0.645152 0.0213908 0.647261C0.0168988 0.667104 0.0131489 0.68726 0.0100631 0.707689C0.00963344 0.710579 0.00916471 0.71343 0.00873504 0.716321C0.00611796 0.734953 0.00404773 0.753819 0.0026806 0.77292C0.000258824 0.8037 -0.000483333 0.834558 0.000297885 0.865416V17.4999C0.000297885 17.8971 0.280677 18.2391 0.670192 18.317L9.00317 19.9836C9.51881 20.0867 9.99989 19.6923 9.99989 19.1665V18.3328H14.1664C14.6266 18.3328 14.9997 17.9598 14.9997 17.4995V12.4997C14.9997 12.0395 14.6266 11.6664 14.1664 11.6664ZM8.33332 18.15L1.66691 16.8167V1.95385L8.33332 3.95377V17.4995V18.15Z" fill="#59D098"/>
		</g>
	</g>
	<defs>
		<clipPath id="clip0">
			<rect width="20" height="20" fill="white"/>
		</clipPath>
		<clipPath id="clip1">
			<rect width="20" height="20" fill="white"/>
		</clipPath>
	</defs>
</svg>
