<svg width="20" height="20" viewBox="0 0 20 20" fill="none" xmlns="http://www.w3.org/2000/svg">
	<path fill-rule="evenodd" clip-rule="evenodd" d="M18.7213 15.5495C18.6662 15.4945 18.5011 15.4396 18.446 15.4396H17.2898V9.12088C17.2898 5.32967 14.3717 2.1978 10.6828 1.86813V0.659341C10.6828 0.32967 10.3525 0 10.0221 0C9.69176 0 9.36141 0.32967 9.36141 0.659341V1.86813C5.72757 2.1978 2.75442 5.27473 2.75442 9.12088V15.3846H1.5982C1.26785 15.3846 0.9375 15.7143 0.9375 16.044C0.9375 16.4286 1.26785 16.7033 1.5982 16.7033H5.9478C6.33321 18.5714 7.92989 20 9.96705 20C12.0042 20 13.6009 18.5714 13.9863 16.7033H18.3359C18.7213 16.7033 18.9966 16.4286 18.9966 16.044C19.1618 15.8791 18.9966 15.6593 18.7213 15.5495ZM9.96705 18.6813C8.75577 18.6813 7.70966 17.8571 7.37931 16.8132H12.6098C12.2244 17.8571 11.2334 18.6813 9.96705 18.6813ZM4.02076 15.4396V9.12088C4.02076 5.87912 6.66356 3.18681 9.96705 3.18681C13.2705 3.18681 15.9133 5.82418 15.9133 9.12088V15.3846H4.02076V15.4396Z" fill="black"/>
</svg>
