<svg width="36" height="54" viewBox="0 0 36 54" fill="none" xmlns="http://www.w3.org/2000/svg">
	<path d="M18.0039 54H18.001C17.4185 54 16.9463 53.5278 16.9463 52.9453C16.9463 52.3628 17.4185 51.8906 18.001 51.8906C18.5835 51.8906 19.0571 52.3628 19.0571 52.9453C19.0571 53.5278 18.5864 54 18.0039 54Z" fill="white"/>
	<path d="M34.6703 38.9438V34.7386C34.6703 34.7328 34.6703 34.727 34.6702 34.7212C34.6221 31.796 33.5214 29.6317 31.3054 28.1046C29.4605 26.8331 27.1385 26.2075 24.8929 25.6025C24.253 25.4301 23.6383 25.2645 23.0471 25.0879V22.856C25.4531 21.2301 27.0382 18.4768 27.0382 15.3599V14.2302C27.1606 14.1382 27.2784 14.0374 27.3899 13.9262C28.5724 12.7437 28.6749 10.8845 27.6988 9.58373V5.3537C27.6987 2.40163 25.2971 0 22.3451 0H13.6545C10.7025 0 8.3009 2.40163 8.3009 5.3537V9.58384C7.32478 10.8846 7.42741 12.7438 8.61108 13.9276C8.72214 14.0383 8.83963 14.1387 8.96155 14.2305V15.3599C8.96155 18.4762 10.5465 21.2292 12.9526 22.8552V25.0879C12.3614 25.2645 11.7466 25.4302 11.1068 25.6025C8.86125 26.2075 6.53925 26.8331 4.69429 28.1046C2.47818 29.6317 1.37761 31.796 1.32952 34.7212C1.32941 34.727 1.32941 34.7328 1.32941 34.7386V38.9438C0.838246 39.4398 0.53418 40.1216 0.53418 40.8733V43.8748C0.53418 45.3877 1.765 46.6187 3.27795 46.6187H5.9057C6.04408 46.6187 6.18087 46.6115 6.31587 46.5985V51.5134C6.31587 52.8846 7.43004 54.0001 8.79956 54.0001H13.2629C13.8454 54.0001 14.3176 53.5279 14.3176 52.9454C14.3176 52.3629 13.8454 51.8907 13.2629 51.8907H8.79956C8.59663 51.8907 8.42525 51.718 8.42525 51.5134V45.7875C9.47086 45.0136 10.1502 43.7719 10.1502 42.3741C10.1502 40.9763 9.47076 39.7346 8.42525 38.9607V35.7879C8.42525 35.5849 8.59663 35.4136 8.79956 35.4136H13.7209V41.8329C13.7209 42.2228 13.9361 42.5809 14.2802 42.764C14.4356 42.8467 14.6057 42.8876 14.7755 42.8876C14.9818 42.8876 15.1875 42.8271 15.3649 42.7076L18.001 40.9315L20.6342 42.7074C20.9576 42.9255 21.3749 42.9473 21.7191 42.7642C22.0634 42.5811 22.2786 42.223 22.2786 41.833V35.4137H27.1999C27.4045 35.4137 27.5772 35.5851 27.5772 35.788V38.9587C26.53 39.7324 25.8493 40.9751 25.8493 42.3742C25.8493 43.7732 26.53 45.016 27.5772 45.7897V51.5135C27.5772 51.718 27.4045 51.8908 27.1999 51.8908H22.7366C22.1541 51.8908 21.6819 52.363 21.6819 52.9455C21.6819 53.528 22.1541 54.0002 22.7366 54.0002H27.1999C28.571 54.0002 29.6866 52.8847 29.6866 51.5135V46.5989C29.8206 46.6118 29.9564 46.6189 30.0938 46.6189H32.7216C34.2345 46.6189 35.4653 45.3881 35.4653 43.875V40.8735C35.4655 40.1217 35.1615 39.4398 34.6703 38.9438V38.9438ZM10.4103 5.3537C10.4103 3.56474 11.8656 2.10938 13.6545 2.10938H22.3451C24.134 2.10938 25.5893 3.56474 25.5893 5.3537V7.7162C23.3789 6.17024 20.7535 5.33714 17.9998 5.33714C15.2461 5.33714 12.6207 6.17013 10.4103 7.7162V5.3537ZM10.1014 12.4348C9.62822 11.9615 9.62822 11.1917 10.1012 10.7185L10.1015 10.7184C12.2113 8.60857 15.0163 7.44662 17.9998 7.44662C20.9833 7.44662 23.7884 8.60857 25.8981 10.7184L25.8984 10.7185C26.3715 11.1917 26.3714 11.9616 25.8996 12.4335C25.4266 12.9048 24.657 12.9049 24.1852 12.4348C22.5329 10.7824 20.3368 9.8724 18.0015 9.8724C15.6662 9.8724 13.4701 10.7824 11.819 12.4335C11.345 12.9058 10.5741 12.9058 10.1014 12.4348V12.4348ZM11.0709 15.3599V14.8927C11.8841 14.8656 12.6893 14.544 13.3092 13.9263C14.5631 12.6724 16.2294 11.9818 18.0013 11.9818C19.7732 11.9818 21.4396 12.6723 22.6947 13.9276C23.3131 14.5438 24.1167 14.8648 24.9287 14.8921V15.36C24.9287 19.1816 21.821 22.2906 18.0013 22.2906C14.1799 22.2905 11.0709 19.1815 11.0709 15.3599V15.3599ZM20.9376 23.9073V25.8625C20.9376 27.4817 19.6204 28.799 18.0013 28.799C16.3805 28.799 15.062 27.4817 15.062 25.8625V23.9066C15.9842 24.2247 16.9724 24.3999 18.0013 24.3999C19.0291 24.3999 20.0163 24.2249 20.9376 23.9073ZM3.27795 44.5093C2.92811 44.5093 2.64355 44.2246 2.64355 43.8748V40.8733C2.64355 40.5234 2.92811 40.2389 3.27795 40.2389H5.9057C7.08305 40.2389 8.04092 41.1967 8.04092 42.3741C8.04092 43.5514 7.08305 44.5093 5.9057 44.5093H3.27795ZM20.1693 39.8496L18.591 38.7852C18.2347 38.5448 17.7682 38.5447 17.4119 38.785L15.8302 39.8506V35.4137H20.1693V39.8496ZM27.2001 33.3042H8.79956C7.43004 33.3042 6.31587 34.4184 6.31587 35.7879V38.1496C6.18087 38.1367 6.04408 38.1295 5.9057 38.1295H3.43868V34.7477C3.47707 32.5271 4.25649 30.9679 5.89115 29.8414C7.43785 28.7757 9.58192 28.1979 11.6554 27.6392C12.147 27.5068 12.6471 27.3711 13.1422 27.2289C13.7401 29.349 15.6913 30.9081 18.0012 30.9081C20.3098 30.9081 22.2598 29.3491 22.8573 27.229C23.3523 27.3711 23.8525 27.5068 24.344 27.6392C26.4175 28.1979 28.5617 28.7756 30.1083 29.8414C31.743 30.9679 32.5224 32.527 32.5607 34.7477V38.1294H30.0939C29.9565 38.1294 29.8207 38.1366 29.6867 38.1493V35.7879C29.6868 34.4184 28.5713 33.3042 27.2001 33.3042ZM33.3562 43.8749C33.3562 44.2247 33.0716 44.5094 32.7218 44.5094H30.0939C29.7527 44.5094 29.4311 44.4269 29.1449 44.284C29.1198 44.27 29.0937 44.2574 29.0674 44.2454C28.4073 43.8817 27.9588 43.1795 27.9588 42.3742C27.9588 41.1968 28.9167 40.239 30.0939 40.239H32.7217C33.0715 40.239 33.3561 40.5235 33.3561 40.8734V43.8749H33.3562Z" fill="white"/>
	<rect x="12.0938" y="51.8906" width="12.9727" height="2.10938" fill="white"/>
</svg>
