<svg width="44" height="44" viewBox="0 0 44 44" fill="none" xmlns="http://www.w3.org/2000/svg">
	<g clip-path="url(#clip0)">
		<path d="M43.9916 10.8522C43.9403 10.3787 43.6461 9.95978 43.2065 9.75456L22.5815 0.129564C22.2129 -0.0423968 21.7871 -0.0423109 21.4185 0.129564L0.793547 9.75456C0.354063 9.9597 0.0599844 10.3785 0.00850781 10.8518C0.00739062 10.8617 0 10.9934 0 11.0006V34.3756C0 34.9378 0.342289 35.4434 0.864359 35.6522L21.4894 43.9022C21.6533 43.9677 21.8267 44.0006 22 44.0006C22.1733 44.0006 22.3467 43.9678 22.5106 43.9023L28.0992 41.6673C29.7856 43.1207 31.9794 44.0006 34.375 44.0006C39.6822 44.0006 44 39.6828 44 34.3756V11.0006C44 10.9937 43.9925 10.8617 43.9916 10.8522ZM22 2.89288L39.1654 10.9035L32.5557 13.5473L15.0672 6.12817L22 2.89288ZM20.625 40.5946L2.75 33.4446V13.0314L20.625 20.1814V40.5946ZM22 17.7696L4.8345 10.9035L11.7141 7.69301L28.9313 14.9971L22 17.7696ZM34.375 41.2506C30.5841 41.2506 27.5 38.1664 27.5 34.3756C27.5 30.5847 30.5841 27.5006 34.375 27.5006C38.1659 27.5006 41.25 30.5847 41.25 34.3756C41.25 38.1664 38.1659 41.2506 34.375 41.2506ZM34.375 24.7506C29.0678 24.7506 24.75 29.0683 24.75 34.3756C24.75 36.2418 25.2844 37.9852 26.2075 39.462L23.375 40.5948V20.1814L41.25 13.0314V27.6468C39.5017 25.8609 37.0658 24.7506 34.375 24.7506Z" fill="white"/>
		<path d="M36.3196 34.375L37.4098 33.2848C37.9468 32.7478 37.9468 31.8772 37.4098 31.3402C36.8728 30.8033 36.0022 30.8033 35.4653 31.3402L34.3751 32.4304L33.2848 31.3401C32.7478 30.8032 31.8772 30.8032 31.3403 31.3401C30.8032 31.8771 30.8032 32.7477 31.3403 33.2847L32.4306 34.375L31.3404 35.4652C30.8033 36.0022 30.8033 36.8728 31.3404 37.4098C31.6088 37.6783 31.9606 37.8125 32.3126 37.8125C32.6645 37.8125 33.0163 37.6783 33.2848 37.4098L34.3751 36.3195L35.4653 37.4098C35.7338 37.6783 36.0856 37.8125 36.4376 37.8125C36.7895 37.8125 37.1413 37.6783 37.4098 37.4098C37.9468 36.8728 37.9468 36.0022 37.4098 35.4652L36.3196 34.375Z" fill="white"/>
	</g>
	<defs>
		<clipPath id="clip0">
			<rect width="44" height="44" fill="white"/>
		</clipPath>
	</defs>
</svg>
