<svg width="38" height="48" viewBox="0 0 38 48" fill="none" xmlns="http://www.w3.org/2000/svg">
	<path d="M33.7948 43.3972V38.6078C33.7948 32.9667 29.436 29.5929 25.2467 26.3014C24.6681 25.8477 23.9316 24.9862 23.9316 23.6712C23.9316 22.3562 24.5951 21.074 25.2467 20.5255C29.3227 17.0959 33.7948 13.8601 33.7948 8.21916V4.60275H37.0824V0H0.917969V4.60275H4.20559V8.21925C4.20559 13.8603 8.67747 17.096 12.7536 20.5256C13.4053 21.0741 14.0687 22.3562 14.0687 23.6713C14.0687 24.9864 13.3322 25.8477 12.7536 26.3015C8.5645 29.5931 4.20559 32.9669 4.20559 38.6078V43.3973H0.917969V48H37.0823V43.3972H33.7948ZM10.6975 12.4931C9.48559 11.1215 8.80844 9.80119 8.80844 8.21916V4.60275H29.1919V8.21925C29.1919 9.80119 28.5146 11.1217 27.3029 12.4932H10.6975V12.4931ZM29.1919 42.1145L21.4508 39.0932C20.1029 38.5672 17.8982 38.5672 16.5502 39.0932L8.80844 42.1147V38.608C8.80844 35.4163 11.3452 33.261 15.485 30.0088L15.5948 29.9227C17.1662 28.6905 18.1855 26.9744 18.5314 25.0833C18.8411 25.1523 19.1594 25.1523 19.469 25.0833C19.8136 26.9737 20.834 28.6899 22.4035 29.9208L22.5152 30.0088C26.6551 33.2608 29.1918 35.4156 29.1918 38.6079V42.1145H29.1919Z" fill="white"/>
</svg>
