<svg width="48" height="38" viewBox="0 0 48 38" fill="none" xmlns="http://www.w3.org/2000/svg">
	<path d="M47.958 18.6589L46.7433 13.8001C45.6458 9.40994 41.7187 6.34375 37.1934 6.34375H32.5312C30.698 6.34375 29.1349 7.51947 28.5544 9.15625H26.7188V2.125C26.7188 1.34837 26.0891 0.71875 25.3125 0.71875C24.5709 0.71875 9.17756 0.71875 8.4375 0.71875C7.66087 0.71875 7.03125 1.34837 7.03125 2.125V9.15625H4.21875C3.44212 9.15625 2.8125 9.78587 2.8125 10.5625V17.5938H1.40625C0.629625 17.5938 0 18.2234 0 19V27.4375C0 29.7637 1.89253 31.6562 4.21875 31.6562H5.625C5.625 34.7579 8.14838 37.2812 11.25 37.2812C14.3516 37.2812 16.875 34.7579 16.875 31.6562C17.4711 31.6562 30.5302 31.6562 31.125 31.6562C31.125 34.7579 33.6484 37.2812 36.75 37.2812C39.8516 37.2812 42.375 34.7579 42.375 31.6562H43.7812C46.1075 31.6562 48 29.7637 48 27.4375V19C48 18.8851 47.9859 18.7705 47.958 18.6589ZM18.2812 3.53125H23.9062V9.15625C23.3101 9.15625 18.8774 9.15625 18.2812 9.15625V3.53125ZM19.6875 11.9688V17.5938H14.0625V11.9688H16.875H19.6875ZM9.84375 3.53125H15.4688V9.15625C14.8726 9.15625 10.4399 9.15625 9.84375 9.15625V3.53125ZM5.625 11.9688C6.22116 11.9688 10.6538 11.9688 11.25 11.9688V17.5938H5.625V11.9688ZM11.25 34.4688C9.69919 34.4688 8.4375 33.2071 8.4375 31.6562C8.4375 30.1054 9.69919 28.8438 11.25 28.8438C12.8008 28.8438 14.0625 30.1054 14.0625 31.6562C14.0625 33.2071 12.8008 34.4688 11.25 34.4688ZM28.3125 28.8438H16.1182C15.1441 27.1641 13.3274 26.0312 11.25 26.0312C9.17259 26.0312 7.35591 27.1641 6.38175 28.8438H4.21875C3.44334 28.8438 2.8125 28.2129 2.8125 27.4375V20.4062H28.3125V28.8438ZM28.3125 17.5938H22.5V11.9688H28.3125V17.5938ZM36.75 34.4688C35.1992 34.4688 33.9375 33.2071 33.9375 31.6562C33.9375 30.1054 35.1992 28.8438 36.75 28.8438C38.3008 28.8438 39.5625 30.1054 39.5625 31.6562C39.5625 33.2071 38.3008 34.4688 36.75 34.4688ZM45.1875 27.4375C45.1875 28.2129 44.5567 28.8438 43.7812 28.8438H41.6183C40.6441 27.1641 38.8274 26.0312 36.75 26.0312C34.6726 26.0312 32.8559 27.1641 31.8817 28.8438H31.125V10.5625C31.125 9.78709 31.7558 9.15625 32.5312 9.15625H33.9375V19C33.9375 21.3262 35.83 23.2188 38.1562 23.2188C38.795 23.2188 44.5368 23.2188 45.1875 23.2188V27.4375ZM45.1875 20.4062H43.2441L43.6327 19.6289C43.9801 18.9342 43.6986 18.0895 43.0039 17.7422C42.3095 17.3949 41.4646 17.6763 41.1173 18.371L40.0997 20.4062H38.1562C37.3808 20.4062 36.75 19.7754 36.75 19V9.15625H37.1934C40.4258 9.15625 43.2307 11.3463 44.0148 14.4822L45.1875 19.1732V20.4062Z" fill="white"/>
</svg>
