<svg width="40" height="44" viewBox="0 0 40 44" fill="none" xmlns="http://www.w3.org/2000/svg">
	<path d="M17.0687 40.5625H7.19531C5.29999 40.5625 3.74841 39.0203 3.74841 37.125V11.1719C3.74841 9.27655 5.29999 7.73438 7.19531 7.73438H12.6V8.59375C12.6 11.4371 14.9129 13.75 17.7562 13.75C20.5992 13.75 22.9125 11.4371 22.9125 8.59375V7.73438H28.3265C30.2219 7.73438 31.764 9.27655 31.764 11.1719V24.4062C31.764 25.3556 32.5335 26.125 33.4828 26.125C34.4318 26.125 35.2015 25.3556 35.2015 24.4062V11.1719C35.2015 7.38089 32.1172 4.29688 28.3265 4.29688H22.9125V1.71875C22.9125 0.769409 22.1427 0 21.1937 0H14.3187C13.3694 0 12.6 0.769409 12.6 1.71875V4.29688H7.19531C3.40433 4.29688 0.320312 7.38089 0.320312 11.1719V37.125C0.320312 40.916 3.40433 44 7.19531 44H17.0687C18.0177 44 18.7875 43.2306 18.7875 42.2812C18.7875 41.3319 18.0177 40.5625 17.0687 40.5625ZM16.0375 3.4375H19.475V8.59375C19.475 9.54141 18.7039 10.3125 17.7562 10.3125C16.8082 10.3125 16.0375 9.54141 16.0375 8.59375V3.4375ZM39.4316 30.3913L30.9255 42.2729C30.9067 42.2987 30.8875 42.3242 30.8677 42.3491C30.0953 43.3102 28.9469 43.9084 27.7169 43.9903C27.6196 43.9966 27.5222 44 27.4252 44C26.2959 44 25.1982 43.5646 24.3761 42.7818L18.8858 37.51C18.2014 36.8528 18.1792 35.7648 18.8368 35.08C19.4938 34.3955 20.5821 34.373 21.2669 35.0309L26.7515 40.297C27.0177 40.5504 27.3275 40.5706 27.488 40.5605C27.6434 40.5501 27.9334 40.492 28.1647 40.2238L36.6366 28.3903C37.1888 27.6185 38.2624 27.4406 39.0345 27.9931C39.8063 28.5457 39.9842 29.6192 39.4316 30.3913V30.3913ZM12.1703 20.5391C12.1703 21.4884 11.4005 22.2578 10.4515 22.2578H9.59216C8.64282 22.2578 7.87341 21.4884 7.87341 20.5391C7.87341 19.5897 8.64282 18.8203 9.59216 18.8203H10.4515C11.4005 18.8203 12.1703 19.5897 12.1703 20.5391V20.5391ZM27.8109 20.5391C27.8109 21.4884 27.0412 22.2578 26.0922 22.2578H16.4672C15.5178 22.2578 14.7484 21.4884 14.7484 20.5391C14.7484 19.5897 15.5178 18.8203 16.4672 18.8203H26.0922C27.0412 18.8203 27.8109 19.5897 27.8109 20.5391V20.5391ZM12.1703 27.4141C12.1703 28.3634 11.4005 29.1328 10.4515 29.1328H9.59216C8.64282 29.1328 7.87341 28.3634 7.87341 27.4141C7.87341 26.4647 8.64282 25.6953 9.59216 25.6953H10.4515C11.4005 25.6953 12.1703 26.4647 12.1703 27.4141ZM27.8109 27.4141C27.8109 28.3634 27.0412 29.1328 26.0922 29.1328H16.4672C15.5178 29.1328 14.7484 28.3634 14.7484 27.4141C14.7484 26.4647 15.5178 25.6953 16.4672 25.6953H26.0922C27.0412 25.6953 27.8109 26.4647 27.8109 27.4141Z" fill="white"/>
</svg>
