<svg width="12" height="12" viewBox="0 0 12 12" fill="none" xmlns="http://www.w3.org/2000/svg">
	<g clip-path="url(#clip0)">
		<path d="M10.7378 8.33897L9.33931 6.94344C8.83985 6.44504 7.99079 6.64442 7.791 7.29232C7.64117 7.7409 7.14172 7.99011 6.69221 7.89041C5.69331 7.6412 4.34478 6.34536 4.09506 5.29871C3.94522 4.85013 4.24489 4.35172 4.6944 4.20222C5.34369 4.00286 5.54347 3.15558 5.04402 2.65717L3.64555 1.26165C3.24599 0.912764 2.64665 0.912764 2.29703 1.26165L1.34807 2.20861C0.399113 3.20542 1.44796 5.84695 3.79539 8.18945C6.14281 10.5319 8.78991 11.6284 9.78881 10.6316L10.7378 9.68466C11.0874 9.28593 11.0874 8.68785 10.7378 8.33897Z" stroke="black" stroke-width="0.9"/>
	</g>
	<defs>
		<clipPath id="clip0">
			<rect width="12" height="11.7049" fill="white"/>
		</clipPath>
	</defs>
</svg>
