<svg width="32" height="32" viewBox="0 0 32 32" fill="none" xmlns="http://www.w3.org/2000/svg">
	<g clip-path="url(#clip0)">
		<path d="M26.7575 7.14622H21.7897L21.1493 3.94432C20.9892 3.14366 20.2803 2.5625 19.4638 2.5625H9.87202C9.05554 2.5625 8.34661 3.14366 8.18653 3.94432L7.54612 7.14622H2.57834C1.15664 7.14622 0 8.30287 0 9.72456V24.6217C0 26.0434 1.15664 27.2 2.57834 27.2H26.7575C28.1792 27.2 29.3358 26.0434 29.3358 24.6217V9.72456C29.3358 8.30287 28.1792 7.14622 26.7575 7.14622ZM9.87202 4.2814H19.4638L20.0368 7.14622H9.29905L9.87202 4.2814ZM27.6169 24.6217C27.6169 25.0956 27.2314 25.4811 26.7575 25.4811H2.57834C2.10444 25.4811 1.7189 25.0956 1.7189 24.6217V9.72456C1.7189 9.25066 2.10444 8.86512 2.57834 8.86512H26.7575C27.2314 8.86512 27.6169 9.25066 27.6169 9.72456V24.6217Z" fill="black"/>
		<path d="M14.668 10.8132C11.1611 10.8132 8.30811 13.6662 8.30811 17.1731C8.30811 20.68 11.1611 23.533 14.668 23.533C18.1749 23.533 21.0279 20.68 21.0279 17.1731C21.0279 13.6662 18.1749 10.8132 14.668 10.8132ZM14.668 21.8141C12.1089 21.8141 10.027 19.7321 10.027 17.1731C10.027 14.6141 12.1089 12.5321 14.668 12.5321C17.2271 12.5321 19.309 14.6141 19.309 17.1731C19.309 19.7321 17.2271 21.8141 14.668 21.8141Z" fill="black"/>
		<path d="M7.33405 10.8132H4.58381C4.10917 10.8132 3.72437 11.198 3.72437 11.6726C3.72437 12.1473 4.10917 12.5321 4.58381 12.5321H7.33405C7.80869 12.5321 8.19349 12.1473 8.19349 11.6726C8.19349 11.198 7.80869 10.8132 7.33405 10.8132Z" fill="black"/>
		<ellipse cx="27.9999" cy="24" rx="5.6" ry="5.6" fill="#F2F2F2"/>
		<path fill-rule="evenodd" clip-rule="evenodd" d="M28.8 20.8C28.8 20.3582 28.4419 20 28 20C27.5582 20 27.2 20.3582 27.2 20.8V23.2H24.8C24.3582 23.2 24 23.5582 24 24C24 24.4419 24.3582 24.8001 24.8 24.8001H27.2V27.2001C27.2 27.6419 27.5582 28.0001 28 28.0001C28.4419 28.0001 28.8 27.6419 28.8 27.2001V24.8001H31.2001C31.6419 24.8001 32.0001 24.4419 32.0001 24C32.0001 23.5582 31.6419 23.2 31.2001 23.2H28.8V20.8Z" fill="black"/>
	</g>
	<defs>
		<clipPath id="clip0">
			<rect width="32" height="32" fill="white"/>
		</clipPath>
	</defs>
</svg>
