<svg width="20" height="20" viewBox="0 0 20 20" fill="none" xmlns="http://www.w3.org/2000/svg">
	<path d="M14.6914 7.64062V5.12109C14.6914 2.53516 12.5898 0.429688 10 0.429688C7.41016 0.429688 5.30859 2.53516 5.30859 5.12109V7.64062C4.12109 7.76172 3.1875 8.76953 3.1875 9.99219V17.207C3.1875 18.5117 4.25 19.5703 5.55078 19.5703H14.4492C15.7539 19.5703 16.8125 18.5117 16.8125 17.207V9.99219C16.8125 8.76953 15.8828 7.76172 14.6914 7.64062ZM6.90234 5.12109C6.90234 3.41406 8.29297 2.02344 10 2.02344C11.707 2.02344 13.0977 3.41406 13.0977 5.12109V7.625H6.90234V5.12109ZM15.2188 17.207C15.2188 17.6289 14.875 17.9766 14.4492 17.9766H5.55078C5.125 17.9766 4.78125 17.6328 4.78125 17.207V9.99219C4.78125 9.56641 5.125 9.22266 5.55078 9.22266H14.4492C14.875 9.22266 15.2188 9.56641 15.2188 9.99219V17.207Z" fill="#333333"/>
	<path d="M10 13.6328C9.55859 13.6328 9.20312 13.9883 9.20312 14.4297V15.9961C9.20312 16.4375 9.55859 16.793 10 16.793C10.4414 16.793 10.7969 16.4375 10.7969 15.9961V14.4297C10.7969 13.9922 10.4414 13.6328 10 13.6328Z" fill="#333333"/>
</svg>
