<svg width="21" height="21" viewBox="0 0 21 21" fill="none" xmlns="http://www.w3.org/2000/svg">
	<circle cx="10.5" cy="10.5" r="10.5" fill="#F04A26"/>
	<path fill-rule="evenodd" clip-rule="evenodd" d="M14.2122 8.27254C14.6223 7.86249 14.6223 7.19767 14.2122 6.78762C13.8022 6.37757 13.1374 6.37757 12.7273 6.78762L10.5 9.01492L8.27269 6.78761C7.86264 6.37756 7.19782 6.37756 6.78777 6.78761C6.37772 7.19766 6.37772 7.86248 6.78777 8.27253L9.01508 10.4998L6.78762 12.7273C6.37757 13.1374 6.37757 13.8022 6.78762 14.2122C7.19767 14.6223 7.86249 14.6223 8.27254 14.2122L10.5 11.9848L12.7275 14.2122C13.1375 14.6223 13.8023 14.6223 14.2124 14.2122C14.6224 13.8022 14.6224 13.1374 14.2124 12.7273L11.9849 10.4998L14.2122 8.27254Z" fill="white"/>
</svg>
