<svg width="23" height="25" viewBox="0 0 23 25" fill="none" xmlns="http://www.w3.org/2000/svg">
	<path fill-rule="evenodd" clip-rule="evenodd" d="M18.022 12.382H5.72133C5.34168 12.382 5 12.7266 5 13.1094C5 13.4922 5.37965 13.8367 5.72133 13.8367H18.022C18.4396 13.8367 18.7812 13.4922 18.7812 13.1094C18.7812 12.7266 18.4016 12.382 18.022 12.382ZM13.0865 17.0141H5.72133C5.34168 17.0141 5 17.3586 5 17.7414C5 18.0859 5.37965 18.4688 5.72133 18.4688H13.0865C13.4662 18.4688 13.8079 18.0859 13.8079 17.7414C13.8079 17.3586 13.4662 17.0141 13.0865 17.0141ZM5.72133 9.20469H18.022C18.4396 9.20469 18.7812 8.86016 18.7812 8.47734C18.7812 8.13281 18.4016 7.75 18.022 7.75H5.72133C5.34168 7.75 5 8.13281 5 8.47734C5 8.86016 5.34168 9.20469 5.72133 9.20469Z" fill="currentColor"/>
	<path fill-rule="evenodd" clip-rule="evenodd" d="M20 1.5H3C2.17157 1.5 1.5 2.17157 1.5 3V22C1.5 22.8284 2.17157 23.5 3 23.5H20C20.8284 23.5 21.5 22.8284 21.5 22V3C21.5 2.17157 20.8284 1.5 20 1.5ZM3 0C1.34315 0 0 1.34315 0 3V22C0 23.6569 1.34315 25 3 25H20C21.6569 25 23 23.6569 23 22V3C23 1.34315 21.6569 0 20 0H3Z" fill="currentColor"/>
</svg>
