<svg width="16" height="16" viewBox="0 0 16 16" fill="none" xmlns="http://www.w3.org/2000/svg">
	<g clip-path="url(#clip0)">
		<path d="M12.9348 3.00517L12.0778 14.5086C12.0628 14.704 11.8948 14.8572 11.6952 14.8572H4.28564C4.08601 14.8572 3.91801 14.704 3.90317 14.5109L3.06507 3.00611L1.92526 3.08914L2.76354 14.5962C2.82392 15.3835 3.49248 16 4.28564 16H11.6952C12.4881 16 13.1567 15.3835 13.2175 14.5947L14.0746 3.08992L12.9348 3.00517Z" fill="currentColor"/>
		<path d="M9.58102 0H6.41914C5.68389 0 5.08579 0.598094 5.08579 1.33334V3.04763H6.22864V1.33334C6.22864 1.23009 6.31589 1.14287 6.41911 1.14287H9.58102C9.68427 1.14287 9.77149 1.23012 9.77149 1.33334V3.04763H10.9143V1.33334C10.9144 0.598094 10.3161 0 9.58102 0Z" fill="currentColor"/>
		<path d="M15.1619 2.47621H0.838134C0.522509 2.47621 0.266697 2.73202 0.266697 3.04765C0.266697 3.36327 0.522509 3.61909 0.838134 3.61909H15.1619C15.4776 3.61909 15.7334 3.36327 15.7334 3.04765C15.7334 2.73202 15.4776 2.47621 15.1619 2.47621Z" fill="currentColor"/>
	</g>
	<defs>
		<clipPath id="clip0">
			<rect width="16" height="16" fill="white"/>
		</clipPath>
	</defs>
</svg>
