<svg width="23" height="23" viewBox="0 0 23 23" fill="none" xmlns="http://www.w3.org/2000/svg">
	<g clip-path="url(#clip0)">
		<path d="M12.2166 7.1875C11.8198 7.1875 11.498 7.5091 11.4979 7.90593L11.4961 12.216C11.4961 12.4069 11.5719 12.5894 11.7067 12.7241L14.7958 15.8126C15.0764 16.0932 15.5314 16.0932 15.8121 15.8126C16.0927 15.5319 16.0927 15.0768 15.812 14.7962L13.9137 12.8982C13.2862 12.2709 12.9338 11.4197 12.9342 10.5324L12.9353 7.90654C12.9355 7.50948 12.6137 7.1875 12.2166 7.1875Z" fill="black"/>
		<path d="M12.9375 1.43747C8.15082 1.43747 4.14479 4.80087 3.13315 9.28591C3.03344 9.72796 2.65351 10.0625 2.20036 10.0625C1.38837 10.0625 0.981726 11.0442 1.55589 11.6184L2.88664 12.9491C3.27716 13.3396 3.91033 13.3396 4.30085 12.9491L5.88474 11.3652C6.36549 10.8845 6.025 10.0625 5.34512 10.0625C4.87289 10.0625 4.5121 9.63633 4.63918 9.18153C5.65415 5.54913 8.98538 2.87498 12.9375 2.87498C17.6936 2.87498 21.5625 6.74387 21.5625 11.5C21.5625 16.2561 17.6936 20.125 12.9375 20.125C10.5045 20.125 8.23254 19.1229 6.6008 17.3524C6.33193 17.0607 5.88262 17.0028 5.5699 17.247C5.25695 17.4913 5.19967 17.9451 5.46533 18.2401C7.37401 20.3598 10.0589 21.5625 12.9375 21.5625C18.4861 21.5625 23 17.0478 23 11.5C23 5.95217 18.4861 1.43751 12.9375 1.43747Z" fill="black"/>
	</g>
	<defs>
		<clipPath id="clip0">
			<rect width="23" height="23" fill="white"/>
		</clipPath>
	</defs>
</svg>
